<svg width="74" height="74" viewBox="0 0 74 74" fill="none" xmlns="http://www.w3.org/2000/svg">
<g filter="url(#filter0_d_0_191)">
<path fill-rule="evenodd" clip-rule="evenodd" d="M31.7849 23.9501V27.6266H33.8423V38.0855H38.1677V27.6266H41.0225L41.4004 23.9537H38.1677V21.7901C38.1677 20.8606 38.8696 20.7884 39.0847 20.7884H41.4104V17.2208L38.2053 17.2073C34.9885 17.2073 33.8423 19.4617 33.8423 21.5714V23.9501H31.7849H31.7849ZM36.9995 43.0004C32.7258 43.0004 28.708 41.336 25.686 38.3139C22.6643 35.2918 21 31.2739 21 27.0002C21 22.7262 22.6643 18.7081 25.686 15.6862C28.708 12.6643 32.7258 11 36.9995 11C41.2734 11 45.2915 12.6643 48.3135 15.6862C51.3355 18.7082 52.9996 22.7262 52.9996 27.0002C52.9996 31.2738 51.3355 35.2918 48.3135 38.3139C45.2913 41.336 41.2732 43.0004 36.9995 43.0004Z" fill="#2C2738"/>
<path d="M31.7849 23.9501H32.2849V23.4501H31.7849V23.9501ZM31.7849 27.6266H31.2849V28.1266H31.7849V27.6266ZM33.8423 27.6266H34.3423V27.1266H33.8423V27.6266ZM33.8423 38.0855H33.3423V38.5855H33.8423V38.0855ZM38.1677 38.0855V38.5855H38.6677V38.0855H38.1677ZM38.1677 27.6266V27.1266H37.6677V27.6266H38.1677ZM41.0225 27.6266V28.1266H41.4737L41.5198 27.6778L41.0225 27.6266ZM41.4004 23.9537L41.8978 24.0049L41.9545 23.4537H41.4004V23.9537ZM38.1677 23.9537H37.6677V24.4537H38.1677V23.9537ZM41.4104 20.7884V21.2884H41.9104V20.7884H41.4104ZM41.4104 17.2208H41.9104V16.7229L41.4125 16.7208L41.4104 17.2208ZM38.2053 17.2073L38.2074 16.7073H38.2053V17.2073ZM33.8423 23.9501V24.4501H34.3423V23.9501H33.8423ZM25.686 38.3139L25.3325 38.6674L25.3325 38.6674L25.686 38.3139ZM25.686 15.6862L25.3325 15.3326L25.3325 15.3326L25.686 15.6862ZM48.3135 15.6862L48.667 15.3326L48.667 15.3326L48.3135 15.6862ZM48.3135 38.3139L48.667 38.6674L48.667 38.6674L48.3135 38.3139ZM31.2849 23.9501V27.6266H32.2849V23.9501H31.2849ZM31.7849 28.1266H33.8423V27.1266H31.7849V28.1266ZM33.3423 27.6266V38.0855H34.3423V27.6266H33.3423ZM33.8423 38.5855H38.1677V37.5855H33.8423V38.5855ZM38.6677 38.0855V27.6266H37.6677V38.0855H38.6677ZM38.1677 28.1266H41.0225V27.1266H38.1677V28.1266ZM41.5198 27.6778L41.8978 24.0049L40.903 23.9025L40.5251 27.5754L41.5198 27.6778ZM41.4004 23.4537H38.1677V24.4537H41.4004V23.4537ZM38.6677 23.9537V21.7901H37.6677V23.9537H38.6677ZM38.6677 21.7901C38.6677 21.621 38.6994 21.5219 38.7274 21.4662C38.7544 21.4125 38.7874 21.3803 38.822 21.3574C38.9045 21.3026 39.0171 21.2884 39.0847 21.2884V20.2884C38.9372 20.2884 38.5914 20.3103 38.2692 20.524C37.9109 20.7617 37.6677 21.1783 37.6677 21.7901H38.6677ZM39.0847 21.2884H41.4104V20.2884H39.0847V21.2884ZM41.9104 20.7884V17.2208H40.9104V20.7884H41.9104ZM41.4125 16.7208L38.2074 16.7073L38.2032 17.7073L41.4083 17.7208L41.4125 16.7208ZM38.2053 16.7073C36.4687 16.7073 35.2291 17.3222 34.4332 18.2783C33.6502 19.2189 33.3423 20.4344 33.3423 21.5714H34.3423C34.3423 20.5987 34.6075 19.6321 35.2018 18.9181C35.7832 18.2196 36.7251 17.7073 38.2053 17.7073V16.7073ZM33.3423 21.5714V23.9501H34.3423V21.5714H33.3423ZM33.8423 23.4501H31.7849V24.4501H33.8423V23.4501ZM31.7849 24.4501H31.7849V23.4501H31.7849V24.4501ZM36.9995 42.5004C32.8585 42.5004 28.9678 40.8887 26.0396 37.9603L25.3325 38.6674C28.4482 41.7833 32.5932 43.5004 36.9995 43.5004V42.5004ZM26.0396 37.9603C23.1116 35.0321 21.5 31.1413 21.5 27.0002H20.5C20.5 31.4065 22.217 35.5516 25.3325 38.6674L26.0396 37.9603ZM21.5 27.0002C21.5 22.8588 23.1116 18.9679 26.0396 16.0397L25.3325 15.3326C22.217 18.4483 20.5 22.5936 20.5 27.0002H21.5ZM26.0396 16.0397C28.9678 13.1116 32.8584 11.5 36.9995 11.5V10.5C32.5932 10.5 28.4482 12.2169 25.3325 15.3326L26.0396 16.0397ZM36.9995 11.5C41.1409 11.5 45.0317 13.1116 47.9599 16.0397L48.667 15.3326C45.5513 12.2169 41.406 10.5 36.9995 10.5V11.5ZM47.9599 16.0397C50.8881 18.9679 52.4996 22.8588 52.4996 27.0002H53.4996C53.4996 22.5936 51.7828 18.4484 48.667 15.3326L47.9599 16.0397ZM52.4996 27.0002C52.4996 31.1412 50.8881 35.032 47.9599 37.9603L48.667 38.6674C51.7828 35.5516 53.4996 31.4064 53.4996 27.0002H52.4996ZM47.9599 37.9603C45.0315 40.8887 41.1406 42.5004 36.9995 42.5004V43.5004C41.4058 43.5004 45.5511 41.7833 48.667 38.6674L47.9599 37.9603Z" fill="black" fill-opacity="0.01"/>
</g>
<defs>
<filter id="filter0_d_0_191" x="0.5" y="0.5" width="72.9996" height="73.0005" filterUnits="userSpaceOnUse" color-interpolation-filters="sRGB">
<feFlood flood-opacity="0" result="BackgroundImageFix"/>
<feColorMatrix in="SourceAlpha" type="matrix" values="0 0 0 0 0 0 0 0 0 0 0 0 0 0 0 0 0 0 127 0" result="hardAlpha"/>
<feOffset dy="10"/>
<feGaussianBlur stdDeviation="10"/>
<feColorMatrix type="matrix" values="0 0 0 0 0.172549 0 0 0 0 0.152941 0 0 0 0 0.219608 0 0 0 0.08 0"/>
<feBlend mode="normal" in2="BackgroundImageFix" result="effect1_dropShadow_0_191"/>
<feBlend mode="normal" in="SourceGraphic" in2="effect1_dropShadow_0_191" result="shape"/>
</filter>
</defs>
</svg>
