<svg width="74" height="74" viewBox="0 0 74 74" fill="none" xmlns="http://www.w3.org/2000/svg">
<g filter="url(#filter0_d_0_322)">
<path fill-rule="evenodd" clip-rule="evenodd" d="M31.7849 23.7431V27.4196H33.8423V37.8785H38.1677V27.4196H41.0225L41.4004 23.7467H38.1677V21.5831C38.1677 20.6536 38.8696 20.5814 39.0847 20.5814H41.4104V17.0138L38.2053 17.0003C34.9885 17.0003 33.8423 19.2546 33.8423 21.3644V23.7431H31.7849H31.7849ZM36.9995 42.7934C32.7258 42.7934 28.708 41.129 25.686 38.1068C22.6643 35.0848 21 31.0669 21 26.7932C21 22.5191 22.6643 18.5011 25.686 15.4791C28.708 12.4572 32.7258 10.793 36.9995 10.793C41.2734 10.793 45.2915 12.4572 48.3135 15.4791C51.3355 18.5011 52.9996 22.5192 52.9996 26.7932C52.9996 31.0668 51.3355 35.0847 48.3135 38.1068C45.2913 41.129 41.2732 42.7934 36.9995 42.7934Z" fill="#EEF2F4"/>
<path d="M31.7849 23.7431H32.2849V23.2431H31.7849V23.7431ZM31.7849 27.4196H31.2849V27.9196H31.7849V27.4196ZM33.8423 27.4196H34.3423V26.9196H33.8423V27.4196ZM33.8423 37.8785H33.3423V38.3785H33.8423V37.8785ZM38.1677 37.8785V38.3785H38.6677V37.8785H38.1677ZM38.1677 27.4196V26.9196H37.6677V27.4196H38.1677ZM41.0225 27.4196V27.9196H41.4737L41.5198 27.4707L41.0225 27.4196ZM41.4004 23.7467L41.8978 23.7978L41.9545 23.2467H41.4004V23.7467ZM38.1677 23.7467H37.6677V24.2467H38.1677V23.7467ZM41.4104 20.5814V21.0814H41.9104V20.5814H41.4104ZM41.4104 17.0138H41.9104V16.5159L41.4125 16.5138L41.4104 17.0138ZM38.2053 17.0003L38.2074 16.5003H38.2053V17.0003ZM33.8423 23.7431V24.2431H34.3423V23.7431H33.8423ZM25.686 38.1068L25.3325 38.4604L25.3325 38.4604L25.686 38.1068ZM25.686 15.4791L25.3325 15.1256L25.3325 15.1256L25.686 15.4791ZM48.3135 15.4791L48.667 15.1256L48.667 15.1256L48.3135 15.4791ZM48.3135 38.1068L48.667 38.4604L48.667 38.4604L48.3135 38.1068ZM31.2849 23.7431V27.4196H32.2849V23.7431H31.2849ZM31.7849 27.9196H33.8423V26.9196H31.7849V27.9196ZM33.3423 27.4196V37.8785H34.3423V27.4196H33.3423ZM33.8423 38.3785H38.1677V37.3785H33.8423V38.3785ZM38.6677 37.8785V27.4196H37.6677V37.8785H38.6677ZM38.1677 27.9196H41.0225V26.9196H38.1677V27.9196ZM41.5198 27.4707L41.8978 23.7978L40.903 23.6955L40.5251 27.3684L41.5198 27.4707ZM41.4004 23.2467H38.1677V24.2467H41.4004V23.2467ZM38.6677 23.7467V21.5831H37.6677V23.7467H38.6677ZM38.6677 21.5831C38.6677 21.414 38.6994 21.3148 38.7274 21.2591C38.7544 21.2054 38.7874 21.1733 38.822 21.1503C38.9045 21.0956 39.0171 21.0814 39.0847 21.0814V20.0814C38.9372 20.0814 38.5914 20.1033 38.2692 20.317C37.9109 20.5547 37.6677 20.9712 37.6677 21.5831H38.6677ZM39.0847 21.0814H41.4104V20.0814H39.0847V21.0814ZM41.9104 20.5814V17.0138H40.9104V20.5814H41.9104ZM41.4125 16.5138L38.2074 16.5003L38.2032 17.5003L41.4083 17.5138L41.4125 16.5138ZM38.2053 16.5003C36.4687 16.5003 35.2291 17.1151 34.4332 18.0713C33.6502 19.0119 33.3423 20.2274 33.3423 21.3644H34.3423C34.3423 20.3916 34.6075 19.425 35.2018 18.711C35.7832 18.0126 36.7251 17.5003 38.2053 17.5003V16.5003ZM33.3423 21.3644V23.7431H34.3423V21.3644H33.3423ZM33.8423 23.2431H31.7849V24.2431H33.8423V23.2431ZM31.7849 24.2431H31.7849V23.2431H31.7849V24.2431ZM36.9995 42.2934C32.8585 42.2934 28.9678 40.6817 26.0396 37.7533L25.3325 38.4604C28.4482 41.5763 32.5932 43.2934 36.9995 43.2934V42.2934ZM26.0396 37.7533C23.1116 34.825 21.5 30.9343 21.5 26.7932H20.5C20.5 31.1995 22.217 35.3446 25.3325 38.4604L26.0396 37.7533ZM21.5 26.7932C21.5 22.6517 23.1116 18.7608 26.0396 15.8327L25.3325 15.1256C22.217 18.2413 20.5 22.3865 20.5 26.7932H21.5ZM26.0396 15.8327C28.9678 12.9045 32.8584 11.293 36.9995 11.293V10.293C32.5932 10.293 28.4482 12.0099 25.3325 15.1256L26.0396 15.8327ZM36.9995 11.293C41.1409 11.293 45.0317 12.9045 47.9599 15.8327L48.667 15.1256C45.5513 12.0099 41.406 10.293 36.9995 10.293V11.293ZM47.9599 15.8327C50.8881 18.7609 52.4996 22.6518 52.4996 26.7932H53.4996C53.4996 22.3866 51.7828 18.2414 48.667 15.1256L47.9599 15.8327ZM52.4996 26.7932C52.4996 30.9342 50.8881 34.825 47.9599 37.7533L48.667 38.4604C51.7828 35.3445 53.4996 31.1994 53.4996 26.7932H52.4996ZM47.9599 37.7533C45.0315 40.6817 41.1406 42.2934 36.9995 42.2934V43.2934C41.4058 43.2934 45.5511 41.5763 48.667 38.4604L47.9599 37.7533Z" fill="black" fill-opacity="0.01"/>
</g>
<defs>
<filter id="filter0_d_0_322" x="0.5" y="0.292969" width="72.9996" height="73" filterUnits="userSpaceOnUse" color-interpolation-filters="sRGB">
<feFlood flood-opacity="0" result="BackgroundImageFix"/>
<feColorMatrix in="SourceAlpha" type="matrix" values="0 0 0 0 0 0 0 0 0 0 0 0 0 0 0 0 0 0 127 0" result="hardAlpha"/>
<feOffset dy="10"/>
<feGaussianBlur stdDeviation="10"/>
<feColorMatrix type="matrix" values="0 0 0 0 0.172549 0 0 0 0 0.152941 0 0 0 0 0.219608 0 0 0 0.08 0"/>
<feBlend mode="normal" in2="BackgroundImageFix" result="effect1_dropShadow_0_322"/>
<feBlend mode="normal" in="SourceGraphic" in2="effect1_dropShadow_0_322" result="shape"/>
</filter>
</defs>
</svg>
