<svg width="72" height="73" viewBox="0 0 72 73" fill="none" xmlns="http://www.w3.org/2000/svg">
<path fill-rule="evenodd" clip-rule="evenodd" d="M41.1178 20.5585C40.4705 20.5585 39.9439 21.0845 39.9439 21.731C39.9439 22.3775 40.4705 22.9034 41.1178 22.9034C41.7643 22.9034 42.2903 22.3775 42.2903 21.731C42.2903 21.0845 41.7643 20.5585 41.1178 20.5585ZM36.0006 21.8782C33.2665 21.8782 31.0422 24.1026 31.0422 26.8366C31.0422 29.5699 33.2665 31.7936 36.0006 31.7936C38.7339 31.7936 40.9575 29.5699 40.9575 26.8366C40.9575 24.1026 38.7339 21.8782 36.0006 21.8782ZM40.7698 34.3667H31.2313C29.7091 34.3667 28.4706 33.1282 28.4706 31.6059V22.0674C28.4706 20.5451 29.7091 19.3066 31.2313 19.3066H40.7698C42.2921 19.3066 43.5306 20.5451 43.5306 22.0674V31.6059C43.5306 33.1282 42.2921 34.3667 40.7698 34.3667Z" fill="#EEF2F4"/>
<path fill-rule="evenodd" clip-rule="evenodd" d="M36.0005 23.9776C34.421 23.9776 33.1349 25.2607 33.1349 26.8374C33.1349 28.4148 34.421 29.6983 36.0005 29.6983C37.5806 29.6983 38.8657 28.4148 38.8657 26.8374C38.8657 25.2611 37.5803 23.9776 36.0005 23.9776Z" fill="#EEF2F4"/>
<g filter="url(#filter0_d_0_332)">
<path fill-rule="evenodd" clip-rule="evenodd" d="M31.2322 17.2112C28.5547 17.2112 26.3763 19.3895 26.3763 22.067V31.6055C26.3763 34.2831 28.5547 36.4614 31.2322 36.4614H40.7692C43.4468 36.4614 45.6251 34.2831 45.6251 31.6055V22.067C45.6251 19.3895 43.4468 17.2112 40.7692 17.2112H31.2322ZM36 42.793C27.1776 42.793 20 35.6154 20 26.793C20 17.9705 27.1776 10.793 36 10.793C44.8224 10.793 52 17.9705 52 26.793C52 35.6154 44.8224 42.793 36 42.793Z" fill="#EEF2F4"/>
</g>
<defs>
<filter id="filter0_d_0_332" x="0" y="0.792969" width="72" height="72" filterUnits="userSpaceOnUse" color-interpolation-filters="sRGB">
<feFlood flood-opacity="0" result="BackgroundImageFix"/>
<feColorMatrix in="SourceAlpha" type="matrix" values="0 0 0 0 0 0 0 0 0 0 0 0 0 0 0 0 0 0 127 0" result="hardAlpha"/>
<feOffset dy="10"/>
<feGaussianBlur stdDeviation="10"/>
<feColorMatrix type="matrix" values="0 0 0 0 0.172549 0 0 0 0 0.152941 0 0 0 0 0.219608 0 0 0 0.08 0"/>
<feBlend mode="normal" in2="BackgroundImageFix" result="effect1_dropShadow_0_332"/>
<feBlend mode="normal" in="SourceGraphic" in2="effect1_dropShadow_0_332" result="shape"/>
</filter>
</defs>
</svg>
