<svg width="1920" height="505" viewBox="0 0 1920 505" fill="none" xmlns="http://www.w3.org/2000/svg">
<path d="M0.5 504.503V0.794027C0.574426 0.829375 0.654626 0.867392 0.740599 0.908053C1.37847 1.20974 2.33412 1.65703 3.60697 2.24031C6.15268 3.40686 9.96723 5.11735 15.0461 7.29484C25.204 11.6498 40.4193 17.8728 60.6563 25.3482C101.13 40.2989 161.691 60.2595 242.053 80.3054C402.776 120.397 642.7 160.83 959.536 162.211C1276.37 163.591 1516.53 123.158 1677.49 82.3751C1757.96 61.9839 1818.64 41.5054 1859.2 26.123C1879.48 18.4317 1894.74 12.0145 1904.92 7.51913C1910.01 5.27146 1913.84 3.50426 1916.39 2.29851C1917.66 1.69564 1918.62 1.23313 1919.26 0.921115C1919.35 0.879712 1919.43 0.840959 1919.5 0.804879V504.503H0.5Z" fill="#0880AE" stroke="#0880AE"/>
</svg>
