<svg width="74" height="74" viewBox="0 0 74 74" fill="none" xmlns="http://www.w3.org/2000/svg">
<g filter="url(#filter0_d_0_327)">
<path fill-rule="evenodd" clip-rule="evenodd" d="M29.0586 33.8925L29.0582 33.8935C30.8107 35.0169 32.8376 35.6114 34.9194 35.6114C41.7309 35.6114 45.8013 30.0785 45.8013 24.7295C45.8013 24.5559 45.7974 24.3893 45.7896 24.2345C46.5408 23.693 47.183 23.0274 47.6985 22.2554C47.0012 22.5646 46.2616 22.7664 45.5016 22.8566C46.3027 22.3766 46.9004 21.6261 47.1837 20.7416C46.4307 21.1883 45.6132 21.5001 44.7555 21.6695C44.0353 20.9018 43.0177 20.4617 41.9628 20.4617C39.8541 20.4617 38.1387 22.1771 38.1387 24.2858C38.1387 24.5825 38.1724 24.8759 38.2387 25.1579C35.1729 25.0042 32.2999 23.547 30.3555 21.161C30.0169 21.7421 29.8371 22.4072 29.8371 23.0843C29.8371 24.365 30.4729 25.555 31.5381 26.2676C30.9312 26.2484 30.3327 26.0822 29.8065 25.7888C29.8056 25.805 29.8056 25.8215 29.8056 25.8374C29.8056 27.6531 31.0958 29.2299 32.8737 29.5868C32.548 29.6764 32.2092 29.7209 31.8666 29.7209C31.6262 29.7209 31.3843 29.6982 31.1475 29.6534C31.6456 31.2106 33.0807 32.2784 34.7196 32.3093C33.3518 33.3809 31.709 33.9464 29.9694 33.9464C29.6621 33.9464 29.3556 33.9282 29.0586 33.8925H29.0586ZM37.0002 42.7934C32.7267 42.7934 28.7087 41.129 25.6865 38.1068C22.6643 35.0847 21 31.0667 21 26.7932C21 22.5193 22.6643 18.5012 25.6865 15.4791C28.7086 12.4572 32.7266 10.793 37.0002 10.793C41.274 10.793 45.2919 12.4572 48.3138 15.4791C51.3361 18.5012 53.0004 22.5193 53.0004 26.7932C53.0004 31.0667 51.3361 35.0847 48.3138 38.1068C45.2918 41.129 41.2739 42.7934 37.0002 42.7934Z" fill="#EEF2F4"/>
<path d="M29.0586 33.8925V33.3925H28.7036L28.5865 33.7276L29.0586 33.8925ZM29.0582 33.8935L28.5862 33.7287L28.456 34.1014L28.7884 34.3145L29.0582 33.8935ZM45.7896 24.2345L45.4972 23.8289L45.2765 23.9879L45.2902 24.2597L45.7896 24.2345ZM47.6985 22.2554L48.1143 22.533L49.0716 21.0993L47.4958 21.7983L47.6985 22.2554ZM45.5016 22.8566L45.2446 22.4277L45.5605 23.3531L45.5016 22.8566ZM47.1837 20.7416L47.6599 20.8941L48.0618 19.6393L46.9286 20.3115L47.1837 20.7416ZM44.7555 21.6695L44.3909 22.0116L44.5805 22.2137L44.8524 22.16L44.7555 21.6695ZM38.2387 25.1579L38.2136 25.6572L38.8775 25.6905L38.7254 25.0434L38.2387 25.1579ZM30.3555 21.161L30.7431 20.8451L30.287 20.2854L29.9235 20.9092L30.3555 21.161ZM31.5381 26.2676L31.5223 26.7673L33.267 26.8225L31.8161 25.852L31.5381 26.2676ZM29.8065 25.7888L30.0501 25.3521L29.3554 24.9647L29.3074 25.7586L29.8065 25.7888ZM32.8737 29.5868L33.0064 30.0688L32.9721 29.0965L32.8737 29.5868ZM31.1475 29.6534L31.2404 29.1621L30.4154 29.0061L30.6712 29.8057L31.1475 29.6534ZM34.7196 32.3093L35.028 32.7029L36.1347 31.8358L34.729 31.8094L34.7196 32.3093ZM29.0586 33.8925L29.1184 33.3961L29.0886 33.3925H29.0586V33.8925ZM25.6865 38.1068L25.333 38.4604L25.333 38.4604L25.6865 38.1068ZM25.6865 15.4791L25.333 15.1256L25.333 15.1256L25.6865 15.4791ZM48.3138 15.4791L47.9603 15.8327L47.9603 15.8327L48.3138 15.4791ZM48.3138 38.1068L47.9603 37.7533L47.9603 37.7533L48.3138 38.1068ZM28.5865 33.7276L28.5862 33.7287L29.5303 34.0584L29.5306 34.0573L28.5865 33.7276ZM28.7884 34.3145C30.6213 35.4895 32.7419 36.1114 34.9194 36.1114V35.1114C32.9334 35.1114 31 34.5444 29.3281 33.4726L28.7884 34.3145ZM34.9194 36.1114C42.05 36.1114 46.3013 30.3097 46.3013 24.7295H45.3013C45.3013 29.8473 41.4119 35.1114 34.9194 35.1114V36.1114ZM46.3013 24.7295C46.3013 24.5486 46.2972 24.3735 46.2889 24.2093L45.2902 24.2597C45.2975 24.4051 45.3013 24.5632 45.3013 24.7295H46.3013ZM46.0819 24.6401C46.8816 24.0636 47.5657 23.3547 48.1143 22.533L47.2827 21.9777C46.8003 22.7001 46.1999 23.3224 45.4972 23.8289L46.0819 24.6401ZM47.4958 21.7983C46.8447 22.0871 46.1536 22.2757 45.4427 22.36L45.5605 23.3531C46.3696 23.2571 47.1577 23.0422 47.9012 22.7124L47.4958 21.7983ZM45.7586 23.2855C46.663 22.7436 47.3392 21.8954 47.6599 20.8941L46.7076 20.589C46.4616 21.3568 45.9425 22.0095 45.2446 22.4277L45.7586 23.2855ZM46.9286 20.3115C46.2247 20.7291 45.4607 21.0205 44.6586 21.1789L44.8524 22.16C45.7656 21.9796 46.6366 21.6474 47.4388 21.1716L46.9286 20.3115ZM45.1201 21.3274C44.3052 20.4587 43.1555 19.9617 41.9628 19.9617V20.9617C42.8799 20.9617 43.7654 21.3449 44.3909 22.0116L45.1201 21.3274ZM41.9628 19.9617C39.578 19.9617 37.6387 21.901 37.6387 24.2858H38.6387C38.6387 22.4533 40.1303 20.9617 41.9628 20.9617V19.9617ZM37.6387 24.2858C37.6387 24.6202 37.6766 24.952 37.7519 25.2723L38.7254 25.0434C38.6681 24.7998 38.6387 24.5449 38.6387 24.2858H37.6387ZM38.2637 24.6585C35.3398 24.512 32.5985 23.1218 30.7431 20.8451L29.9679 21.4768C32.0014 23.9721 35.0059 25.4965 38.2136 25.6572L38.2637 24.6585ZM29.9235 20.9092C29.5402 21.567 29.3371 22.319 29.3371 23.0843H30.3371C30.3371 22.4954 30.4935 21.9172 30.7875 21.4127L29.9235 20.9092ZM29.3371 23.0843C29.3371 24.532 30.0563 25.8779 31.2601 26.6832L31.8161 25.852C30.8895 25.2322 30.3371 24.198 30.3371 23.0843H29.3371ZM31.5539 25.7678C31.0268 25.7512 30.5063 25.6065 30.0501 25.3521L29.563 26.2255C30.159 26.5578 30.8356 26.7456 31.5223 26.7673L31.5539 25.7678ZM29.3074 25.7586C29.3054 25.7924 29.3056 25.824 29.3056 25.8374H30.3056C30.3056 25.8288 30.3056 25.8245 30.3056 25.8207C30.3057 25.8173 30.3057 25.8171 30.3056 25.8189L29.3074 25.7586ZM29.3056 25.8374C29.3056 27.8908 30.7634 29.6732 32.7753 30.077L32.9721 29.0965C31.4283 28.7867 30.3056 27.4153 30.3056 25.8374H29.3056ZM32.741 29.1047C32.4601 29.182 32.166 29.2209 31.8666 29.2209V30.2209C32.2525 30.2209 32.6359 30.1708 33.0064 30.0688L32.741 29.1047ZM31.8666 29.2209C31.6575 29.2209 31.4467 29.2011 31.2404 29.1621L31.0546 30.1447C31.3219 30.1952 31.595 30.2209 31.8666 30.2209V29.2209ZM30.6712 29.8057C31.2348 31.5672 32.8578 32.7743 34.7102 32.8092L34.729 31.8094C33.3036 31.7825 32.0565 30.854 31.6237 29.501L30.6712 29.8057ZM34.4112 31.9157C33.1317 32.9181 31.5975 33.4464 29.9694 33.4464V34.4464C31.8204 34.4464 33.5719 33.8436 35.028 32.7029L34.4112 31.9157ZM29.9694 33.4464C29.6816 33.4464 29.395 33.4294 29.1184 33.3961L28.9988 34.3889C29.3162 34.4271 29.6427 34.4464 29.9694 34.4464V33.4464ZM29.0586 33.3925H29.0586V34.3925H29.0586V33.3925ZM37.0002 42.2934C32.8593 42.2934 28.9685 40.6817 26.0401 37.7533L25.333 38.4604C28.4489 41.5763 32.5941 43.2934 37.0002 43.2934V42.2934ZM26.0401 37.7533C23.1116 34.8249 21.5 30.9341 21.5 26.7932H20.5C20.5 31.1993 22.217 35.3445 25.333 38.4604L26.0401 37.7533ZM21.5 26.7932C21.5 22.6519 23.1116 18.761 26.0401 15.8327L25.333 15.1256C22.217 18.2414 20.5 22.3867 20.5 26.7932H21.5ZM26.0401 15.8327C28.9684 12.9045 32.8592 11.293 37.0002 11.293V10.293C32.594 10.293 28.4488 12.0099 25.333 15.1256L26.0401 15.8327ZM37.0002 11.293C41.1414 11.293 45.0321 12.9045 47.9603 15.8327L48.6674 15.1256C45.5517 12.0099 41.4066 10.293 37.0002 10.293V11.293ZM47.9603 15.8327C50.8887 18.761 52.5004 22.6519 52.5004 26.7932H53.5004C53.5004 22.3867 51.7834 18.2414 48.6674 15.1256L47.9603 15.8327ZM52.5004 26.7932C52.5004 30.9341 50.8887 34.8249 47.9603 37.7533L48.6674 38.4604C51.7834 35.3445 53.5004 31.1993 53.5004 26.7932H52.5004ZM47.9603 37.7533C45.032 40.6817 41.1413 42.2934 37.0002 42.2934V43.2934C41.4065 43.2934 45.5515 41.5763 48.6674 38.4604L47.9603 37.7533Z" fill="black" fill-opacity="0.01"/>
</g>
<defs>
<filter id="filter0_d_0_327" x="0.5" y="0.292969" width="73.0004" height="73" filterUnits="userSpaceOnUse" color-interpolation-filters="sRGB">
<feFlood flood-opacity="0" result="BackgroundImageFix"/>
<feColorMatrix in="SourceAlpha" type="matrix" values="0 0 0 0 0 0 0 0 0 0 0 0 0 0 0 0 0 0 127 0" result="hardAlpha"/>
<feOffset dy="10"/>
<feGaussianBlur stdDeviation="10"/>
<feColorMatrix type="matrix" values="0 0 0 0 0.172549 0 0 0 0 0.152941 0 0 0 0 0.219608 0 0 0 0.08 0"/>
<feBlend mode="normal" in2="BackgroundImageFix" result="effect1_dropShadow_0_327"/>
<feBlend mode="normal" in="SourceGraphic" in2="effect1_dropShadow_0_327" result="shape"/>
</filter>
</defs>
</svg>
