<svg width="74" height="74" viewBox="0 0 74 74" fill="none" xmlns="http://www.w3.org/2000/svg">
<g filter="url(#filter0_d_0_342)">
<path fill-rule="evenodd" clip-rule="evenodd" d="M33.0519 23.051H33.051H29.271C29.8351 21.8716 30.5927 20.8943 31.5219 20.1449C32.4507 19.3942 33.5626 18.8576 34.8267 18.5501C34.3687 19.2109 34.0004 19.9113 33.7332 20.6336C33.4673 21.3545 33.2382 22.1676 33.052 23.0502L33.0519 23.051ZM39.404 23.051H39.4028H34.6206C34.9447 21.7885 35.2954 20.7763 35.6619 20.0414C36.0294 19.3071 36.4667 18.7103 36.9614 18.2675C37.5242 18.8812 38.0343 19.6209 38.4789 20.4662C38.9226 21.3114 39.2338 22.1806 39.4038 23.0498L39.404 23.051ZM44.6772 23.051H44.6757H40.9476C40.7246 22.1088 40.4653 21.2655 40.1763 20.5436C39.8863 19.8187 39.5142 19.1392 39.0702 18.524C40.3167 18.8313 41.437 19.3814 42.4011 20.1575C43.3651 20.9342 44.1306 21.9072 44.6765 23.0495L44.6772 23.051ZM32.7432 29.0432H32.7421H28.7822C28.6616 28.6285 28.5799 28.2482 28.5383 27.9119C28.4953 27.5706 28.4736 27.1812 28.4736 26.7545C28.4736 26.3101 28.4953 25.9295 28.5383 25.6232C28.5804 25.3165 28.6601 24.9629 28.7822 24.5423H32.7693C32.7185 24.9437 32.6833 25.3112 32.6658 25.6358C32.649 25.9445 32.6406 26.3209 32.6406 26.7545C32.6406 27.1304 32.6448 27.4754 32.6532 27.8093C32.6622 28.1706 32.6925 28.5854 32.743 29.0421L32.7432 29.0432ZM39.6614 29.0432H39.6605H34.338C34.2691 28.5086 34.2261 28.0762 34.2092 27.7571C34.192 27.4274 34.1832 27.09 34.1832 26.7545C34.1832 26.4185 34.192 26.0939 34.2092 25.7897C34.2262 25.4938 34.2695 25.0741 34.338 24.5423H39.6615C39.7146 25.0931 39.7437 25.5008 39.7515 25.7897C39.7599 26.0724 39.764 26.388 39.764 26.7545C39.764 27.1227 39.7599 27.4506 39.7515 27.7571C39.7435 28.0775 39.7141 28.4979 39.6615 29.0423L39.6614 29.0432ZM45.1659 29.0432H45.1652H41.205C41.222 28.5284 41.2439 28.1049 41.2689 27.7832C41.2945 27.4639 41.3076 27.1178 41.3076 26.7545C41.3076 26.4731 41.2988 26.1875 41.2815 25.9058C41.2645 25.6168 41.2473 25.1581 41.2302 24.5423H45.1659C45.2716 24.9675 45.347 25.3208 45.3972 25.6232C45.4479 25.9279 45.4736 26.3085 45.4736 26.7545C45.4736 27.183 45.4479 27.5724 45.3972 27.9119C45.3468 28.2487 45.269 28.6291 45.1661 29.0424L45.1659 29.0432ZM39.0953 35.0615L39.097 35.059C39.5396 34.4466 39.9111 33.7552 40.2015 33.0041C40.4918 32.2529 40.7516 31.4135 40.9736 30.5093H44.6772C44.0957 31.6031 43.312 32.5501 42.3489 33.3254C41.3857 34.1014 40.2921 34.6852 39.0981 35.0606L39.0953 35.0615ZM34.8519 35.0876L34.8489 35.0865C33.4335 34.5912 32.2922 33.9986 31.457 33.3254C30.6207 32.6512 29.8853 31.7037 29.271 30.5093H33.0258C33.2312 31.4319 33.4777 32.2798 33.7593 33.0302C34.0398 33.7789 34.4069 34.4702 34.8501 35.085L34.8519 35.0876ZM36.9614 35.3963L36.9607 35.3954C36.4152 34.7818 35.9395 34.0639 35.5466 33.2615C35.1541 32.4584 34.8425 31.5324 34.6206 30.5093H39.3789C39.1054 31.6024 38.7673 32.5495 38.3754 33.3254C37.9835 34.101 37.5081 34.7975 36.9622 35.3954L36.9614 35.3963ZM36.9867 15.8492C35.4697 15.8492 34.0289 16.1347 32.7045 16.6979C31.3816 17.2616 30.2134 18.0404 29.2323 19.0127C28.2511 19.9858 27.468 21.1497 26.9049 22.4723C26.3417 23.7936 26.0561 25.2343 26.0561 26.7545C26.0561 28.274 26.3417 29.719 26.9049 31.0493C27.4684 32.3807 28.2513 33.5577 29.2323 34.5476C30.2145 35.5379 31.3827 36.3252 32.7045 36.8876C34.0268 37.4507 35.4676 37.7363 36.9867 37.7363C38.5066 37.7363 39.9474 37.4507 41.2689 36.8876C42.5915 36.3252 43.7598 35.5379 44.7411 34.5476C45.7209 33.5597 46.5086 32.3827 47.082 31.0493C47.6534 29.7179 47.9432 28.2729 47.9432 26.7545C47.9432 25.2354 47.6535 23.7947 47.082 22.4723C46.509 21.148 45.7214 19.984 44.7411 19.0127C43.7609 18.0404 42.5926 17.2616 41.2689 16.6979C39.9453 16.1347 38.5045 15.8492 36.9867 15.8492ZM36.9993 42.7934C32.7257 42.7934 28.708 41.129 25.686 38.1068C22.6642 35.0847 21 31.0667 21 26.7932C21 22.5193 22.6642 18.5012 25.686 15.4791C28.7079 12.4572 32.7256 10.793 36.9993 10.793C41.2733 10.793 45.2914 12.4572 48.3134 15.4791C51.3353 18.5011 52.9995 22.5192 52.9995 26.7932C52.9995 31.0668 51.3353 35.0848 48.3134 38.1068C45.2913 41.129 41.2732 42.7934 36.9993 42.7934Z" fill="#EEF2F4"/>
<path d="M33.0519 23.051V23.551H33.4816L33.5462 23.1261L33.0519 23.051ZM29.271 23.051L28.8199 22.8352L28.4776 23.551H29.271V23.051ZM31.5219 20.1449L31.8358 20.534L31.8361 20.5337L31.5219 20.1449ZM34.8267 18.5501L35.2376 18.8349L35.9874 17.7531L34.7085 18.0642L34.8267 18.5501ZM33.7332 20.6336L33.2642 20.4601L33.264 20.4606L33.7332 20.6336ZM33.052 23.0502L32.5628 22.947L32.5598 22.9609L32.5577 22.975L33.052 23.0502ZM39.404 23.051V23.551H40.0149L39.8942 22.9522L39.404 23.051ZM34.6206 23.051L34.1363 22.9266L33.976 23.551H34.6206V23.051ZM35.6619 20.0414L35.2148 19.8175L35.2144 19.8183L35.6619 20.0414ZM36.9614 18.2675L37.3299 17.9296L36.9961 17.5654L36.6279 17.8949L36.9614 18.2675ZM38.4789 20.4662L38.9216 20.2338L38.9214 20.2334L38.4789 20.4662ZM39.4038 23.0498L38.9131 23.1458L38.9137 23.1486L39.4038 23.0498ZM44.6772 23.051V23.551H45.499L45.1213 22.8212L44.6772 23.051ZM40.9476 23.051L40.4611 23.1661L40.5522 23.551H40.9476V23.051ZM40.1763 20.5436L39.712 20.7292L39.7121 20.7294L40.1763 20.5436ZM39.0702 18.524L39.1899 18.0385L37.868 17.7126L38.6647 18.8166L39.0702 18.524ZM42.4011 20.1575L42.7148 19.7681L42.7146 19.768L42.4011 20.1575ZM44.6765 23.0495L44.2254 23.2651L44.2288 23.2723L44.2324 23.2793L44.6765 23.0495ZM32.7432 29.0432V29.5432H33.3103L33.2392 28.9805L32.7432 29.0432ZM28.7822 29.0432L28.3021 29.1828L28.4069 29.5432H28.7822V29.0432ZM28.5383 27.9119L29.0345 27.8504L29.0344 27.8494L28.5383 27.9119ZM28.5383 25.6232L29.0335 25.6926L29.0337 25.6912L28.5383 25.6232ZM28.7822 24.5423V24.0423H28.4067L28.302 24.4029L28.7822 24.5423ZM32.7693 24.5423L33.2653 24.605L33.3365 24.0423H32.7693V24.5423ZM32.6658 25.6358L32.1665 25.6087L32.1665 25.6087L32.6658 25.6358ZM32.6532 27.8093L33.153 27.7968L33.153 27.7967L32.6532 27.8093ZM32.743 29.0421L32.246 29.0971L32.247 29.1047L32.743 29.0421ZM39.6614 29.0432V29.5432H40.0942L40.1562 29.1148L39.6614 29.0432ZM34.338 29.0432L33.8421 29.1072L33.8984 29.5432H34.338V29.0432ZM34.2092 27.7571L33.7099 27.7831L33.7099 27.7834L34.2092 27.7571ZM34.2092 25.7897L33.7101 25.761L33.71 25.7614L34.2092 25.7897ZM34.338 24.5423V24.0423H33.8983L33.8421 24.4784L34.338 24.5423ZM39.6615 24.5423L40.1592 24.4943L40.1156 24.0423H39.6615V24.5423ZM39.7515 25.7897L39.2517 25.8032L39.2517 25.8046L39.7515 25.7897ZM39.7515 27.7571L39.2517 27.7433L39.2516 27.7447L39.7515 27.7571ZM39.6615 29.0423L40.1564 29.1139L40.1581 29.1022L40.1592 29.0904L39.6615 29.0423ZM45.1659 29.0432V29.5432H45.5323L45.6427 29.1938L45.1659 29.0432ZM41.205 29.0432L40.7052 29.0266L40.6881 29.5432H41.205V29.0432ZM41.2689 27.7832L40.7705 27.7432L40.7704 27.7444L41.2689 27.7832ZM41.2815 25.9058L40.7823 25.9351L40.7824 25.9365L41.2815 25.9058ZM41.2302 24.5423V24.0423H40.7162L40.7304 24.5561L41.2302 24.5423ZM45.1659 24.5423L45.6511 24.4216L45.5568 24.0423H45.1659V24.5423ZM45.3972 25.6232L44.904 25.705L44.904 25.7052L45.3972 25.6232ZM45.3972 27.9119L45.8917 27.9859L45.8917 27.9857L45.3972 27.9119ZM45.1661 29.0424L45.6429 29.193L45.6476 29.1782L45.6513 29.1632L45.1661 29.0424ZM39.0953 35.0615L38.6853 34.7753L37.8322 35.9976L39.2499 35.537L39.0953 35.0615ZM39.097 35.059L38.6917 34.7661L38.687 34.7729L39.097 35.059ZM40.2015 33.0041L40.6679 33.1844L40.6679 33.1843L40.2015 33.0041ZM40.9736 30.5093V30.0093H40.5816L40.4881 30.39L40.9736 30.5093ZM44.6772 30.5093L45.1187 30.744L45.5093 30.0093H44.6772V30.5093ZM42.3489 33.3254L42.0354 32.9359L42.0352 32.936L42.3489 33.3254ZM39.0981 35.0606L38.9482 34.5836L38.9436 34.585L39.0981 35.0606ZM34.8519 35.0876L34.6892 35.5603L36.1704 36.0702L35.2585 34.7965L34.8519 35.0876ZM34.8489 35.0865L34.6837 35.5585L34.6861 35.5593L34.8489 35.0865ZM31.457 33.3254L31.1432 33.7146L31.1432 33.7146L31.457 33.3254ZM29.271 30.5093V30.0093H28.4516L28.8263 30.7379L29.271 30.5093ZM33.0258 30.5093L33.5138 30.4006L33.4267 30.0093H33.0258V30.5093ZM33.7593 33.0302L34.2275 32.8547L34.2274 32.8545L33.7593 33.0302ZM34.8501 35.085L35.2566 34.7939L35.2557 34.7926L34.8501 35.085ZM36.9614 35.3963L36.586 35.7265L36.9592 36.1508L37.3349 35.7287L36.9614 35.3963ZM36.9607 35.3954L37.3362 35.0653L37.3344 35.0632L36.9607 35.3954ZM35.5466 33.2615L35.0974 33.4811L35.0976 33.4813L35.5466 33.2615ZM34.6206 30.5093V30.0093H34.0005L34.132 30.6153L34.6206 30.5093ZM39.3789 30.5093L39.864 30.6306L40.0194 30.0093H39.3789V30.5093ZM38.3754 33.3254L37.9291 33.0999L37.9291 33.0999L38.3754 33.3254ZM36.9622 35.3954L36.5929 35.0583L36.5887 35.063L36.9622 35.3954ZM32.7045 16.6979L32.5088 16.2377L32.5084 16.2379L32.7045 16.6979ZM29.2323 19.0127L28.8803 18.6575L28.8802 18.6577L29.2323 19.0127ZM26.9049 22.4723L27.3649 22.6683L27.3649 22.6681L26.9049 22.4723ZM26.9049 31.0493L27.3654 30.8544L27.3653 30.8543L26.9049 31.0493ZM29.2323 34.5476L28.8771 34.8995L28.8773 34.8997L29.2323 34.5476ZM32.7045 36.8876L32.9004 36.4275L32.9002 36.4275L32.7045 36.8876ZM41.2689 36.8876L41.0733 36.4274L41.0729 36.4276L41.2689 36.8876ZM44.7411 34.5476L44.3861 34.1955L44.3859 34.1956L44.7411 34.5476ZM47.082 31.0493L47.5414 31.2468L47.5415 31.2465L47.082 31.0493ZM47.082 22.4723L47.541 22.2739L47.5409 22.2737L47.082 22.4723ZM44.7411 19.0127L44.389 19.3677L44.3892 19.3678L44.7411 19.0127ZM41.2689 16.6979L41.4648 16.2378L41.4647 16.2378L41.2689 16.6979ZM25.686 38.1068L25.3325 38.4604L25.3325 38.4604L25.686 38.1068ZM25.686 15.4791L25.3325 15.1256L25.3325 15.1256L25.686 15.4791ZM48.3134 15.4791L48.6669 15.1256L48.6669 15.1256L48.3134 15.4791ZM48.3134 38.1068L48.6669 38.4604L48.6669 38.4604L48.3134 38.1068ZM33.0519 22.551H33.051V23.551H33.0519V22.551ZM33.051 22.551H29.271V23.551H33.051V22.551ZM29.7221 23.2667C30.257 22.1484 30.9698 21.2325 31.8358 20.534L31.2079 19.7557C30.2155 20.5562 29.4132 21.5948 28.8199 22.8352L29.7221 23.2667ZM31.8361 20.5337C32.7026 19.8335 33.746 19.3276 34.9449 19.0359L34.7085 18.0642C33.3792 18.3876 32.1988 18.9549 31.2076 19.756L31.8361 20.5337ZM34.4157 18.2652C33.935 18.9587 33.5468 19.6964 33.2642 20.4601L34.2021 20.8071C34.454 20.1263 34.8023 19.463 35.2376 18.8349L34.4157 18.2652ZM33.264 20.4606C32.9885 21.2078 32.7531 22.0446 32.5628 22.947L33.5412 23.1534C33.7232 22.2905 33.9461 21.5012 34.2023 20.8066L33.264 20.4606ZM32.5577 22.975L32.5576 22.9758L33.5462 23.1261L33.5463 23.1254L32.5577 22.975ZM39.404 22.551H39.4028V23.551H39.404V22.551ZM39.4028 22.551H34.6206V23.551H39.4028V22.551ZM35.1049 23.1753C35.4246 21.9298 35.7649 20.9553 36.1093 20.2645L35.2144 19.8183C34.8259 20.5974 34.4648 21.6471 34.1363 22.9266L35.1049 23.1753ZM36.109 20.2652C36.4548 19.5744 36.8567 19.0323 37.2949 18.64L36.6279 17.8949C36.0767 18.3884 35.604 19.0399 35.2148 19.8175L36.109 20.2652ZM36.5929 18.6054C37.1225 19.183 37.6089 19.8861 38.0364 20.6989L38.9214 20.2334C38.4598 19.3557 37.9258 18.5794 37.3299 17.9296L36.5929 18.6054ZM38.0362 20.6986C38.4591 21.5042 38.7531 22.3277 38.9131 23.1458L39.8945 22.9538C39.7145 22.0335 39.3861 21.1186 38.9216 20.2338L38.0362 20.6986ZM38.9137 23.1486L38.9139 23.1497L39.8942 22.9522L39.894 22.951L38.9137 23.1486ZM44.6772 22.551H44.6757V23.551H44.6772V22.551ZM44.6757 22.551H40.9476V23.551H44.6757V22.551ZM41.4342 22.9358C41.2068 21.9752 40.9406 21.1074 40.6404 20.3577L39.7121 20.7294C39.99 21.4235 40.2424 22.2424 40.4611 23.1661L41.4342 22.9358ZM40.6405 20.3579C40.3359 19.5962 39.9442 18.8806 39.4756 18.2314L38.6647 18.8166C39.0842 19.3977 39.4368 20.0412 39.712 20.7292L40.6405 20.3579ZM38.9505 19.0094C40.1286 19.2999 41.1823 19.8182 42.0876 20.547L42.7146 19.768C41.6918 18.9446 40.5047 18.3627 39.1899 18.0385L38.9505 19.0094ZM42.0874 20.5468C42.9918 21.2755 43.711 22.1886 44.2254 23.2651L45.1276 22.834C44.5503 21.6257 43.7384 20.5928 42.7148 19.7681L42.0874 20.5468ZM44.2324 23.2793L44.2332 23.2808L45.1213 22.8212L45.1206 22.8197L44.2324 23.2793ZM32.7432 28.5432H32.7421V29.5432H32.7432V28.5432ZM32.7421 28.5432H28.7822V29.5432H32.7421V28.5432ZM29.2623 28.9035C29.1474 28.5084 29.0722 28.1546 29.0345 27.8504L28.0421 27.9733C28.0877 28.3417 28.1758 28.7487 28.3021 29.1828L29.2623 28.9035ZM29.0344 27.8494C28.9946 27.5331 28.9736 27.1651 28.9736 26.7545H27.9736C27.9736 27.1973 27.9961 27.6081 28.0422 27.9743L29.0344 27.8494ZM28.9736 26.7545C28.9736 26.3242 28.9948 25.9684 29.0335 25.6926L28.0432 25.5537C27.9959 25.8906 27.9736 26.2961 27.9736 26.7545H28.9736ZM29.0337 25.6912C29.0714 25.4162 29.1446 25.0876 29.2624 24.6816L28.302 24.4029C28.1757 24.8383 28.0894 25.2168 28.043 25.5551L29.0337 25.6912ZM28.7822 25.0423H32.7693V24.0423H28.7822V25.0423ZM32.2732 24.4795C32.2214 24.8895 32.1849 25.2693 32.1665 25.6087L33.165 25.6628C33.1818 25.3531 33.2156 24.9979 33.2653 24.605L32.2732 24.4795ZM32.1665 25.6087C32.1491 25.9293 32.1406 26.3152 32.1406 26.7545H33.1406C33.1406 26.3266 33.1489 25.9598 33.165 25.6628L32.1665 25.6087ZM32.1406 26.7545C32.1406 27.1341 32.1448 27.4834 32.1533 27.8219L33.153 27.7967C33.1447 27.4674 33.1406 27.1266 33.1406 26.7545H32.1406ZM32.1533 27.8218C32.1628 28.2006 32.1944 28.6299 32.2461 29.097L33.24 28.9871C33.1906 28.5409 33.1616 28.1407 33.153 27.7968L32.1533 27.8218ZM32.247 29.1047L32.2471 29.1058L33.2392 28.9805L33.2391 28.9794L32.247 29.1047ZM39.6614 28.5432H39.6605V29.5432H39.6614V28.5432ZM39.6605 28.5432H34.338V29.5432H39.6605V28.5432ZM34.8339 28.9792C34.7657 28.4504 34.7244 28.032 34.7085 27.7307L33.7099 27.7834C33.7277 28.1205 33.7724 28.5669 33.8421 29.1072L34.8339 28.9792ZM34.7086 27.731C34.6918 27.4101 34.6832 27.0814 34.6832 26.7545H33.6832C33.6832 27.0987 33.6923 27.4447 33.7099 27.7831L34.7086 27.731ZM34.6832 26.7545C34.6832 26.427 34.6918 26.1119 34.7084 25.8179L33.71 25.7614C33.6922 26.0759 33.6832 26.4099 33.6832 26.7545H34.6832ZM34.7084 25.8183C34.7244 25.54 34.766 25.134 34.8339 24.6061L33.8421 24.4784C33.7731 25.0142 33.728 25.4475 33.7101 25.761L34.7084 25.8183ZM34.338 25.0423H39.6615V24.0423H34.338V25.0423ZM39.1638 24.5903C39.2166 25.1374 39.2443 25.5316 39.2517 25.8032L40.2513 25.7761C40.243 25.47 40.2127 25.0488 40.1592 24.4943L39.1638 24.5903ZM39.2517 25.8046C39.2599 26.0812 39.264 26.3917 39.264 26.7545H40.264C40.264 26.3843 40.2599 26.0636 40.2513 25.7748L39.2517 25.8046ZM39.264 26.7545C39.264 27.1189 39.2599 27.4422 39.2517 27.7433L40.2513 27.7708C40.2599 27.459 40.264 27.1264 40.264 26.7545H39.264ZM39.2516 27.7447C39.2441 28.0478 39.216 28.4547 39.1638 28.9942L40.1592 29.0904C40.2123 28.5411 40.243 28.1072 40.2513 27.7694L39.2516 27.7447ZM39.1667 28.9707L39.1665 28.9716L40.1562 29.1148L40.1564 29.1139L39.1667 28.9707ZM45.1659 28.5432H45.1652V29.5432H45.1659V28.5432ZM45.1652 28.5432H41.205V29.5432H45.1652V28.5432ZM41.7047 29.0598C41.7216 28.5492 41.7432 28.1336 41.7674 27.8219L40.7704 27.7444C40.7446 28.0762 40.7225 28.5077 40.7052 29.0266L41.7047 29.0598ZM41.7673 27.8232C41.7941 27.4891 41.8076 27.1295 41.8076 26.7545H40.8076C40.8076 27.1061 40.795 27.4388 40.7705 27.7432L41.7673 27.8232ZM41.8076 26.7545C41.8076 26.4628 41.7985 26.167 41.7805 25.8751L40.7824 25.9365C40.7991 26.208 40.8076 26.4833 40.8076 26.7545H41.8076ZM41.7806 25.8765C41.7641 25.5957 41.7471 25.1435 41.73 24.5284L40.7304 24.5561C40.7475 25.1726 40.7649 25.6379 40.7824 25.9351L41.7806 25.8765ZM41.2302 25.0423H45.1659V24.0423H41.2302V25.0423ZM44.6807 24.6629C44.7843 25.08 44.8566 25.4197 44.904 25.705L45.8905 25.5413C45.8375 25.2219 45.7589 24.855 45.6511 24.4216L44.6807 24.6629ZM44.904 25.7052C44.9486 25.9738 44.9736 26.3251 44.9736 26.7545H45.9736C45.9736 26.2919 45.9471 25.8819 45.8904 25.5412L44.904 25.7052ZM44.9736 26.7545C44.9736 27.164 44.9489 27.5281 44.9027 27.8381L45.8917 27.9857C45.9468 27.6167 45.9736 27.202 45.9736 26.7545H44.9736ZM44.9027 27.8379C44.8552 28.1557 44.7809 28.5201 44.6809 28.9216L45.6513 29.1632C45.7572 28.7381 45.8384 28.3418 45.8917 27.9859L44.9027 27.8379ZM44.6894 28.8918L44.6891 28.8926L45.6427 29.1938L45.6429 29.193L44.6894 28.8918ZM39.5053 35.3476L39.5071 35.3452L38.687 34.7729L38.6853 34.7753L39.5053 35.3476ZM39.5023 35.3519C39.9715 34.7025 40.3631 33.9729 40.6679 33.1844L39.7352 32.8238C39.4592 33.5376 39.1076 34.1908 38.6918 34.7662L39.5023 35.3519ZM40.6679 33.1843C40.967 32.4104 41.2328 31.5503 41.4592 30.6285L40.4881 30.39C40.2703 31.2767 40.0167 32.0953 39.7352 32.8238L40.6679 33.1843ZM40.9736 31.0093H44.6772V30.0093H40.9736V31.0093ZM44.2358 30.2746C43.686 31.3086 42.9459 32.203 42.0354 32.9359L42.6624 33.7149C43.6781 32.8973 44.5054 31.8977 45.1187 30.744L44.2358 30.2746ZM42.0352 32.936C41.1212 33.6724 40.0833 34.2267 38.9482 34.5836L39.2481 35.5376C40.5009 35.1437 41.6502 34.5304 42.6626 33.7147L42.0352 32.936ZM38.9436 34.585L38.9408 34.586L39.2499 35.537L39.2527 35.5361L38.9436 34.585ZM35.0147 34.6148L35.0116 34.6137L34.6861 35.5593L34.6892 35.5603L35.0147 34.6148ZM35.014 34.6146C33.6327 34.1312 32.5477 33.5624 31.7708 32.9361L31.1432 33.7146C32.0367 34.4349 33.2342 35.0512 34.6837 35.5585L35.014 34.6146ZM31.7708 32.9361C31.0007 32.3152 30.3057 31.428 29.7156 30.2806L28.8263 30.7379C29.4648 31.9794 30.2408 32.9871 31.1432 33.7146L31.7708 32.9361ZM29.271 31.0093H33.0258V30.0093H29.271V31.0093ZM32.5377 30.6179C32.7473 31.5593 33 32.4301 33.2912 33.2059L34.2274 32.8545C33.9553 32.1295 33.7151 31.3045 33.5138 30.4006L32.5377 30.6179ZM33.2911 33.2056C33.5863 33.9936 33.9739 34.7247 34.4445 35.3774L35.2557 34.7926C34.8398 34.2157 34.4933 33.5641 34.2275 32.8547L33.2911 33.2056ZM34.4435 35.3761L34.4454 35.3786L35.2585 34.7965L35.2566 34.7939L34.4435 35.3761ZM37.3369 35.0661L37.3362 35.0653L36.5852 35.7256L36.586 35.7265L37.3369 35.0661ZM37.3344 35.0632C36.8215 34.4863 36.3704 33.8069 35.9957 33.0416L35.0976 33.4813C35.5086 34.3208 36.0089 35.0773 36.587 35.7277L37.3344 35.0632ZM35.9958 33.0419C35.6236 32.2805 35.3241 31.3937 35.1092 30.4033L34.132 30.6153C34.361 31.6712 34.6845 32.6363 35.0974 33.4811L35.9958 33.0419ZM34.6206 31.0093H39.3789V30.0093H34.6206V31.0093ZM38.8939 30.3879C38.6269 31.4548 38.3003 32.3651 37.9291 33.0999L38.8217 33.5508C39.2344 32.7339 39.5838 31.7501 39.864 30.6306L38.8939 30.3879ZM37.9291 33.0999C37.5562 33.838 37.106 34.4963 36.5929 35.0583L37.3314 35.7326C37.9101 35.0987 38.4108 34.3641 38.8217 33.5508L37.9291 33.0999ZM36.5887 35.063L36.588 35.0638L37.3349 35.7287L37.3356 35.7279L36.5887 35.063ZM36.9867 15.3492C35.4062 15.3492 33.8985 15.6469 32.5088 16.2377L32.9001 17.158C34.1594 16.6226 35.5333 16.3492 36.9867 16.3492V15.3492ZM32.5084 16.2379C31.1299 16.8254 29.9081 17.639 28.8803 18.6575L29.5842 19.3678C30.5186 18.4419 31.6333 17.6979 32.9005 17.1578L32.5084 16.2379ZM28.8802 18.6577C27.8512 19.6781 27.0323 20.8968 26.4449 22.2764L27.3649 22.6681C27.9037 21.4027 28.651 20.2934 29.5844 19.3677L28.8802 18.6577ZM26.4449 22.2762C25.8538 23.6631 25.5561 25.171 25.5561 26.7545H26.5561C26.5561 25.2977 26.8296 23.9241 27.3649 22.6683L26.4449 22.2762ZM25.5561 26.7545C25.5561 28.3374 25.8538 29.8491 26.4445 31.2442L27.3653 30.8543C26.8296 29.5889 26.5561 28.2106 26.5561 26.7545H25.5561ZM26.4444 31.2441C27.0318 32.6319 27.8497 33.8627 28.8771 34.8995L29.5874 34.1956C28.653 33.2526 27.905 32.1295 27.3654 30.8544L26.4444 31.2441ZM28.8773 34.8997C29.9064 35.9373 31.1292 36.7607 32.5087 37.3477L32.9002 36.4275C31.6362 35.8897 30.5225 35.1384 29.5873 34.1955L28.8773 34.8997ZM32.5086 37.3476C33.8964 37.9386 35.4042 38.2363 36.9867 38.2363V37.2363C35.5311 37.2363 34.1573 36.9628 32.9004 36.4275L32.5086 37.3476ZM36.9867 38.2363C38.57 38.2363 40.0779 37.9386 41.4649 37.3475L41.0729 36.4276C39.8169 36.9628 38.4432 37.2363 36.9867 37.2363V38.2363ZM41.4646 37.3477C42.845 36.7607 44.0679 35.9373 45.0963 34.8995L44.3859 34.1956C43.4517 35.1385 42.3381 35.8896 41.0733 36.4274L41.4646 37.3477ZM45.0961 34.8997C46.122 33.8654 46.9442 32.6353 47.5414 31.2468L46.6227 30.8517C46.0729 32.1301 45.3199 33.254 44.3861 34.1955L45.0961 34.8997ZM47.5415 31.2465C48.1409 29.8498 48.4432 28.3374 48.4432 26.7545H47.4432C47.4432 28.2084 47.166 29.586 46.6226 30.8521L47.5415 31.2465ZM48.4432 26.7545C48.4432 25.171 48.1409 23.6623 47.541 22.2739L46.623 22.6706C47.166 23.927 47.4432 25.2999 47.4432 26.7545H48.4432ZM47.5409 22.2737C46.9438 20.8936 46.1207 19.6758 45.093 18.6575L44.3892 19.3678C45.3221 20.2923 46.0743 21.4024 46.6231 22.6708L47.5409 22.2737ZM45.0932 18.6577C44.0661 17.639 42.8443 16.8253 41.4648 16.2378L41.073 17.1579C42.341 17.6979 43.4556 18.4419 44.389 19.3677L45.0932 18.6577ZM41.4647 16.2378C40.0758 15.6468 38.568 15.3492 36.9867 15.3492V16.3492C38.441 16.3492 39.8148 16.6226 41.0732 17.158L41.4647 16.2378ZM36.9993 42.2934C32.8583 42.2934 28.9678 40.6817 26.0396 37.7533L25.3325 38.4604C28.4482 41.5763 32.5931 43.2934 36.9993 43.2934V42.2934ZM26.0396 37.7533C23.1115 34.8249 21.5 30.9341 21.5 26.7932H20.5C20.5 31.1993 22.2169 35.3444 25.3325 38.4604L26.0396 37.7533ZM21.5 26.7932C21.5 22.6519 23.1115 18.761 26.0396 15.8327L25.3325 15.1256C22.2168 18.2414 20.5 22.3867 20.5 26.7932H21.5ZM26.0396 15.8327C28.9677 12.9045 32.8582 11.293 36.9993 11.293V10.293C32.593 10.293 28.4481 12.0099 25.3325 15.1256L26.0396 15.8327ZM36.9993 11.293C41.1407 11.293 45.0316 12.9045 47.9598 15.8327L48.6669 15.1256C45.5512 12.0099 41.4059 10.293 36.9993 10.293V11.293ZM47.9598 15.8327C50.888 18.7609 52.4995 22.6518 52.4995 26.7932H53.4995C53.4995 22.3866 51.7827 18.2413 48.6669 15.1256L47.9598 15.8327ZM52.4995 26.7932C52.4995 30.9342 50.888 34.825 47.9598 37.7533L48.6669 38.4604C51.7827 35.3445 53.4995 31.1994 53.4995 26.7932H52.4995ZM47.9598 37.7533C45.0315 40.6817 41.1406 42.2934 36.9993 42.2934V43.2934C41.4058 43.2934 45.5511 41.5763 48.6669 38.4604L47.9598 37.7533Z" fill="black" fill-opacity="0.01"/>
</g>
<defs>
<filter id="filter0_d_0_342" x="0.5" y="0.292969" width="72.9995" height="73" filterUnits="userSpaceOnUse" color-interpolation-filters="sRGB">
<feFlood flood-opacity="0" result="BackgroundImageFix"/>
<feColorMatrix in="SourceAlpha" type="matrix" values="0 0 0 0 0 0 0 0 0 0 0 0 0 0 0 0 0 0 127 0" result="hardAlpha"/>
<feOffset dy="10"/>
<feGaussianBlur stdDeviation="10"/>
<feColorMatrix type="matrix" values="0 0 0 0 0.172549 0 0 0 0 0.152941 0 0 0 0 0.219608 0 0 0 0.08 0"/>
<feBlend mode="normal" in2="BackgroundImageFix" result="effect1_dropShadow_0_342"/>
<feBlend mode="normal" in="SourceGraphic" in2="effect1_dropShadow_0_342" result="shape"/>
</filter>
</defs>
</svg>
