<svg width="72" height="72" viewBox="0 0 72 72" fill="none" xmlns="http://www.w3.org/2000/svg">
<path fill-rule="evenodd" clip-rule="evenodd" d="M41.1178 19.7655C40.4705 19.7655 39.9439 20.2915 39.9439 20.938C39.9439 21.5845 40.4705 22.1105 41.1178 22.1105C41.7643 22.1105 42.2903 21.5845 42.2903 20.938C42.2903 20.2915 41.7643 19.7655 41.1178 19.7655ZM36.0006 21.0853C33.2665 21.0853 31.0422 23.3096 31.0422 26.0437C31.0422 28.777 33.2665 31.0006 36.0006 31.0006C38.7339 31.0006 40.9575 28.777 40.9575 26.0437C40.9575 23.3096 38.7339 21.0853 36.0006 21.0853ZM40.7698 33.5737H31.2313C29.7091 33.5737 28.4706 32.3352 28.4706 30.8129V21.2744C28.4706 19.7521 29.7091 18.5137 31.2313 18.5137H40.7698C42.2921 18.5137 43.5306 19.7522 43.5306 21.2744V30.8129C43.5306 32.3352 42.2921 33.5737 40.7698 33.5737Z" fill="#2C2738"/>
<path fill-rule="evenodd" clip-rule="evenodd" d="M36.0005 23.1821C34.421 23.1821 33.1349 24.4653 33.1349 26.042C33.1349 27.6194 34.421 28.9029 36.0005 28.9029C37.5806 28.9029 38.8657 27.6194 38.8657 26.042C38.8657 24.4656 37.5803 23.1821 36.0005 23.1821Z" fill="#2C2738"/>
<g filter="url(#filter0_d_0_201)">
<path fill-rule="evenodd" clip-rule="evenodd" d="M31.2322 16.4182C28.5547 16.4182 26.3763 18.5965 26.3763 21.2741V30.8126C26.3763 33.4901 28.5547 35.6684 31.2322 35.6684H40.7692C43.4468 35.6684 45.6251 33.4901 45.6251 30.8126V21.2741C45.6251 18.5965 43.4468 16.4182 40.7692 16.4182H31.2322ZM36 42C27.1776 42 20 34.8224 20 26C20 17.1776 27.1776 10 36 10C44.8224 10 52 17.1776 52 26C52 34.8224 44.8224 42 36 42Z" fill="#2C2738"/>
</g>
<defs>
<filter id="filter0_d_0_201" x="0" y="0" width="72" height="72" filterUnits="userSpaceOnUse" color-interpolation-filters="sRGB">
<feFlood flood-opacity="0" result="BackgroundImageFix"/>
<feColorMatrix in="SourceAlpha" type="matrix" values="0 0 0 0 0 0 0 0 0 0 0 0 0 0 0 0 0 0 127 0" result="hardAlpha"/>
<feOffset dy="10"/>
<feGaussianBlur stdDeviation="10"/>
<feColorMatrix type="matrix" values="0 0 0 0 0.172549 0 0 0 0 0.152941 0 0 0 0 0.219608 0 0 0 0.08 0"/>
<feBlend mode="normal" in2="BackgroundImageFix" result="effect1_dropShadow_0_201"/>
<feBlend mode="normal" in="SourceGraphic" in2="effect1_dropShadow_0_201" result="shape"/>
</filter>
</defs>
</svg>
