<svg width="346" height="735" viewBox="0 0 346 735" fill="none" xmlns="http://www.w3.org/2000/svg">
<g filter="url(#filter0_d_0_271)">
<path fill-rule="evenodd" clip-rule="evenodd" d="M-17 489C-80.5127 489 -132 437.513 -132 374C-132 310.487 -80.5127 259 -17 259C46.5127 259 98 310.487 98 374C98 437.513 46.5127 489 -17 489Z" fill="white"/>
</g>
<mask id="mask0_0_271" style="mask-type:alpha" maskUnits="userSpaceOnUse" x="31" y="186" width="159" height="361">
<path fill-rule="evenodd" clip-rule="evenodd" d="M81 186L31 244L62 514L112 547L190 435L180 261L81 186Z" fill="white"/>
</mask>
<g mask="url(#mask0_0_271)">
<path d="M-15 563C-119.382 563 -204 478.382 -204 374C-204 269.618 -119.382 185 -15 185C89.3818 185 174 269.618 174 374C174 478.382 89.3818 563 -15 563Z" stroke="#DBE2EA" stroke-width="2"/>
</g>
<mask id="mask1_0_271" style="mask-type:alpha" maskUnits="userSpaceOnUse" x="-271" y="403" width="507" height="223">
<path fill-rule="evenodd" clip-rule="evenodd" d="M211 414L236 422L190 536L57 626L-117 617L-233 532L-271 403L-213 409L-83 568L103 553L211 414Z" fill="white"/>
</mask>
<g mask="url(#mask1_0_271)">
<path d="M-15 613C-146.996 613 -254 505.996 -254 374C-254 242.004 -146.996 135 -15 135C116.996 135 224 242.004 224 374C224 505.996 116.996 613 -15 613Z" stroke="#DBE2EA" stroke-width="2"/>
</g>
<mask id="mask2_0_271" style="mask-type:alpha" maskUnits="userSpaceOnUse" x="-320" y="0" width="666" height="356">
<path fill-rule="evenodd" clip-rule="evenodd" d="M-245 102L-320 187L-282.5 207L-144 85L39 76L255 238L295 356L346 331L281 89L-24 0L-245 102Z" fill="white"/>
</mask>
<g mask="url(#mask2_0_271)">
<path d="M-15 713C-202.225 713 -354 561.224 -354 374C-354 186.775 -202.225 35 -15 35C172.224 35 324 186.775 324 374C324 561.224 172.224 713 -15 713Z" stroke="#DBE2EA" stroke-width="2"/>
</g>
<mask id="mask3_0_271" style="mask-type:alpha" maskUnits="userSpaceOnUse" x="-190" y="538" width="487" height="197">
<path fill-rule="evenodd" clip-rule="evenodd" d="M-159 650L-190 700L-31 735L230 671L297 573L255 538L69 676L-159 650Z" fill="white"/>
</mask>
<g mask="url(#mask3_0_271)">
<path d="M-15 713C-202.225 713 -354 561.224 -354 374C-354 186.775 -202.225 35 -15 35C172.224 35 324 186.775 324 374C324 561.224 172.224 713 -15 713Z" stroke="#DBE2EA" stroke-width="2"/>
</g>
<path d="M89 540C84.0294 540 80 535.971 80 531C80 526.029 84.0294 522 89 522C93.9706 522 98 526.029 98 531C98 535.971 93.9706 540 89 540Z" fill="white" stroke="#2C2738" stroke-width="2"/>
<path d="M274 559C269.029 559 265 554.971 265 550C265 545.029 269.029 541 274 541C278.971 541 283 545.029 283 550C283 554.971 278.971 559 274 559Z" fill="white" stroke="#2C2738" stroke-width="2"/>
<path d="M64 212C59.0294 212 55 207.971 55 203C55 198.029 59.0294 194 64 194C68.9706 194 73 198.029 73 203C73 207.971 68.9706 212 64 212Z" fill="white" stroke="#2C2738" stroke-width="2"/>
<path d="M220 425C215.029 425 211 420.971 211 416C211 411.029 215.029 407 220 407C224.971 407 229 411.029 229 416C229 420.971 224.971 425 220 425Z" fill="white" stroke="#2C2738" stroke-width="2"/>
<path d="M322 350C317.029 350 313 345.971 313 341C313 336.029 317.029 332 322 332C326.971 332 331 336.029 331 341C331 345.971 326.971 350 322 350Z" fill="white" stroke="#2C2738" stroke-width="2"/>
<defs>
<filter id="filter0_d_0_271" x="-212" y="219" width="390" height="390" filterUnits="userSpaceOnUse" color-interpolation-filters="sRGB">
<feFlood flood-opacity="0" result="BackgroundImageFix"/>
<feColorMatrix in="SourceAlpha" type="matrix" values="0 0 0 0 0 0 0 0 0 0 0 0 0 0 0 0 0 0 127 0" result="hardAlpha"/>
<feOffset dy="40"/>
<feGaussianBlur stdDeviation="40"/>
<feColorMatrix type="matrix" values="0 0 0 0 0 0 0 0 0 0 0 0 0 0 0 0 0 0 0.1 0"/>
<feBlend mode="normal" in2="BackgroundImageFix" result="effect1_dropShadow_0_271"/>
<feBlend mode="normal" in="SourceGraphic" in2="effect1_dropShadow_0_271" result="shape"/>
</filter>
</defs>
</svg>
