<svg width="74" height="74" viewBox="0 0 74 74" fill="none" xmlns="http://www.w3.org/2000/svg">
<g filter="url(#filter0_d_0_196)">
<path fill-rule="evenodd" clip-rule="evenodd" d="M29.0586 34.0995L29.0582 34.1006C30.8107 35.224 32.8376 35.8184 34.9194 35.8184C41.7309 35.8184 45.8013 30.2856 45.8013 24.9365C45.8013 24.7629 45.7974 24.5964 45.7896 24.4415C46.5408 23.9 47.183 23.2345 47.6985 22.4624C47.0012 22.7717 46.2616 22.9735 45.5016 23.0636C46.3027 22.5836 46.9004 21.8331 47.1837 20.9486C46.4307 21.3953 45.6132 21.7071 44.7555 21.8765C44.0353 21.1088 43.0177 20.6687 41.9628 20.6687C39.8541 20.6687 38.1387 22.3842 38.1387 24.4928C38.1387 24.7895 38.1724 25.083 38.2387 25.3649C35.1729 25.2113 32.2999 23.754 30.3555 21.368C30.0169 21.9491 29.8371 22.6142 29.8371 23.2913C29.8371 24.5721 30.4729 25.7621 31.5381 26.4746C30.9312 26.4554 30.3327 26.2892 29.8065 25.9958C29.8056 26.012 29.8056 26.0285 29.8056 26.0444C29.8056 27.8601 31.0958 29.437 32.8737 29.7938C32.548 29.8834 32.2092 29.9279 31.8666 29.9279C31.6262 29.9279 31.3843 29.9052 31.1475 29.8604C31.6456 31.4176 33.0807 32.4855 34.7196 32.5163C33.3518 33.5879 31.709 34.1534 29.9694 34.1534C29.6621 34.1534 29.3556 34.1353 29.0586 34.0995H29.0586ZM37.0002 43.0004C32.7267 43.0004 28.7087 41.336 25.6865 38.3139C22.6643 35.2917 21 31.2738 21 27.0002C21 22.7263 22.6643 18.7082 25.6865 15.6862C28.7086 12.6643 32.7266 11 37.0002 11C41.274 11 45.2919 12.6643 48.3138 15.6862C51.3361 18.7083 53.0004 22.7263 53.0004 27.0002C53.0004 31.2738 51.3361 35.2917 48.3138 38.3139C45.2918 41.336 41.2739 43.0004 37.0002 43.0004Z" fill="#2C2738"/>
<path d="M29.0586 34.0995V33.5995H28.7035L28.5865 33.9348L29.0586 34.0995ZM29.0582 34.1006L28.5861 33.9358L28.4561 34.3085L28.7884 34.5215L29.0582 34.1006ZM45.7896 24.4415L45.4972 24.0359L45.2765 24.195L45.2902 24.4667L45.7896 24.4415ZM47.6985 22.4624L48.1143 22.74L49.0716 21.3064L47.4958 22.0053L47.6985 22.4624ZM45.5016 23.0636L45.2446 22.6347L45.5605 23.5601L45.5016 23.0636ZM47.1837 20.9486L47.6599 21.1011L48.0618 19.8464L46.9286 20.5186L47.1837 20.9486ZM44.7555 21.8765L44.3909 22.2186L44.5805 22.4207L44.8524 22.367L44.7555 21.8765ZM38.2387 25.3649L38.2136 25.8643L38.8775 25.8975L38.7254 25.2505L38.2387 25.3649ZM30.3555 21.368L30.7431 21.0521L30.287 20.4925L29.9235 21.1163L30.3555 21.368ZM31.5381 26.4746L31.5223 26.9743L33.267 27.0295L31.8161 26.059L31.5381 26.4746ZM29.8065 25.9958L30.0501 25.5591L29.3554 25.1717L29.3074 25.9657L29.8065 25.9958ZM32.8737 29.7938L33.0064 30.2759L32.9721 29.3036L32.8737 29.7938ZM31.1475 29.8604L31.2404 29.3691L30.4154 29.2131L30.6712 30.0127L31.1475 29.8604ZM34.7196 32.5163L35.028 32.9099L36.1347 32.0428L34.729 32.0164L34.7196 32.5163ZM29.0586 34.0995L29.1184 33.6031L29.0886 33.5995H29.0586V34.0995ZM25.6865 38.3139L25.333 38.6674L25.333 38.6674L25.6865 38.3139ZM25.6865 15.6862L25.333 15.3326L25.333 15.3326L25.6865 15.6862ZM48.3138 15.6862L47.9603 16.0397L47.9603 16.0397L48.3138 15.6862ZM48.3138 38.3139L47.9603 37.9603L47.9603 37.9603L48.3138 38.3139ZM28.5865 33.9348L28.5861 33.9358L29.5303 34.2653L29.5307 34.2642L28.5865 33.9348ZM28.7884 34.5215C30.6213 35.6965 32.7419 36.3184 34.9194 36.3184V35.3184C32.9334 35.3184 31 34.7515 29.3281 33.6796L28.7884 34.5215ZM34.9194 36.3184C42.05 36.3184 46.3013 30.5168 46.3013 24.9365H45.3013C45.3013 30.0544 41.4119 35.3184 34.9194 35.3184V36.3184ZM46.3013 24.9365C46.3013 24.7556 46.2972 24.5806 46.2889 24.4163L45.2902 24.4667C45.2975 24.6121 45.3013 24.7702 45.3013 24.9365H46.3013ZM46.0819 24.8471C46.8816 24.2707 47.5657 23.5617 48.1143 22.74L47.2827 22.1848C46.8003 22.9072 46.1999 23.5294 45.4972 24.0359L46.0819 24.8471ZM47.4958 22.0053C46.8447 22.2941 46.1536 22.4828 45.4427 22.5671L45.5605 23.5601C46.3696 23.4642 47.1577 23.2492 47.9012 22.9195L47.4958 22.0053ZM45.7586 23.4925C46.663 22.9506 47.3392 22.1024 47.6599 21.1011L46.7076 20.7961C46.4616 21.5639 45.9425 22.2165 45.2446 22.6347L45.7586 23.4925ZM46.9286 20.5186C46.2247 20.9361 45.4607 21.2275 44.6586 21.386L44.8524 22.367C45.7656 22.1867 46.6366 21.8545 47.4388 21.3786L46.9286 20.5186ZM45.1201 21.5344C44.3052 20.6657 43.1555 20.1687 41.9628 20.1687V21.1687C42.8799 21.1687 43.7654 21.5519 44.3909 22.2186L45.1201 21.5344ZM41.9628 20.1687C39.578 20.1687 37.6387 22.108 37.6387 24.4928H38.6387C38.6387 22.6603 40.1303 21.1687 41.9628 21.1687V20.1687ZM37.6387 24.4928C37.6387 24.8272 37.6766 25.1591 37.7519 25.4793L38.7254 25.2505C38.6681 25.0069 38.6387 24.7519 38.6387 24.4928H37.6387ZM38.2637 24.8655C35.3398 24.719 32.5985 23.3288 30.7431 21.0521L29.9679 21.6839C32.0014 24.1792 35.0059 25.7035 38.2136 25.8643L38.2637 24.8655ZM29.9235 21.1163C29.5402 21.774 29.3371 22.526 29.3371 23.2913H30.3371C30.3371 22.7025 30.4935 22.1243 30.7875 21.6197L29.9235 21.1163ZM29.3371 23.2913C29.3371 24.7391 30.0563 26.0849 31.2601 26.8902L31.8161 26.059C30.8895 25.4392 30.3371 24.4051 30.3371 23.2913H29.3371ZM31.5539 25.9748C31.0268 25.9582 30.5063 25.8136 30.0501 25.5591L29.563 26.4325C30.159 26.7648 30.8356 26.9526 31.5223 26.9743L31.5539 25.9748ZM29.3074 25.9657C29.3054 25.9995 29.3056 26.031 29.3056 26.0444H30.3056C30.3056 26.0358 30.3056 26.0315 30.3056 26.0278C30.3057 26.0244 30.3057 26.0242 30.3056 26.0259L29.3074 25.9657ZM29.3056 26.0444C29.3056 28.0978 30.7634 29.8802 32.7753 30.284L32.9721 29.3036C31.4283 28.9937 30.3056 27.6224 30.3056 26.0444H29.3056ZM32.741 29.3117C32.4601 29.389 32.166 29.4279 31.8666 29.4279V30.4279C32.2525 30.4279 32.6359 30.3778 33.0064 30.2759L32.741 29.3117ZM31.8666 29.4279C31.6575 29.4279 31.4467 29.4081 31.2404 29.3691L31.0546 30.3517C31.3219 30.4023 31.595 30.4279 31.8666 30.4279V29.4279ZM30.6712 30.0127C31.2348 31.7742 32.8578 32.9814 34.7102 33.0162L34.729 32.0164C33.3036 31.9896 32.0565 31.061 31.6237 29.7081L30.6712 30.0127ZM34.4112 32.1227C33.1317 33.1252 31.5975 33.6534 29.9694 33.6534V34.6534C31.8204 34.6534 33.5719 34.0507 35.028 32.9099L34.4112 32.1227ZM29.9694 33.6534C29.6816 33.6534 29.395 33.6364 29.1184 33.6031L28.9988 34.5959C29.3162 34.6341 29.6427 34.6534 29.9694 34.6534V33.6534ZM29.0586 33.5995H29.0586V34.5995H29.0586V33.5995ZM37.0002 42.5004C32.8593 42.5004 28.9685 40.8887 26.0401 37.9603L25.333 38.6674C28.4489 41.7833 32.5941 43.5004 37.0002 43.5004V42.5004ZM26.0401 37.9603C23.1116 35.0319 21.5 31.1411 21.5 27.0002H20.5C20.5 31.4064 22.217 35.5515 25.333 38.6674L26.0401 37.9603ZM21.5 27.0002C21.5 22.8589 23.1116 18.968 26.0401 16.0397L25.333 15.3326C22.217 18.4485 20.5 22.5937 20.5 27.0002H21.5ZM26.0401 16.0397C28.9684 13.1116 32.8592 11.5 37.0002 11.5V10.5C32.594 10.5 28.4488 12.2169 25.333 15.3326L26.0401 16.0397ZM37.0002 11.5C41.1414 11.5 45.0321 13.1116 47.9603 16.0397L48.6674 15.3326C45.5517 12.2169 41.4066 10.5 37.0002 10.5V11.5ZM47.9603 16.0397C50.8887 18.968 52.5004 22.8589 52.5004 27.0002H53.5004C53.5004 22.5937 51.7834 18.4485 48.6674 15.3326L47.9603 16.0397ZM52.5004 27.0002C52.5004 31.1411 50.8887 35.0319 47.9603 37.9603L48.6674 38.6674C51.7834 35.5515 53.5004 31.4064 53.5004 27.0002H52.5004ZM47.9603 37.9603C45.032 40.8887 41.1413 42.5004 37.0002 42.5004V43.5004C41.4065 43.5004 45.5515 41.7833 48.6674 38.6674L47.9603 37.9603Z" fill="black" fill-opacity="0.01"/>
</g>
<defs>
<filter id="filter0_d_0_196" x="0.5" y="0.5" width="73.0004" height="73.0005" filterUnits="userSpaceOnUse" color-interpolation-filters="sRGB">
<feFlood flood-opacity="0" result="BackgroundImageFix"/>
<feColorMatrix in="SourceAlpha" type="matrix" values="0 0 0 0 0 0 0 0 0 0 0 0 0 0 0 0 0 0 127 0" result="hardAlpha"/>
<feOffset dy="10"/>
<feGaussianBlur stdDeviation="10"/>
<feColorMatrix type="matrix" values="0 0 0 0 0.172549 0 0 0 0 0.152941 0 0 0 0 0.219608 0 0 0 0.08 0"/>
<feBlend mode="normal" in2="BackgroundImageFix" result="effect1_dropShadow_0_196"/>
<feBlend mode="normal" in="SourceGraphic" in2="effect1_dropShadow_0_196" result="shape"/>
</filter>
</defs>
</svg>
