<svg width="74" height="74" viewBox="0 0 74 74" fill="none" xmlns="http://www.w3.org/2000/svg">
<g filter="url(#filter0_d_0_211)">
<path fill-rule="evenodd" clip-rule="evenodd" d="M33.0519 23.258H33.051H29.271C29.8351 22.0786 30.5927 21.1014 31.5219 20.3519C32.4507 19.6012 33.5626 19.0646 34.8267 18.7571C34.3687 19.4179 34.0004 20.1184 33.7332 20.8406C33.4673 21.5615 33.2382 22.3746 33.052 23.2572L33.0519 23.258ZM39.404 23.258H39.4028H34.6206C34.9447 21.9955 35.2954 20.9834 35.6619 20.2484C36.0294 19.5142 36.4667 18.9173 36.9614 18.4745C37.5242 19.0882 38.0343 19.8279 38.4789 20.6732C38.9226 21.5184 39.2338 22.3877 39.4038 23.2568L39.404 23.258ZM44.6772 23.258H44.6757H40.9476C40.7246 22.3158 40.4653 21.4725 40.1763 20.7506C39.8863 20.0257 39.5142 19.3462 39.0702 18.731C40.3166 19.0384 41.437 19.5885 42.4011 20.3645C43.3651 21.1412 44.1306 22.1142 44.6765 23.2566L44.6772 23.258ZM32.7432 29.2502H32.7421H28.7822C28.6616 28.8356 28.5799 28.4552 28.5383 28.1189C28.4953 27.7776 28.4736 27.3882 28.4736 26.9615C28.4736 26.5172 28.4953 26.1365 28.5383 25.8302C28.5804 25.5235 28.6601 25.17 28.7822 24.7493H32.7693C32.7185 25.1507 32.6833 25.5182 32.6658 25.8428C32.649 26.1516 32.6406 26.5279 32.6406 26.9615C32.6406 27.3374 32.6448 27.6824 32.6532 28.0163C32.6622 28.3776 32.6925 28.7924 32.743 29.2491L32.7432 29.2502ZM39.6614 29.2502H39.6605H34.338C34.2691 28.7157 34.2261 28.2832 34.2092 27.9641C34.192 27.6344 34.1832 27.2971 34.1832 26.9615C34.1832 26.6255 34.192 26.3009 34.2092 25.9967C34.2262 25.7008 34.2695 25.2811 34.338 24.7493H39.6615C39.7146 25.3001 39.7437 25.7078 39.7515 25.9967C39.7599 26.2794 39.7641 26.595 39.7641 26.9615C39.7641 27.3297 39.7599 27.6577 39.7515 27.9641C39.7436 28.2845 39.7141 28.7049 39.6615 29.2493L39.6614 29.2502ZM45.1659 29.2502H45.1652H41.205C41.222 28.7355 41.2439 28.3119 41.2689 27.9902C41.2945 27.671 41.3076 27.3249 41.3076 26.9615C41.3076 26.6801 41.2988 26.3945 41.2815 26.1128C41.2645 25.8239 41.2473 25.3651 41.2302 24.7493H45.1659C45.2716 25.1745 45.347 25.5278 45.3972 25.8302C45.4479 26.1349 45.4736 26.5155 45.4736 26.9615C45.4736 27.39 45.4479 27.7794 45.3972 28.1189C45.3468 28.4558 45.269 28.8361 45.1661 29.2494L45.1659 29.2502ZM39.0953 35.2685L39.0971 35.2661C39.5396 34.6537 39.9111 33.9623 40.2015 33.2111C40.4918 32.4599 40.7516 31.6205 40.9736 30.7163H44.6772C44.0957 31.8102 43.312 32.7571 42.3489 33.5324C41.3857 34.3084 40.2921 34.8923 39.0981 35.2676L39.0953 35.2685ZM34.8519 35.2946L34.8489 35.2935C33.4335 34.7982 32.2922 34.2056 31.457 33.5324C30.6207 32.8582 29.8853 31.9107 29.271 30.7163H33.0258C33.2312 31.6389 33.4777 32.4868 33.7593 33.2372C34.0398 33.9859 34.4069 34.6772 34.8501 35.292L34.8519 35.2946ZM36.9614 35.6033L36.9607 35.6025C36.4152 34.9889 35.9395 34.2709 35.5466 33.4685C35.1541 32.6654 34.8425 31.7395 34.6206 30.7163H39.3789C39.1054 31.8095 38.7673 32.7565 38.3754 33.5324C37.9835 34.3081 37.5081 35.0045 36.9622 35.6025L36.9614 35.6033ZM36.9867 16.0562C35.4697 16.0562 34.0289 16.3417 32.7045 16.9049C31.3816 17.4686 30.2134 18.2475 29.2323 19.2197C28.2511 20.1928 27.468 21.3568 26.9049 22.6793C26.3417 24.0006 26.0561 25.4414 26.0561 26.9615C26.0561 28.481 26.3417 29.926 26.9049 31.2563C27.4684 32.5877 28.2513 33.7647 29.2323 34.7546C30.2145 35.7449 31.3827 36.5322 32.7045 37.0946C34.0269 37.6578 35.4676 37.9433 36.9867 37.9433C38.5066 37.9433 39.9474 37.6578 41.2689 37.0946C42.5915 36.5322 43.7598 35.7449 44.7411 34.7546C45.7209 33.7667 46.5085 32.5897 47.082 31.2563C47.6534 29.9249 47.9432 28.48 47.9432 26.9615C47.9432 25.4424 47.6535 24.0017 47.082 22.6793C46.509 21.355 45.7214 20.1911 44.7411 19.2197C43.7609 18.2475 42.5926 17.4686 41.2689 16.9049C39.9453 16.3417 38.5045 16.0562 36.9867 16.0562ZM36.9993 43.0004C32.7257 43.0004 28.708 41.336 25.686 38.3139C22.6642 35.2917 21 31.2738 21 27.0002C21 22.7263 22.6642 18.7082 25.686 15.6862C28.7079 12.6643 32.7256 11 36.9993 11C41.2733 11 45.2914 12.6643 48.3134 15.6862C51.3353 18.7081 52.9995 22.7262 52.9995 27.0002C52.9995 31.2739 51.3353 35.2918 48.3134 38.3139C45.2913 41.336 41.2732 43.0004 36.9993 43.0004Z" fill="#2C2738"/>
<path d="M33.0519 23.258V23.758H33.4816L33.5462 23.3332L33.0519 23.258ZM29.271 23.258L28.8199 23.0423L28.4776 23.758H29.271V23.258ZM31.5219 20.3519L31.8358 20.7411L31.8361 20.7408L31.5219 20.3519ZM34.8267 18.7571L35.2376 19.0419L35.9874 17.9601L34.7085 18.2713L34.8267 18.7571ZM33.7332 20.8406L33.2642 20.6671L33.264 20.6676L33.7332 20.8406ZM33.052 23.2572L32.5628 23.154L32.5598 23.168L32.5577 23.182L33.052 23.2572ZM39.404 23.258V23.758H40.0149L39.8942 23.1592L39.404 23.258ZM34.6206 23.258L34.1363 23.1337L33.976 23.758H34.6206V23.258ZM35.6619 20.2484L35.2148 20.0246L35.2144 20.0253L35.6619 20.2484ZM36.9614 18.4745L37.3299 18.1366L36.9961 17.7725L36.6279 18.1019L36.9614 18.4745ZM38.4789 20.6732L38.9216 20.4408L38.9214 20.4404L38.4789 20.6732ZM39.4038 23.2568L38.9131 23.3528L38.9137 23.3556L39.4038 23.2568ZM44.6772 23.258V23.758H45.499L45.1213 23.0282L44.6772 23.258ZM40.9476 23.258L40.4611 23.3732L40.5522 23.758H40.9476V23.258ZM40.1763 20.7506L39.712 20.9363L39.7121 20.9365L40.1763 20.7506ZM39.0702 18.731L39.1899 18.2455L37.868 17.9196L38.6647 19.0236L39.0702 18.731ZM42.4011 20.3645L42.7148 19.9752L42.7146 19.975L42.4011 20.3645ZM44.6765 23.2566L44.2254 23.4722L44.2288 23.4793L44.2324 23.4864L44.6765 23.2566ZM32.7432 29.2502V29.7502H33.3103L33.2392 29.1875L32.7432 29.2502ZM28.7822 29.2502L28.3021 29.3899L28.4069 29.7502H28.7822V29.2502ZM28.5383 28.1189L29.0345 28.0575L29.0344 28.0564L28.5383 28.1189ZM28.5383 25.8302L29.0335 25.8997L29.0337 25.8982L28.5383 25.8302ZM28.7822 24.7493V24.2493H28.4067L28.302 24.61L28.7822 24.7493ZM32.7693 24.7493L33.2653 24.8121L33.3365 24.2493H32.7693V24.7493ZM32.6658 25.8428L32.1665 25.8158L32.1665 25.8158L32.6658 25.8428ZM32.6532 28.0163L33.153 28.0038L33.153 28.0037L32.6532 28.0163ZM32.743 29.2491L32.246 29.3041L32.247 29.3118L32.743 29.2491ZM39.6614 29.2502V29.7502H40.0942L40.1562 29.3218L39.6614 29.2502ZM34.338 29.2502L33.8421 29.3142L33.8984 29.7502H34.338V29.2502ZM34.2092 27.9641L33.7099 27.9902L33.7099 27.9904L34.2092 27.9641ZM34.2092 25.9967L33.7101 25.9681L33.71 25.9685L34.2092 25.9967ZM34.338 24.7493V24.2493H33.8983L33.8421 24.6854L34.338 24.7493ZM39.6615 24.7493L40.1592 24.7013L40.1156 24.2493H39.6615V24.7493ZM39.7515 25.9967L39.2517 26.0102L39.2517 26.0116L39.7515 25.9967ZM39.7515 27.9641L39.2517 27.9504L39.2516 27.9517L39.7515 27.9641ZM39.6615 29.2493L40.1564 29.3209L40.1581 29.3092L40.1592 29.2974L39.6615 29.2493ZM45.1659 29.2502V29.7502H45.5322L45.6426 29.4009L45.1659 29.2502ZM41.205 29.2502L40.7052 29.2336L40.6881 29.7502H41.205V29.2502ZM41.2689 27.9902L40.7705 27.9502L40.7704 27.9514L41.2689 27.9902ZM41.2815 26.1128L40.7823 26.1421L40.7824 26.1435L41.2815 26.1128ZM41.2302 24.7493V24.2493H40.7162L40.7304 24.7632L41.2302 24.7493ZM45.1659 24.7493L45.6511 24.6287L45.5568 24.2493H45.1659V24.7493ZM45.3972 25.8302L44.904 25.912L44.904 25.9122L45.3972 25.8302ZM45.3972 28.1189L45.8917 28.1929L45.8917 28.1927L45.3972 28.1189ZM45.1661 29.2494L45.6429 29.4001L45.6476 29.3853L45.6513 29.3702L45.1661 29.2494ZM39.0953 35.2685L38.6853 34.9823L37.832 36.205L39.2499 35.744L39.0953 35.2685ZM39.097 35.2661L38.6917 34.9732L38.687 34.9799L39.097 35.2661ZM40.2015 33.2111L40.6679 33.3914L40.6679 33.3913L40.2015 33.2111ZM40.9736 30.7163V30.2163H40.5816L40.4881 30.5971L40.9736 30.7163ZM44.6772 30.7163L45.1187 30.951L45.5093 30.2163H44.6772V30.7163ZM42.3489 33.5324L42.0354 33.1429L42.0352 33.1431L42.3489 33.5324ZM39.0981 35.2676L38.9482 34.7906L38.9436 34.7921L39.0981 35.2676ZM34.8519 35.2946L34.6892 35.7674L36.1704 36.2772L35.2585 35.0035L34.8519 35.2946ZM34.8489 35.2935L34.6837 35.7655L34.6861 35.7663L34.8489 35.2935ZM31.457 33.5324L31.1432 33.9217L31.1432 33.9217L31.457 33.5324ZM29.271 30.7163V30.2163H28.4516L28.8263 30.945L29.271 30.7163ZM33.0258 30.7163L33.5138 30.6076L33.4267 30.2163H33.0258V30.7163ZM33.7593 33.2372L34.2275 33.0618L34.2274 33.0615L33.7593 33.2372ZM34.8501 35.292L35.2566 35.001L35.2557 34.9996L34.8501 35.292ZM36.9614 35.6033L36.5861 35.9336L36.9592 36.3576L37.3348 35.9358L36.9614 35.6033ZM36.9607 35.6025L37.3361 35.2722L37.3344 35.2703L36.9607 35.6025ZM35.5466 33.4685L35.0974 33.6881L35.0976 33.6883L35.5466 33.4685ZM34.6206 30.7163V30.2163H34.0005L34.132 30.8223L34.6206 30.7163ZM39.3789 30.7163L39.864 30.8377L40.0194 30.2163H39.3789V30.7163ZM38.3754 33.5324L37.9291 33.3069L37.9291 33.3069L38.3754 33.5324ZM36.9622 35.6025L36.5929 35.2653L36.5888 35.2699L36.9622 35.6025ZM32.7045 16.9049L32.5088 16.4448L32.5084 16.4449L32.7045 16.9049ZM29.2323 19.2197L28.8803 18.8646L28.8802 18.8647L29.2323 19.2197ZM26.9049 22.6793L27.3649 22.8754L27.3649 22.8752L26.9049 22.6793ZM26.9049 31.2563L27.3654 31.0614L27.3653 31.0614L26.9049 31.2563ZM29.2323 34.7546L28.8771 35.1065L28.8773 35.1067L29.2323 34.7546ZM32.7045 37.0946L32.9004 36.6346L32.9002 36.6345L32.7045 37.0946ZM41.2689 37.0946L41.0733 36.6345L41.0729 36.6346L41.2689 37.0946ZM44.7411 34.7546L44.3861 34.4025L44.3859 34.4027L44.7411 34.7546ZM47.082 31.2563L47.5414 31.4538L47.5415 31.4535L47.082 31.2563ZM47.082 22.6793L47.541 22.481L47.5409 22.4807L47.082 22.6793ZM44.7411 19.2197L44.389 19.5747L44.3892 19.5749L44.7411 19.2197ZM41.2689 16.9049L41.4648 16.4449L41.4647 16.4448L41.2689 16.9049ZM25.686 38.3139L25.3325 38.6674L25.3325 38.6674L25.686 38.3139ZM25.686 15.6862L25.3325 15.3326L25.3325 15.3326L25.686 15.6862ZM48.3134 15.6862L48.6669 15.3326L48.6669 15.3326L48.3134 15.6862ZM48.3134 38.3139L48.6669 38.6674L48.6669 38.6674L48.3134 38.3139ZM33.0519 22.758H33.051V23.758H33.0519V22.758ZM33.051 22.758H29.271V23.758H33.051V22.758ZM29.7221 23.4737C30.257 22.3554 30.9698 21.4395 31.8358 20.7411L31.2079 19.9627C30.2155 20.7632 29.4132 21.8019 28.8199 23.0423L29.7221 23.4737ZM31.8361 20.7408C32.7026 20.0405 33.746 19.5346 34.9449 19.2429L34.7085 18.2713C33.3792 18.5947 32.1988 19.1619 31.2076 19.963L31.8361 20.7408ZM34.4157 18.4723C33.935 19.1658 33.5468 19.9034 33.2642 20.6671L34.2021 21.0141C34.454 20.3333 34.8023 19.67 35.2376 19.0419L34.4157 18.4723ZM33.264 20.6676C32.9885 21.4148 32.7531 22.2517 32.5628 23.154L33.5412 23.3604C33.7232 22.4975 33.9461 21.7082 34.2023 21.0136L33.264 20.6676ZM32.5577 23.182L32.5576 23.1828L33.5462 23.3332L33.5463 23.3324L32.5577 23.182ZM39.404 22.758H39.4028V23.758H39.404V22.758ZM39.4028 22.758H34.6206V23.758H39.4028V22.758ZM35.1049 23.3823C35.4246 22.1369 35.7649 21.1623 36.1093 20.4715L35.2144 20.0253C34.8259 20.8044 34.4648 21.8542 34.1363 23.1337L35.1049 23.3823ZM36.109 20.4722C36.4548 19.7814 36.8567 19.2393 37.2949 18.8471L36.6279 18.1019C36.0767 18.5954 35.604 19.2469 35.2148 20.0246L36.109 20.4722ZM36.5929 18.8124C37.1225 19.39 37.6089 20.0931 38.0364 20.906L38.9214 20.4404C38.4598 19.5627 37.9258 18.7864 37.3299 18.1366L36.5929 18.8124ZM38.0362 20.9056C38.4591 21.7112 38.7531 22.5348 38.9131 23.3528L39.8945 23.1608C39.7145 22.2406 39.3861 21.3256 38.9216 20.4408L38.0362 20.9056ZM38.9137 23.3556L38.9139 23.3568L39.8942 23.1592L39.894 23.158L38.9137 23.3556ZM44.6772 22.758H44.6757V23.758H44.6772V22.758ZM44.6757 22.758H40.9476V23.758H44.6757V22.758ZM41.4342 23.1428C41.2068 22.1822 40.9406 21.3144 40.6404 20.5647L39.7121 20.9365C39.99 21.6305 40.2424 22.4494 40.4611 23.3732L41.4342 23.1428ZM40.6405 20.5649C40.3359 19.8032 39.9442 19.0876 39.4756 18.4384L38.6647 19.0236C39.0842 19.6048 39.4368 20.2482 39.712 20.9363L40.6405 20.5649ZM38.9505 19.2165C40.1286 19.507 41.1823 20.0253 42.0876 20.754L42.7146 19.975C41.6918 19.1517 40.5047 18.5697 39.1899 18.2455L38.9505 19.2165ZM42.0874 20.7538C42.9918 21.4825 43.711 22.3957 44.2254 23.4722L45.1276 23.041C44.5503 21.8328 43.7384 20.7999 42.7148 19.9752L42.0874 20.7538ZM44.2324 23.4864L44.2332 23.4878L45.1213 23.0282L45.1206 23.0268L44.2324 23.4864ZM32.7432 28.7502H32.7421V29.7502H32.7432V28.7502ZM32.7421 28.7502H28.7822V29.7502H32.7421V28.7502ZM29.2623 29.1105C29.1474 28.7154 29.0722 28.3617 29.0345 28.0575L28.0421 28.1803C28.0877 28.5487 28.1758 28.9557 28.3021 29.3899L29.2623 29.1105ZM29.0344 28.0564C28.9946 27.7401 28.9736 27.3721 28.9736 26.9615H27.9736C27.9736 27.4043 27.9961 27.8151 28.0422 28.1814L29.0344 28.0564ZM28.9736 26.9615C28.9736 26.5313 28.9948 26.1754 29.0335 25.8997L28.0432 25.7607C27.9959 26.0977 27.9736 26.5031 27.9736 26.9615H28.9736ZM29.0337 25.8982C29.0714 25.6232 29.1446 25.2946 29.2624 24.8886L28.302 24.61C28.1757 25.0453 28.0894 25.4239 28.043 25.7622L29.0337 25.8982ZM28.7822 25.2493H32.7693V24.2493H28.7822V25.2493ZM32.2732 24.6865C32.2214 25.0965 32.1849 25.4764 32.1665 25.8158L33.165 25.8698C33.1818 25.5601 33.2156 25.2049 33.2653 24.8121L32.2732 24.6865ZM32.1665 25.8158C32.1491 26.1363 32.1406 26.5223 32.1406 26.9615H33.1406C33.1406 26.5336 33.1489 26.1668 33.165 25.8698L32.1665 25.8158ZM32.1406 26.9615C32.1406 27.3412 32.1448 27.6904 32.1533 28.0289L33.153 28.0037C33.1447 27.6745 33.1406 27.3337 33.1406 26.9615H32.1406ZM32.1533 28.0288C32.1628 28.4076 32.1944 28.8369 32.2461 29.3041L33.24 29.1941C33.1906 28.7479 33.1616 28.3477 33.153 28.0038L32.1533 28.0288ZM32.247 29.3118L32.2471 29.3129L33.2392 29.1875L33.2391 29.1864L32.247 29.3118ZM39.6614 28.7502H39.6605V29.7502H39.6614V28.7502ZM39.6605 28.7502H34.338V29.7502H39.6605V28.7502ZM34.8339 29.1862C34.7657 28.6574 34.7244 28.239 34.7085 27.9378L33.7099 27.9904C33.7277 28.3275 33.7724 28.7739 33.8421 29.3142L34.8339 29.1862ZM34.7086 27.938C34.6918 27.6171 34.6832 27.2885 34.6832 26.9615H33.6832C33.6832 27.3057 33.6923 27.6517 33.7099 27.9902L34.7086 27.938ZM34.6832 26.9615C34.6832 26.634 34.6918 26.3189 34.7084 26.0249L33.71 25.9685C33.6922 26.2829 33.6832 26.617 33.6832 26.9615H34.6832ZM34.7084 26.0253C34.7244 25.747 34.766 25.341 34.8339 24.8132L33.8421 24.6854C33.7731 25.2212 33.728 25.6546 33.7101 25.9681L34.7084 26.0253ZM34.338 25.2493H39.6615V24.2493H34.338V25.2493ZM39.1638 24.7973C39.2166 25.3444 39.2443 25.7387 39.2517 26.0102L40.2513 25.9832C40.243 25.677 40.2127 25.2558 40.1592 24.7013L39.1638 24.7973ZM39.2517 26.0116C39.2599 26.2882 39.264 26.5987 39.264 26.9615H40.264C40.264 26.5914 40.2599 26.2707 40.2513 25.9818L39.2517 26.0116ZM39.264 26.9615C39.264 27.3259 39.2599 27.6493 39.2517 27.9504L40.2513 27.9778C40.2599 27.6661 40.264 27.3335 40.264 26.9615H39.264ZM39.2516 27.9517C39.2441 28.2548 39.216 28.6617 39.1638 29.2012L40.1592 29.2974C40.2123 28.7482 40.243 28.3143 40.2513 27.9765L39.2516 27.9517ZM39.1667 29.1777L39.1665 29.1786L40.1562 29.3218L40.1564 29.3209L39.1667 29.1777ZM45.1659 28.7502H45.1652V29.7502H45.1659V28.7502ZM45.1652 28.7502H41.205V29.7502H45.1652V28.7502ZM41.7047 29.2668C41.7216 28.7562 41.7432 28.3406 41.7674 28.029L40.7704 27.9514C40.7446 28.2832 40.7225 28.7148 40.7052 29.2336L41.7047 29.2668ZM41.7673 28.0302C41.7941 27.6961 41.8076 27.3366 41.8076 26.9615H40.8076C40.8076 27.3132 40.795 27.6458 40.7705 27.9502L41.7673 28.0302ZM41.8076 26.9615C41.8076 26.6698 41.7985 26.374 41.7805 26.0821L40.7824 26.1435C40.7991 26.4151 40.8076 26.6904 40.8076 26.9615H41.8076ZM41.7806 26.0835C41.7641 25.8027 41.7471 25.3505 41.73 24.7354L40.7304 24.7632C40.7475 25.3797 40.7649 25.845 40.7824 26.1421L41.7806 26.0835ZM41.2302 25.2493H45.1659V24.2493H41.2302V25.2493ZM44.6807 24.8699C44.7843 25.287 44.8566 25.6267 44.904 25.912L45.8905 25.7484C45.8375 25.4289 45.7589 25.062 45.6511 24.6287L44.6807 24.8699ZM44.904 25.9122C44.9486 26.1809 44.9736 26.5322 44.9736 26.9615H45.9736C45.9736 26.4989 45.9471 26.089 45.8904 25.7482L44.904 25.9122ZM44.9736 26.9615C44.9736 27.371 44.9489 27.7351 44.9027 28.0451L45.8917 28.1927C45.9468 27.8237 45.9736 27.409 45.9736 26.9615H44.9736ZM44.9027 28.0449C44.8552 28.3627 44.7809 28.7271 44.6809 29.1286L45.6513 29.3702C45.7572 28.9451 45.8384 28.5488 45.8917 28.1929L44.9027 28.0449ZM44.6894 29.0988L44.6891 29.0995L45.6426 29.4009L45.6429 29.4001L44.6894 29.0988ZM39.5053 35.5547L39.5071 35.5522L38.687 34.9799L38.6853 34.9823L39.5053 35.5547ZM39.5023 35.5589C39.9715 34.9095 40.3631 34.1799 40.6679 33.3914L39.7352 33.0308C39.4592 33.7446 39.1076 34.3978 38.6918 34.9732L39.5023 35.5589ZM40.6679 33.3913C40.967 32.6174 41.2328 31.7574 41.4592 30.8355L40.4881 30.5971C40.2703 31.4837 40.0167 32.3024 39.7352 33.0309L40.6679 33.3913ZM40.9736 31.2163H44.6772V30.2163H40.9736V31.2163ZM44.2358 30.4816C43.686 31.5157 42.9459 32.41 42.0354 33.1429L42.6624 33.9219C43.6781 33.1043 44.5054 32.1047 45.1187 30.951L44.2358 30.4816ZM42.0352 33.1431C41.1212 33.8795 40.0833 34.4338 38.9482 34.7906L39.2481 35.7446C40.5009 35.3507 41.6502 34.7374 42.6626 33.9217L42.0352 33.1431ZM38.9436 34.7921L38.9408 34.793L39.2499 35.744L39.2527 35.7431L38.9436 34.7921ZM35.0147 34.8218L35.0116 34.8208L34.6861 35.7663L34.6892 35.7674L35.0147 34.8218ZM35.014 34.8216C33.6327 34.3382 32.5477 33.7694 31.7708 33.1431L31.1432 33.9217C32.0367 34.6419 33.2342 35.2582 34.6837 35.7655L35.014 34.8216ZM31.7708 33.1431C31.0007 32.5223 30.3057 31.635 29.7156 30.4876L28.8263 30.945C29.4648 32.1864 30.2408 33.1941 31.1432 33.9217L31.7708 33.1431ZM29.271 31.2163H33.0258V30.2163H29.271V31.2163ZM32.5377 30.825C32.7473 31.7663 33 32.6371 33.2912 33.4129L34.2274 33.0615C33.9553 32.3366 33.7151 31.5116 33.5138 30.6076L32.5377 30.825ZM33.2911 33.4126C33.5863 34.2007 33.9739 34.9317 34.4445 35.5844L35.2557 34.9996C34.8398 34.4228 34.4933 33.7711 34.2275 33.0618L33.2911 33.4126ZM34.4435 35.5831L34.4454 35.5857L35.2585 35.0035L35.2566 35.001L34.4435 35.5831ZM37.3368 35.273L37.3361 35.2722L36.5853 35.9328L36.5861 35.9336L37.3368 35.273ZM37.3344 35.2703C36.8215 34.6934 36.3704 34.0139 35.9957 33.2486L35.0976 33.6883C35.5086 34.5279 36.0089 35.2844 36.587 35.9347L37.3344 35.2703ZM35.9958 33.2489C35.6236 32.4876 35.3241 31.6007 35.1092 30.6103L34.132 30.8223C34.361 31.8782 34.6845 32.8433 35.0974 33.6881L35.9958 33.2489ZM34.6206 31.2163H39.3789V30.2163H34.6206V31.2163ZM38.8939 30.5949C38.6269 31.6618 38.3003 32.5721 37.9291 33.3069L38.8217 33.7579C39.2344 32.941 39.5838 31.9572 39.864 30.8377L38.8939 30.5949ZM37.9291 33.3069C37.5562 34.045 37.106 34.7033 36.5929 35.2654L37.3314 35.9396C37.9101 35.3057 38.4108 34.5711 38.8217 33.7579L37.9291 33.3069ZM36.5888 35.2699L36.588 35.2708L37.3348 35.9358L37.3355 35.935L36.5888 35.2699ZM36.9867 15.5562C35.4062 15.5562 33.8985 15.8539 32.5088 16.4448L32.9001 17.365C34.1594 16.8296 35.5333 16.5562 36.9867 16.5562V15.5562ZM32.5084 16.4449C31.1299 17.0324 29.9081 17.846 28.8803 18.8646L29.5842 19.5749C30.5186 18.6489 31.6333 17.9049 32.9005 17.3649L32.5084 16.4449ZM28.8802 18.8647C27.8512 19.8852 27.0323 21.1038 26.4449 22.4834L27.3649 22.8752C27.9037 21.6098 28.651 20.5004 29.5844 19.5747L28.8802 18.8647ZM26.4449 22.4832C25.8538 23.8701 25.5561 25.378 25.5561 26.9615H26.5561C26.5561 25.5047 26.8296 24.1311 27.3649 22.8754L26.4449 22.4832ZM25.5561 26.9615C25.5561 28.5445 25.8538 30.0561 26.4445 31.4512L27.3653 31.0614C26.8296 29.7959 26.5561 28.4176 26.5561 26.9615H25.5561ZM26.4444 31.4512C27.0318 32.8389 27.8497 34.0697 28.8771 35.1065L29.5874 34.4027C28.653 33.4596 27.905 32.3365 27.3654 31.0614L26.4444 31.4512ZM28.8773 35.1067C29.9064 36.1443 31.1292 36.9677 32.5087 37.5547L32.9002 36.6345C31.6362 36.0967 30.5225 35.3455 29.5873 34.4025L28.8773 35.1067ZM32.5086 37.5546C33.8964 38.1456 35.4042 38.4433 36.9867 38.4433V37.4433C35.5311 37.4433 34.1573 37.1699 32.9004 36.6346L32.5086 37.5546ZM36.9867 38.4433C38.57 38.4433 40.0779 38.1457 41.4649 37.5546L41.0729 36.6346C39.8169 37.1699 38.4432 37.4433 36.9867 37.4433V38.4433ZM41.4646 37.5547C42.845 36.9678 44.0679 36.1444 45.0963 35.1065L44.3859 34.4027C43.4517 35.3455 42.3381 36.0967 41.0733 36.6345L41.4646 37.5547ZM45.0961 35.1067C46.122 34.0724 46.9442 32.8423 47.5414 31.4538L46.6227 31.0588C46.0729 32.3371 45.3199 33.461 44.3861 34.4025L45.0961 35.1067ZM47.5415 31.4535C48.1409 30.0569 48.4432 28.5445 48.4432 26.9615H47.4432C47.4432 28.4155 47.166 29.793 46.6226 31.0591L47.5415 31.4535ZM48.4432 26.9615C48.4432 25.378 48.1409 23.8694 47.541 22.481L46.623 22.8776C47.166 24.134 47.4432 25.5069 47.4432 26.9615H48.4432ZM47.5409 22.4807C46.9438 21.1006 46.1207 19.8828 45.093 18.8645L44.3892 19.5749C45.3221 20.4993 46.0743 21.6094 46.6231 22.8779L47.5409 22.4807ZM45.0932 18.8647C44.0661 17.846 42.8443 17.0324 41.4648 16.4449L41.073 17.3649C42.341 17.9049 43.4556 18.6489 44.389 19.5747L45.0932 18.8647ZM41.4647 16.4448C40.0758 15.8539 38.568 15.5562 36.9867 15.5562V16.5562C38.441 16.5562 39.8148 16.8296 41.0732 17.365L41.4647 16.4448ZM36.9993 42.5004C32.8583 42.5004 28.9678 40.8887 26.0396 37.9603L25.3325 38.6674C28.4482 41.7833 32.5931 43.5004 36.9993 43.5004V42.5004ZM26.0396 37.9603C23.1115 35.0319 21.5 31.1412 21.5 27.0002H20.5C20.5 31.4064 22.2169 35.5515 25.3325 38.6674L26.0396 37.9603ZM21.5 27.0002C21.5 22.8589 23.1115 18.968 26.0396 16.0397L25.3325 15.3326C22.2168 18.4485 20.5 22.5937 20.5 27.0002H21.5ZM26.0396 16.0397C28.9677 13.1116 32.8582 11.5 36.9993 11.5V10.5C32.593 10.5 28.4481 12.2169 25.3325 15.3326L26.0396 16.0397ZM36.9993 11.5C41.1407 11.5 45.0316 13.1116 47.9598 16.0397L48.6669 15.3326C45.5512 12.2169 41.4059 10.5 36.9993 10.5V11.5ZM47.9598 16.0397C50.888 18.9679 52.4995 22.8588 52.4995 27.0002H53.4995C53.4995 22.5936 51.7827 18.4484 48.6669 15.3326L47.9598 16.0397ZM52.4995 27.0002C52.4995 31.1413 50.888 35.032 47.9598 37.9603L48.6669 38.6674C51.7827 35.5516 53.4995 31.4065 53.4995 27.0002H52.4995ZM47.9598 37.9603C45.0315 40.8887 41.1406 42.5004 36.9993 42.5004V43.5004C41.4058 43.5004 45.5511 41.7833 48.6669 38.6674L47.9598 37.9603Z" fill="black" fill-opacity="0.01"/>
</g>
<defs>
<filter id="filter0_d_0_211" x="0.5" y="0.5" width="72.9995" height="73.0005" filterUnits="userSpaceOnUse" color-interpolation-filters="sRGB">
<feFlood flood-opacity="0" result="BackgroundImageFix"/>
<feColorMatrix in="SourceAlpha" type="matrix" values="0 0 0 0 0 0 0 0 0 0 0 0 0 0 0 0 0 0 127 0" result="hardAlpha"/>
<feOffset dy="10"/>
<feGaussianBlur stdDeviation="10"/>
<feColorMatrix type="matrix" values="0 0 0 0 0.172549 0 0 0 0 0.152941 0 0 0 0 0.219608 0 0 0 0.08 0"/>
<feBlend mode="normal" in2="BackgroundImageFix" result="effect1_dropShadow_0_211"/>
<feBlend mode="normal" in="SourceGraphic" in2="effect1_dropShadow_0_211" result="shape"/>
</filter>
</defs>
</svg>
