<?xml version="1.0" encoding="UTF-8" standalone="no"?>
<!-- Created with Inkscape (http://www.inkscape.org/) -->

<svg
   version="1.1"
   id="svg2"
   xml:space="preserve"
   width="1496"
   height="1496"
   viewBox="0 0 1496 1496"
   sodipodi:docname="25540.eps"
   xmlns:inkscape="http://www.inkscape.org/namespaces/inkscape"
   xmlns:sodipodi="http://sodipodi.sourceforge.net/DTD/sodipodi-0.dtd"
   xmlns="http://www.w3.org/2000/svg"
   xmlns:svg="http://www.w3.org/2000/svg"><defs
     id="defs6" /><sodipodi:namedview
     id="namedview4"
     pagecolor="#ffffff"
     bordercolor="#666666"
     borderopacity="1.0"
     inkscape:pageshadow="2"
     inkscape:pageopacity="0.0"
     inkscape:pagecheckerboard="0" /><g
     id="g8"
     inkscape:groupmode="layer"
     inkscape:label="ink_ext_XXXXXX"
     transform="matrix(1.3333333,0,0,-1.3333333,0,1496)"><g
       id="g10"
       transform="scale(0.1)"><path
         d="M 11220,0 H 0 V 11220 H 11220 V 0"
         style="fill:#ffffff;fill-opacity:1;fill-rule:nonzero;stroke:none"
         id="path12" /><path
         d="m 3279.78,3959.88 c 39.42,84.77 69.94,171.38 92.14,258.78 C 2699.41,4626.37 2250,5365.27 2250,6209.15 c 0,1284.64 1041.4,2326.04 2326.04,2326.04 1284.63,0 2326.04,-1041.4 2326.04,-2326.04 0,-1284.63 -1041.41,-2326.03 -2326.04,-2326.03 -175.46,0 -346.34,19.55 -510.68,56.37 -302.86,-377.28 -773.1,-578.71 -1248.97,-544.98 193.54,141.58 355.11,332.57 463.39,565.37"
         style="fill:#fed100;fill-opacity:1;fill-rule:nonzero;stroke:none"
         id="path14" /><path
         d="m 2664.38,5981.68 c 0,1134.42 919.63,2054.05 2054.06,2054.05 663.08,0 1252.67,-314.28 1628.23,-801.92 -354.69,615.75 -1019.49,1030.29 -1781.12,1030.29 -1134.43,0 -2054.06,-919.63 -2054.06,-2054.05 0,-471.34 158.87,-905.51 425.83,-1252.13 -173.61,301.39 -272.94,650.97 -272.94,1023.76"
         style="fill:#ffdf5a;fill-opacity:1;fill-rule:nonzero;stroke:none"
         id="path16" /><path
         d="m 6900.9,6282.5 c -0.05,1.46 -0.12,2.9 -0.17,4.35 -27.54,803.3 -463.08,1502.94 -1105.86,1898.35 231.26,-361.05 365.35,-790.31 365.35,-1250.89 0,-1282.57 -1039.71,-2322.29 -2322.29,-2322.29 -445.43,0 -861.51,125.51 -1214.99,342.94 189.56,-295.92 444.52,-545.82 744.33,-729.77 l -1.66,-2.51 c 2.15,-1.31 4.25,-2.71 6.4,-4.01 -22.21,-87.41 -52.72,-174.02 -92.14,-258.79 -108.28,-232.8 -269.85,-423.79 -463.39,-565.37 475.87,-33.72 946.11,167.7 1248.96,544.99 1.17,-0.27 2.34,-0.48 3.5,-0.74 l -0.29,1.43 c 164.51,-36.97 335.55,-56.62 511.22,-56.62 450.15,0 895.35,133.03 1271.54,380.11 331.83,217.94 605.88,520.81 789.21,872.98 144.17,276.93 230.96,582.34 254.77,893.6 6.22,81.39 8.2,168.56 5.51,252.24"
         style="fill:#fcc200;fill-opacity:1;fill-rule:nonzero;stroke:none"
         id="path18" /><path
         d="m 7940.22,3253.83 c -39.42,84.77 -69.94,171.38 -92.14,258.79 672.51,407.7 1121.92,1146.6 1121.92,1990.48 0,1284.64 -1041.4,2326.04 -2326.04,2326.04 -1284.63,0 -2326.04,-1041.4 -2326.04,-2326.04 0,-1284.63 1041.41,-2326.03 2326.04,-2326.03 175.46,0 346.34,19.55 510.68,56.38 302.86,-377.29 773.1,-578.71 1248.97,-544.99 -193.54,141.58 -355.11,332.57 -463.39,565.37"
         style="fill:#fcc200;fill-opacity:1;fill-rule:nonzero;stroke:none"
         id="path20" /><path
         d="m 7940.22,3253.83 c -39.21,84.32 -69.6,170.46 -91.78,257.4 672.23,406.86 1121.56,1145.01 1121.56,1988.13 0,837.12 -443.01,1570.7 -1107.3,1979.34 231.26,-361.05 365.36,-790.31 365.36,-1250.89 0,-1282.57 -1039.72,-2322.29 -2322.29,-2322.29 -445.44,0 -861.52,125.5 -1215,342.94 412.73,-644.33 1134.96,-1071.39 1956.94,-1071.39 174.32,0 344.1,19.35 507.44,55.76 302.87,-376.89 772.85,-578.07 1248.46,-544.37 -193.54,141.58 -355.11,332.57 -463.39,565.37"
         style="fill:#e2a700;fill-opacity:1;fill-rule:nonzero;stroke:none"
         id="path22" /><path
         d="m 4732.31,5275.18 c 0,1134.42 919.63,2054.05 2054.05,2054.05 663.09,0 1252.67,-314.28 1628.23,-801.92 C 8059.9,7143.06 7395.1,7557.6 6633.47,7557.6 c -1134.42,0 -2054.05,-919.63 -2054.05,-2054.05 0,-471.34 158.87,-905.51 425.82,-1252.13 -173.6,301.39 -272.93,650.97 -272.93,1023.76"
         style="fill:#ffdf5a;fill-opacity:1;fill-rule:nonzero;stroke:none"
         id="path24" /><path
         d="m 6006.27,5449.61 c 0,-120.62 -97.78,-218.4 -218.4,-218.4 -120.62,0 -218.4,97.78 -218.4,218.4 0,120.61 97.78,218.39 218.4,218.39 120.62,0 218.4,-97.78 218.4,-218.39"
         style="fill:#ffffff;fill-opacity:1;fill-rule:nonzero;stroke:none"
         id="path26" /><path
         d="m 6862.35,5449.61 c 0,-120.62 -97.77,-218.4 -218.39,-218.4 -120.62,0 -218.4,97.78 -218.4,218.4 0,120.61 97.78,218.39 218.4,218.39 120.62,0 218.39,-97.78 218.39,-218.39"
         style="fill:#ffffff;fill-opacity:1;fill-rule:nonzero;stroke:none"
         id="path28" /><path
         d="m 7697.47,5449.61 c 0,-120.62 -97.78,-218.4 -218.4,-218.4 -120.62,0 -218.4,97.78 -218.4,218.4 0,120.61 97.78,218.39 218.4,218.39 120.62,0 218.4,-97.78 218.4,-218.39"
         style="fill:#ffffff;fill-opacity:1;fill-rule:nonzero;stroke:none"
         id="path30" /></g></g></svg>
