<svg xmlns="http://www.w3.org/2000/svg" xmlns:xlink="http://www.w3.org/1999/xlink" width="93" height="93" viewBox="0 0 93 93"><defs><filter id="a" x="0" y="0" width="93" height="93" filterUnits="userSpaceOnUse"><feOffset dy="10" input="SourceAlpha"/><feGaussianBlur stdDeviation="10" result="b"/><feFlood flood-color="#2c2738" flood-opacity="0.078"/><feComposite operator="in" in2="b"/><feComposite in="SourceGraphic"/></filter></defs><g transform="translate(30.5 20.5)"><g transform="translate(0 0)"><g transform="matrix(1, 0, 0, 1, -30.5, -20.5)" filter="url(#a)"><path d="M-2058,32a15.894,15.894,0,0,1-11.313-4.687A15.9,15.9,0,0,1-2074,16a15.9,15.9,0,0,1,4.686-11.314A15.9,15.9,0,0,1-2058,0a15.9,15.9,0,0,1,11.314,4.686A15.9,15.9,0,0,1-2042,16a15.9,15.9,0,0,1-4.686,11.314A15.9,15.9,0,0,1-2058,32Zm-5.215-19.05v3.677h2.057V27.086h4.325V16.627h2.855l.378-3.673h-3.233V10.79a.883.883,0,0,1,.917-1h2.326V6.221l-3.205-.014a4.057,4.057,0,0,0-4.363,4.364V12.95Z" transform="translate(2104.5 20.5)" fill="#2c2738" stroke="rgba(0,0,0,0)" stroke-miterlimit="10" stroke-width="1"/></g></g></g></svg>