<svg xmlns="http://www.w3.org/2000/svg" xmlns:xlink="http://www.w3.org/1999/xlink" width="92" height="92" viewBox="0 0 92 92"><defs><filter id="a" x="0" y="0" width="92" height="92" filterUnits="userSpaceOnUse"><feOffset dy="10" input="SourceAlpha"/><feGaussianBlur stdDeviation="10" result="b"/><feFlood flood-color="#2c2738" flood-opacity="0.078"/><feComposite operator="in" in2="b"/><feComposite in="SourceGraphic"/></filter></defs><g transform="translate(30 20)"><path d="M12.3,15.06H2.761A2.764,2.764,0,0,1,0,12.3V2.761A2.764,2.764,0,0,1,2.761,0H12.3A2.764,2.764,0,0,1,15.06,2.761V12.3A2.764,2.764,0,0,1,12.3,15.06ZM7.53,2.572A4.958,4.958,0,1,0,12.487,7.53,4.964,4.964,0,0,0,7.53,2.572Zm5.117-1.32A1.172,1.172,0,1,0,13.82,2.424,1.175,1.175,0,0,0,12.647,1.252Z" transform="translate(8.471 8.514)" fill="#2c2738"/><path d="M2.863,0A2.863,2.863,0,1,0,5.725,2.862,2.866,2.866,0,0,0,2.863,0Z" transform="translate(13.137 13.181)" fill="#2c2738"/><g transform="matrix(1, 0, 0, 1, -30, -20)" filter="url(#a)"><path d="M16,32A16,16,0,1,1,32,16,16.018,16.018,0,0,1,16,32ZM11.232,6.418a4.861,4.861,0,0,0-4.856,4.856v9.538a4.861,4.861,0,0,0,4.856,4.856h9.537a4.861,4.861,0,0,0,4.856-4.856V11.274a4.861,4.861,0,0,0-4.856-4.856Z" transform="translate(30 20)" fill="#2c2738"/></g></g></svg>