<svg xmlns="http://www.w3.org/2000/svg" xmlns:xlink="http://www.w3.org/1999/xlink" width="93" height="93" viewBox="0 0 93 93"><defs><filter id="a" x="0" y="0" width="93" height="93" filterUnits="userSpaceOnUse"><feOffset dy="10" input="SourceAlpha"/><feGaussianBlur stdDeviation="10" result="b"/><feFlood flood-color="#2c2738" flood-opacity="0.078"/><feComposite operator="in" in2="b"/><feComposite in="SourceGraphic"/></filter></defs><g transform="translate(30.5 20.5)"><g transform="translate(0 0)"><g transform="matrix(1, 0, 0, 1, -30.5, -20.5)" filter="url(#a)"><path d="M-2016,32a15.9,15.9,0,0,1-11.314-4.687A15.9,15.9,0,0,1-2032,16a15.9,15.9,0,0,1,4.687-11.314A15.9,15.9,0,0,1-2016,0a15.9,15.9,0,0,1,11.314,4.686A15.9,15.9,0,0,1-2000,16a15.9,15.9,0,0,1-4.687,11.314A15.9,15.9,0,0,1-2016,32Zm-7.942-8.9h0a10.841,10.841,0,0,0,5.861,1.718A10.777,10.777,0,0,0-2007.2,13.937c0-.174,0-.34-.012-.495a7.705,7.705,0,0,0,1.909-1.979,7.63,7.63,0,0,1-2.2.6,3.828,3.828,0,0,0,1.682-2.115,7.655,7.655,0,0,1-2.428.928,3.842,3.842,0,0,0-2.793-1.208,3.828,3.828,0,0,0-3.824,3.824,3.815,3.815,0,0,0,.1.872,10.892,10.892,0,0,1-7.883-4,3.824,3.824,0,0,0-.518,1.923,3.823,3.823,0,0,0,1.7,3.183,3.817,3.817,0,0,1-1.732-.479c0,.016,0,.033,0,.049a3.833,3.833,0,0,0,3.068,3.749,3.794,3.794,0,0,1-1.007.134,3.879,3.879,0,0,1-.719-.067,3.823,3.823,0,0,0,3.572,2.656,7.631,7.631,0,0,1-4.75,1.637A7.649,7.649,0,0,1-2023.942,23.1Z" transform="translate(2062.5 20.5)" fill="#2c2738" stroke="rgba(0,0,0,0)" stroke-miterlimit="10" stroke-width="1"/></g></g></g></svg>