<svg xmlns="http://www.w3.org/2000/svg" xmlns:xlink="http://www.w3.org/1999/xlink" width="93" height="93" viewBox="0 0 93 93"><defs><filter id="a" x="0" y="0" width="93" height="93" filterUnits="userSpaceOnUse"><feOffset dy="10" input="SourceAlpha"/><feGaussianBlur stdDeviation="10" result="b"/><feFlood flood-color="#2c2738" flood-opacity="0.078"/><feComposite operator="in" in2="b"/><feComposite in="SourceGraphic"/></filter></defs><g transform="translate(30.5 20.5)"><g transform="matrix(1, 0, 0, 1, -30.5, -20.5)" filter="url(#a)"><path d="M-1932,32a15.894,15.894,0,0,1-11.313-4.687A15.9,15.9,0,0,1-1948,16a15.9,15.9,0,0,1,4.686-11.314A15.894,15.894,0,0,1-1932,0a15.9,15.9,0,0,1,11.314,4.686A15.9,15.9,0,0,1-1916,16a15.9,15.9,0,0,1-4.686,11.314A15.9,15.9,0,0,1-1932,32Zm-.013-26.944a10.879,10.879,0,0,0-4.282.849,11.061,11.061,0,0,0-3.472,2.315,10.794,10.794,0,0,0-2.327,3.46,10.855,10.855,0,0,0-.849,4.282,10.951,10.951,0,0,0,.849,4.295,11.064,11.064,0,0,0,2.327,3.5,10.832,10.832,0,0,0,3.472,2.34,10.864,10.864,0,0,0,4.282.849,10.858,10.858,0,0,0,4.282-.849,10.812,10.812,0,0,0,3.472-2.34,11.244,11.244,0,0,0,2.341-3.5,10.823,10.823,0,0,0,.861-4.295,10.728,10.728,0,0,0-.861-4.282,10.968,10.968,0,0,0-2.341-3.46,11.042,11.042,0,0,0-3.472-2.315A10.873,10.873,0,0,0-1932.013,5.056Zm-.025,19.547h0a9.472,9.472,0,0,1-1.414-2.134,12.142,12.142,0,0,1-.926-2.752h4.758a13.646,13.646,0,0,1-1,2.816,9.247,9.247,0,0,1-1.413,2.07Zm-2.109-.309h0a11.448,11.448,0,0,1-3.392-1.761,8.633,8.633,0,0,1-2.186-2.816h3.755a18.938,18.938,0,0,0,.734,2.521,8.773,8.773,0,0,0,1.091,2.055Zm4.243-.026,0,0a9.121,9.121,0,0,0,1.1-2.055,20.579,20.579,0,0,0,.772-2.495h3.7a9.046,9.046,0,0,1-2.328,2.816,9.879,9.879,0,0,1-3.251,1.735Zm6.071-6.018h-3.961c.017-.515.039-.938.064-1.26s.039-.665.039-1.029c0-.281-.009-.567-.026-.849s-.034-.748-.051-1.364h3.936c.106.425.181.779.231,1.081a7.088,7.088,0,0,1,.076,1.131,7.936,7.936,0,0,1-.076,1.157c-.05.337-.128.717-.231,1.131Zm-5.5,0h-5.323c-.069-.535-.112-.967-.129-1.286s-.026-.667-.026-1,.009-.661.026-.965.06-.716.129-1.247h5.323c.053.551.082.959.09,1.247s.013.6.013.965,0,.7-.013,1-.037.741-.09,1.285Zm-6.918,0h-3.961a7.34,7.34,0,0,1-.244-1.131,9.378,9.378,0,0,1-.065-1.157,8.371,8.371,0,0,1,.065-1.131,7.688,7.688,0,0,1,.244-1.081h3.987c-.051.4-.086.769-.1,1.094-.017.309-.025.685-.025,1.119,0,.376,0,.721.013,1.055.009.361.039.776.09,1.233Zm11.934-5.992h-3.73a17.908,17.908,0,0,0-.771-2.507,9.445,9.445,0,0,0-1.106-2.02,8.518,8.518,0,0,1,3.331,1.633,8.241,8.241,0,0,1,2.275,2.892Zm-5.273,0h-4.783a15.741,15.741,0,0,1,1.041-3.01,5.9,5.9,0,0,1,1.3-1.774,10.429,10.429,0,0,1,1.517,2.2,9.493,9.493,0,0,1,.925,2.584Zm-6.352,0h-3.781a8.26,8.26,0,0,1,2.251-2.906,8.336,8.336,0,0,1,3.3-1.595,9.381,9.381,0,0,0-1.094,2.083,17.421,17.421,0,0,0-.681,2.417Z" transform="translate(1978.5 20.5)" fill="#2c2738" stroke="rgba(0,0,0,0)" stroke-miterlimit="10" stroke-width="1"/></g></g></svg>