<?xml version="1.0" encoding="UTF-8" standalone="no"?>
<!-- Created with Inkscape (http://www.inkscape.org/) -->

<svg
   version="1.1"
   id="svg2"
   xml:space="preserve"
   width="3560"
   height="2666.6667"
   viewBox="0 0 3560 2666.6667"
   sodipodi:docname="5469.eps"
   xmlns:inkscape="http://www.inkscape.org/namespaces/inkscape"
   xmlns:sodipodi="http://sodipodi.sourceforge.net/DTD/sodipodi-0.dtd"
   xmlns="http://www.w3.org/2000/svg"
   xmlns:svg="http://www.w3.org/2000/svg"><defs
     id="defs6" /><sodipodi:namedview
     id="namedview4"
     pagecolor="#ffffff"
     bordercolor="#666666"
     borderopacity="1.0"
     inkscape:pageshadow="2"
     inkscape:pageopacity="0.0"
     inkscape:pagecheckerboard="0" /><g
     id="g8"
     inkscape:groupmode="layer"
     inkscape:label="ink_ext_XXXXXX"
     transform="matrix(1.3333333,0,0,-1.3333333,0,2666.6667)"><g
       id="g10"
       transform="scale(0.1)"><path
         d="M 26700,0 H 0 V 20000 H 26700 V 0"
         style="fill:#ffffff;fill-opacity:1;fill-rule:nonzero;stroke:none"
         id="path12" /><path
         d="M 4049.89,589 C 2234.06,2566.2 -247.66,4607.7 725.484,7691.5 c 640.076,2028.4 2209.476,2593.8 3513.996,3844.6 643.81,617.2 238.88,1515.7 226.93,2407.4 -27.29,2283.7 2521.27,4055.8 4864.32,4018.8 2537.87,-40.1 3636.47,-2591.6 5765.37,-2728.4 836,-12.8 1584.6,477.8 2324.2,867.5 2191.6,1154.8 5669.1,418.4 5844.8,-2374.2 45.4,-1508.2 -1671.1,-3934.5 48.7,-4727.7 1370.6,-632.2 2755.3,-865 3002.3,-3126.1 C 26639.4,2913.9 24930.2,1289.6 22703,528 L 4049.89,589"
         style="fill:#e3eaff;fill-opacity:1;fill-rule:nonzero;stroke:none"
         id="path14" /><path
         d="m 5237.39,11843.5 h 2526.8 c 312.77,0 566.32,-253.6 566.32,-566.3 v -1177.9 c 0,-312.8 -253.55,-566.4 -566.32,-566.4 h -18.75 l 202.8,-679.4 c 8.93,-29.8 -25.59,-53.7 -50.39,-34.8 l -936.22,714.2 H 5237.39 c -312.77,0 -566.32,253.6 -566.32,566.4 v 1177.9 c 0,312.7 253.55,566.3 566.32,566.3"
         style="fill:#ffffff;fill-opacity:1;fill-rule:nonzero;stroke:none"
         id="path16" /><path
         d="M 7763.01,10854.4 H 5337.07 c -154.82,0 -280.32,125.5 -280.32,280.3 v 0 c 0,154.8 125.5,280.3 280.32,280.3 h 2425.94 c 154.82,0 280.32,-125.5 280.32,-280.3 v 0 c 0,-154.8 -125.5,-280.3 -280.32,-280.3"
         style="fill:#e3eaff;fill-opacity:1;fill-rule:nonzero;stroke:none"
         id="path18" /><path
         d="M 7763.01,9998.3 H 5337.07 c -154.82,0 -280.32,125.5 -280.32,280.3 v 0 c 0,154.9 125.5,280.3 280.32,280.3 h 2425.94 c 154.82,0 280.32,-125.4 280.32,-280.3 v 0 c 0,-154.8 -125.5,-280.3 -280.32,-280.3"
         style="fill:#e3eaff;fill-opacity:1;fill-rule:nonzero;stroke:none"
         id="path20" /><path
         d="m 20701,15023 h -2755.6 c -341.2,0 -617.7,-276.5 -617.7,-617.6 v -1284.6 c 0,-341 276.5,-617.6 617.7,-617.6 h 20.4 l -221.2,-740.9 c -9.7,-32.6 27.9,-58.6 55,-38 l 1021,778.9 H 20701 c 341.1,0 617.6,276.6 617.6,617.6 v 1284.6 c 0,341.1 -276.5,617.6 -617.6,617.6"
         style="fill:#ffffff;fill-opacity:1;fill-rule:nonzero;stroke:none"
         id="path22" /><path
         d="m 20677.7,13937.3 h -2774.5 c -137.6,0 -249.2,111.6 -249.2,249.2 v 62.3 c 0,137.6 111.6,249.1 249.2,249.1 h 2774.5 c 137.6,0 249.2,-111.5 249.2,-249.1 v -62.3 c 0,-137.6 -111.6,-249.2 -249.2,-249.2"
         style="fill:#e3eaff;fill-opacity:1;fill-rule:nonzero;stroke:none"
         id="path24" /><path
         d="m 19323.4,13089.7 h -1299.3 c -154.8,0 -280.3,125.5 -280.3,280.3 v 0 c 0,154.8 125.5,280.3 280.3,280.3 h 1299.3 c 154.8,0 280.3,-125.5 280.3,-280.3 v 0 c 0,-154.8 -125.5,-280.3 -280.3,-280.3"
         style="fill:#e3eaff;fill-opacity:1;fill-rule:nonzero;stroke:none"
         id="path26" /><path
         d="m 2629.69,3956.9 c -141.6,0 -236.77,106.8 -236.77,236.7 0,111.5 95.17,218.2 236.77,218.2 123.02,0 218.19,-106.7 218.19,-218.2 0,-127.6 -90.53,-236.7 -218.19,-236.7 z m -318.01,1548.2 c 104.45,78.9 229.8,118.4 376.04,118.4 315.68,0 482.81,-171.8 482.81,-413.2 0,-139.2 -67.31,-280.8 -204.27,-422.4 -174.09,-183.4 -299.43,-273.9 -378.35,-273.9 -76.61,0 -132.31,60.3 -132.31,132.3 0,65 60.35,129.9 164.8,225.1 6.97,7 13.93,14 18.57,16.3 118.38,109.1 155.52,169.4 155.52,243.7 0,92.9 -62.67,143.9 -153.2,143.9 -41.78,0 -90.52,-9.3 -148.56,-27.8 -58.02,-18.6 -99.81,-27.9 -125.34,-27.9 -65,0 -139.27,55.7 -139.27,148.6 0,48.7 27.85,95.1 83.56,136.9"
         style="fill:#ffffff;fill-opacity:1;fill-rule:nonzero;stroke:none"
         id="path28" /><path
         d="m 21484.3,9695.6 c -93.1,0 -155.7,70.3 -155.7,155.8 0,73.2 62.6,143.4 155.7,143.4 80.9,0 143.5,-70.2 143.5,-143.4 0,-84 -59.5,-155.8 -143.5,-155.8 z m -209.1,1018.2 c 68.6,51.9 151.1,77.9 247.3,77.9 207.6,0 317.5,-113 317.5,-271.7 0,-91.6 -44.3,-184.7 -134.4,-277.9 -114.4,-120.6 -196.9,-180.1 -248.8,-180.1 -50.4,0 -87,39.7 -87,87 0,42.8 39.7,85.5 108.4,148.1 4.6,4.6 9.1,9.2 12.2,10.7 77.9,71.7 102.3,111.4 102.3,160.3 0,61 -41.2,94.6 -100.8,94.6 -27.4,0 -59.5,-6.1 -97.7,-18.3 -38.1,-12.2 -65.6,-18.3 -82.4,-18.3 -42.8,0 -91.6,36.6 -91.6,97.7 0,32 18.3,62.6 55,90"
         style="fill:#ffffff;fill-opacity:1;fill-rule:nonzero;stroke:none"
         id="path30" /><path
         d="m 25841.1,5072.3 h -2898.2 c -51.2,0 -92.8,41.5 -92.8,92.8 v 2494.7 c 0,51.3 41.6,92.8 92.8,92.8 51.3,0 92.8,-41.5 92.8,-92.8 V 5257.9 h 2805.4 c 51.3,0 92.8,-41.6 92.8,-92.8 0,-51.3 -41.5,-92.8 -92.8,-92.8"
         style="fill:#ffffff;fill-opacity:1;fill-rule:nonzero;stroke:none"
         id="path32" /><path
         d="m 23162.3,5682.1 c -23.2,0 -46.5,8.7 -64.5,26.1 -36.8,35.6 -37.8,94.3 -2.2,131.2 l 936.7,968.9 c 30.9,32 80,37.5 117.2,13.4 l 443,-287.3 467.1,542.7 c 33.4,38.8 92,43.2 130.8,9.8 38.8,-33.4 43.2,-92 9.8,-130.8 l -519.9,-604.2 c -30.3,-35.1 -81.9,-42.5 -120.8,-17.3 l -446.9,289.9 -883.6,-914.1 c -18.2,-18.8 -42.4,-28.3 -66.7,-28.3"
         style="fill:#ffffff;fill-opacity:1;fill-rule:nonzero;stroke:none"
         id="path34" /><path
         d="m 25202.2,6679.3 -132.1,267.8 -284.5,90.8 633.3,314.5 -216.7,-673.1"
         style="fill:#ffffff;fill-opacity:1;fill-rule:nonzero;stroke:none"
         id="path36" /><path
         d="m 6370.1,15087.4 c -224.3,0 -406.79,-182.4 -406.79,-406.7 0,-224.3 182.49,-406.8 406.79,-406.8 224.3,0 406.79,182.5 406.79,406.8 0,224.3 -182.49,406.7 -406.79,406.7 z m 0,-968.2 c -309.57,0 -561.42,251.9 -561.42,561.5 0,309.5 251.85,561.4 561.42,561.4 309.57,0 561.42,-251.9 561.42,-561.4 0,-309.6 -251.85,-561.5 -561.42,-561.5"
         style="fill:#ffffff;fill-opacity:1;fill-rule:nonzero;stroke:none"
         id="path38" /><path
         d="m 23498.1,10360 c -164.3,0 -298,-133.7 -298,-298 0,-164.3 133.7,-297.9 298,-297.9 164.3,0 297.9,133.6 297.9,297.9 0,164.3 -133.6,298 -297.9,298 z m 0,-709.2 c -226.8,0 -411.2,184.5 -411.2,411.2 0,226.8 184.4,411.2 411.2,411.2 226.7,0 411.2,-184.4 411.2,-411.2 0,-226.7 -184.5,-411.2 -411.2,-411.2"
         style="fill:#e3eaff;fill-opacity:1;fill-rule:nonzero;stroke:none"
         id="path40" /><path
         d="m 1909.73,8033.3 c -147.52,0 -267.53,-120 -267.53,-267.5 0,-147.6 120.01,-267.6 267.53,-267.6 147.52,0 267.54,120 267.54,267.6 0,147.5 -120.02,267.5 -267.54,267.5 z m 0,-636.8 c -203.59,0 -369.23,165.7 -369.23,369.3 0,203.6 165.64,369.2 369.23,369.2 203.6,0 369.23,-165.6 369.23,-369.2 0,-203.6 -165.63,-369.3 -369.23,-369.3"
         style="fill:#ffffff;fill-opacity:1;fill-rule:nonzero;stroke:none"
         id="path42" /><path
         d="m 21702.6,15756.8 c 0,-110.9 -89.9,-200.9 -200.8,-200.9 -111,0 -200.9,90 -200.9,200.9 0,111 89.9,200.9 200.9,200.9 110.9,0 200.8,-89.9 200.8,-200.9"
         style="fill:#ffffff;fill-opacity:1;fill-rule:nonzero;stroke:none"
         id="path44" /><path
         d="m 4095.13,12037.6 c 0,-218.2 -176.84,-395 -394.98,-395 -218.14,0 -394.98,176.8 -394.98,395 0,218.1 176.84,395 394.98,395 218.14,0 394.98,-176.9 394.98,-395"
         style="fill:#e3eaff;fill-opacity:1;fill-rule:nonzero;stroke:none"
         id="path46" /><path
         d="m 22903,16535.7 c 0,-164 -133,-297 -297,-297 -164,0 -296.9,133 -296.9,297 0,164 132.9,296.9 296.9,296.9 164,0 297,-132.9 297,-296.9"
         style="fill:#e3eaff;fill-opacity:1;fill-rule:nonzero;stroke:none"
         id="path48" /><path
         d="m 24356.1,9405.6 c 0,-140 -113.5,-253.5 -253.5,-253.5 -140,0 -253.4,113.5 -253.4,253.5 0,140 113.4,253.4 253.4,253.4 140,0 253.5,-113.4 253.5,-253.4"
         style="fill:#e3eaff;fill-opacity:1;fill-rule:nonzero;stroke:none"
         id="path50" /><path
         d="m 22162.1,15000.2 c 0,-174.5 -141.5,-316 -316,-316 -174.5,0 -316,141.5 -316,316 0,174.5 141.5,316 316,316 174.5,0 316,-141.5 316,-316"
         style="fill:#ffffff;fill-opacity:1;fill-rule:nonzero;stroke:none"
         id="path52" /><path
         d="m 7628.74,15574.1 c 0,-177 -143.51,-320.5 -320.53,-320.5 -177.03,0 -320.53,143.5 -320.53,320.5 0,177 143.5,320.5 320.53,320.5 177.02,0 320.53,-143.5 320.53,-320.5"
         style="fill:#ffffff;fill-opacity:1;fill-rule:nonzero;stroke:none"
         id="path54" /><path
         d="M 22786.9,415.902 H 3814.23 c -61.9,0 -112.07,50.2 -112.07,112.098 v 0 c 0,61.902 50.17,112.102 112.07,112.102 H 22786.9 c 61.9,0 112.1,-50.2 112.1,-112.102 v 0 c 0,-61.898 -50.2,-112.098 -112.1,-112.098"
         style="fill:#201d40;fill-opacity:1;fill-rule:nonzero;stroke:none"
         id="path56" /><path
         d="m 10090.2,10230.5 h 0.4 l 291.2,-1.1 65.9,-687.8 -339.9,-179.5 -362.55,177.5 58.59,689.8 286.36,1.1"
         style="fill:#f37a50;fill-opacity:1;fill-rule:nonzero;stroke:none"
         id="path58" /><path
         d="m 9290.13,10534.1 c 179.24,-447.9 609.7,-696.9 961.47,-556.1 351.8,140.8 491.6,618 312.4,1065.8 -179.2,447.9 -609.71,696.9 -961.48,556.1 -351.76,-140.8 -491.62,-618 -312.39,-1065.8"
         style="fill:#f37a50;fill-opacity:1;fill-rule:nonzero;stroke:none"
         id="path60" /><path
         d="m 10411,10896.9 c 20.8,-29.9 61.9,-37.3 91.7,-16.5 29.9,20.8 37.3,61.8 16.5,91.7 -20.8,29.9 -61.8,37.3 -91.7,16.5 -29.9,-20.8 -37.3,-61.9 -16.5,-91.7"
         style="fill:#000000;fill-opacity:1;fill-rule:nonzero;stroke:none"
         id="path62" /><path
         d="m 9917.5,10695.4 c 22.49,-32.3 66.94,-40.3 99.3,-17.8 32.3,22.5 40.3,66.9 17.8,99.3 -22.5,32.3 -66.94,40.3 -99.28,17.8 -32.34,-22.5 -40.32,-66.9 -17.82,-99.3"
         style="fill:#000000;fill-opacity:1;fill-rule:nonzero;stroke:none"
         id="path64" /><path
         d="m 10311,10791.7 c 89,-70.2 200.4,-155 200.4,-155 0,0 1.2,-107.3 -124.3,-153.9 45.4,41.2 85.2,96 38,159.3 -47.3,63.2 -114.1,149.6 -114.1,149.6"
         style="fill:#de623c;fill-opacity:1;fill-rule:nonzero;stroke:none"
         id="path66" /><path
         d="m 9787.64,10738.3 c -2.53,0 -5.1,0.3 -7.66,0.9 -17.66,4.2 -28.56,22 -24.35,39.6 11.51,48.3 59.77,139.6 160.03,140.1 18.3,-0.2 32.95,-14.6 33.04,-32.8 0.08,-18.1 -14.56,-32.9 -32.72,-33 -74.25,-0.3 -96.18,-88.6 -96.39,-89.5 -3.6,-15.1 -17.08,-25.3 -31.95,-25.3"
         style="fill:#201d40;fill-opacity:1;fill-rule:nonzero;stroke:none"
         id="path68" /><path
         d="m 10342,11036.2 c -4.7,0 -9.5,1.2 -13.8,3.8 -13.1,7.6 -17.4,24.4 -9.8,37.5 1.2,2 30,50.2 84.4,60.3 37.2,6.9 75.6,-5.3 114.2,-36.2 11.8,-9.4 13.7,-26.7 4.3,-38.5 -9.5,-11.8 -26.7,-13.7 -38.5,-4.3 -25.6,20.5 -49.2,29 -70,25.1 -29.6,-5.5 -47,-33.8 -47.1,-34.1 -5.1,-8.7 -14.3,-13.6 -23.7,-13.6"
         style="fill:#201d40;fill-opacity:1;fill-rule:nonzero;stroke:none"
         id="path70" /><path
         d="m 9045.37,10868.6 c -151.6,431.6 217.68,679.7 217.68,679.7 0,0 -99.08,8.9 -110.91,148 74.16,-23.1 157.29,-21.5 230.35,5 492.22,178.2 831.11,175.8 831.11,-34.8 0,-75 325.1,-23.6 297.8,-527.9 2,35.6 -114.2,242.9 -224,263.6 -110.1,20.8 -10.6,-126 -240,-157.5 -231.47,-31.8 -401.66,24.4 -543.04,-106.1 -110.63,-113.8 -138.06,-693.2 -121.23,-728 -38.57,79.9 -271.14,268.3 -337.76,458"
         style="fill:#201d40;fill-opacity:1;fill-rule:nonzero;stroke:none"
         id="path72" /><path
         d="m 10631.8,10791.7 c 0,0 20.9,-262.8 -17,-344.1 -39.4,105.4 -124.1,-6.3 -203.6,-16.8 -192.2,-25.4 -538.89,38.7 -573.25,-249.6 -234.84,-74.3 -454.82,428.4 -454.82,428.4 -13.5,-561.6 397.47,-880.5 988.87,-787.1 389.7,61.6 425.8,604.1 259.8,969.2"
         style="fill:#201d40;fill-opacity:1;fill-rule:nonzero;stroke:none"
         id="path74" /><path
         d="m 10226.7,10253.2 c -38,9.1 -77.6,24.6 -118.6,46.5 -10.7,5.7 -14.7,19 -9,29.7 5.7,10.7 19,14.7 29.6,9 91,-48.6 172.6,-62.5 242.4,-41.1 86.4,26.3 125.9,99.1 126.3,99.8 5.6,10.7 18.9,14.8 29.6,9.2 10.6,-5.6 14.8,-18.8 9.2,-29.5 -1.9,-3.7 -47.5,-89.2 -151.5,-121.2 -48.7,-15.1 -101.6,-15.8 -158,-2.4"
         style="fill:#de623c;fill-opacity:1;fill-rule:nonzero;stroke:none"
         id="path76" /><path
         d="m 9377.57,10605.9 c 98.91,-55.6 142.23,-166.2 96.77,-247.1 -45.46,-81 -162.5,-101.6 -261.41,-46 -98.9,55.5 -142.22,166.2 -96.76,247.1 45.46,81 162.5,101.5 261.4,46"
         style="fill:#f37a50;fill-opacity:1;fill-rule:nonzero;stroke:none"
         id="path78" /><path
         d="m 9362.53,10363.4 c 3.06,2.2 5.67,5 7.56,8.5 27.19,50.4 22.74,101.7 -11.91,137.3 -35.48,36.4 -92.75,46.9 -136.18,24.9 -12.22,-6.2 -17.11,-21.1 -10.93,-33.3 6.19,-12.2 21.11,-17.1 33.34,-10.9 23.79,12 58.15,5.3 78.23,-15.3 19.28,-19.8 20.64,-47.9 3.81,-79.1 -6.51,-12 -2.02,-27.1 10.03,-33.6 8.55,-4.6 18.6,-3.7 26.05,1.5"
         style="fill:#de623c;fill-opacity:1;fill-rule:nonzero;stroke:none"
         id="path80" /><path
         d="m 10427.2,1044.8 c 62,168.3 194.4,187 194.4,187 257.5,-355.3 889.9,-137.2 868.9,-617.8 -961.6,6.199 -1361.2,0 -1361.2,0 1.2,110.398 20.3,372.301 42.4,474.9 l 50.2,-9.2 205.3,-34.9"
         style="fill:#000000;fill-opacity:1;fill-rule:nonzero;stroke:none"
         id="path82" /><path
         d="m 8988.45,1035.5 c 61.97,168.3 194.44,187 194.44,187 257.5,-355.301 889.81,-137.3 868.91,-617.801 -961.61,6.203 -1361.26,0 -1361.26,0 1.27,110.403 20.28,372.301 42.46,474.901 l 50.11,-9.2 205.34,-34.9"
         style="fill:#000000;fill-opacity:1;fill-rule:nonzero;stroke:none"
         id="path84" /><path
         d="m 11066.8,6655.7 c 0,0 156.1,-2277.1 92.7,-2783.3 -63.5,-506.2 -288,-1155.3 -262.6,-2829.7 -313.5,-78.497 -767.6,0 -767.6,0 0,0 -67.4,1893.3 264,2739 -134.7,821.5 -567.12,2703 -567.12,2703 l 1240.62,171"
         style="fill:#201d40;fill-opacity:1;fill-rule:nonzero;stroke:none"
         id="path86" /><path
         d="m 10473.4,6593.5 c 0,0 -315.2,-2556.4 -469.5,-3041.3 -154.36,-484.9 -455.32,-894.9 -734.7,-2544.4 -322.15,-16.097 -622.14,0 -622.14,0 0,0 43.48,2092.4 545.21,2568.2 16.98,833 -81.13,3001 -81.13,3001 l 1362.26,16.5"
         style="fill:#2c2858;fill-opacity:1;fill-rule:nonzero;stroke:none"
         id="path88" /><path
         d="m 9020.14,9494.8 c 0,0 547.54,191.6 730.12,103.7 567.34,-273.1 697.44,0 697.44,0 181.3,-15.6 728.6,-103.7 728.6,-103.7 0,-611.2 40.8,-1224.5 29.7,-1687 -7.9,-402.7 68.9,-1498.8 68.9,-1498.8 0,0 -603.7,-158.2 -1174.7,-162.4 -571.11,3.8 -1152.34,156 -1152.34,156 0,0 30.51,1110.1 55.87,1522.7 -8.24,462.5 16.41,1059.9 16.41,1669.5"
         style="fill:#e62552;fill-opacity:1;fill-rule:nonzero;stroke:none"
         id="path90" /><path
         d="m 12149.6,8586.4 c -226,539.2 -896.7,882.2 -973.3,908.4 l -155.6,-692.3 c 322.2,-190.5 556.1,-396.6 556.1,-396.6 -39.7,-192.8 -33.1,-381.8 -144.6,-625.6 0,0 96.9,133.7 216.4,54.6 116.2,-76.9 330,80.1 330,80.1 0,0 343.6,259.6 171,671.4"
         style="fill:#c4204a;fill-opacity:1;fill-rule:nonzero;stroke:none"
         id="path92" /><path
         d="m 12023.6,7223.7 c 3.9,-1.2 7.9,-1.9 11.8,-2.3 h 12.8 c 23.6,2.5 44.6,18.6 52,42.6 l 602.5,1942.5 c 1.3,3.9 2,7.9 2.4,11.8 0.3,2.6 0.2,5.1 0.1,7.6 0,1.6 0.2,3.1 0,4.7 -0.1,1.3 -0.5,2.6 -0.8,4 -3.6,22 -19,41.3 -41.9,48.5 -3.7,1.1 -7.5,2 -11.4,2.4 -4.5,0.5 -8.8,0.5 -13.1,0 h -1516.7 l -607.8,-2064.1 h 1511.2 l -1.1,2.3"
         style="fill:#95a6db;fill-opacity:1;fill-rule:nonzero;stroke:none"
         id="path94" /><path
         d="m 11135.1,9283.1 c -32.3,10 -66.6,-8 -76.6,-40.3 l -598.7,-1937.6 -1.4,-4.6 c -9.9,-32.1 8,-66.2 40,-76.3 l 0.1,-0.2 c 32.3,-10 66.6,8 76.6,40.3 l 600.3,1942.1 c 10,32.3 -8,66.6 -40.3,76.6"
         style="fill:#768fdb;fill-opacity:1;fill-rule:nonzero;stroke:none"
         id="path96" /><path
         d="m 12281,8050.7 c 5.6,3.8 11.8,6.2 18.1,7.9 -0.6,1 -1.3,1.9 -2,2.8 -37.7,56.9 -35.2,125 5.6,152.1 6.7,4.4 14.1,7.3 21.8,9.1 -10.6,42.1 -1.1,82.4 28.1,101.7 11.6,7.6 25,11.1 39.1,10.9 -13.3,41.4 -2.7,84.9 29.9,106.5 40.9,27.1 100.1,9.6 132.3,-39 32.2,-48.6 25.2,-109.9 -15.6,-136.9 -10.4,-6.9 -21.9,-10.8 -33.9,-12.2 27.2,-53 21.7,-111 -15.2,-135.4 -6.7,-4.5 -14,-7.4 -21.8,-9.2 10.7,-42.1 1.1,-82.3 -28,-101.6 -10.8,-7.2 -23.1,-10.6 -36.2,-11 13.5,-36.2 5,-75.2 -23.7,-94.3 -34.5,-22.8 -84.5,-8.1 -111.7,33 -27.2,41 -21.3,92.8 13.2,115.6"
         style="fill:#f37a50;fill-opacity:1;fill-rule:nonzero;stroke:none"
         id="path98" /><path
         d="m 10416.3,8173.5 138.3,80.1 c 0,0 38.2,196.1 260.3,200.8 -25.5,-82.2 -62.1,-200.8 -62.1,-200.8 0,0 109.3,-84.8 368.5,60.4 253.3,56.9 145.1,-127.8 229.1,-141.1 123.9,-19.6 -90.3,-263.1 -343.3,-300.3 -327.4,-48.2 -366.2,18.8 -366.2,18.8 l -185.2,-64.7 -39.4,346.8"
         style="fill:#f37a50;fill-opacity:1;fill-rule:nonzero;stroke:none"
         id="path100" /><path
         d="m 9136.89,7964 c 462.12,32.3 1250.41,260.5 1250.41,260.5 126.2,-193.5 91.3,-450.5 91.3,-450.5 -717.65,-629.2 -1797.73,-832.6 -2129.12,-681.1 -302.55,138.2 -88.97,1980 670.66,2401.9 v 0 C 9280.56,9054.1 9136.89,7964 9136.89,7964"
         style="fill:#8a284c;fill-opacity:1;fill-rule:nonzero;stroke:none"
         id="path102" /><path
         d="m 16584.8,1215.6 c -257.5,-343.401 -889.8,-132.7 -868.9,-597.198 961.6,5.996 1361.2,0 1361.2,0 -1.2,106.7 -20.2,359.899 -42.4,459.098 l -449.9,138.1"
         style="fill:#000000;fill-opacity:1;fill-rule:nonzero;stroke:none"
         id="path104" /><path
         d="m 18023.5,1206.7 c -257.4,-343.501 -889.8,-132.8 -868.9,-597.302 961.7,6.004 1361.3,0 1361.3,0 -1.3,106.704 -20.3,359.903 -42.5,459.102 l -449.9,138.2"
         style="fill:#000000;fill-opacity:1;fill-rule:nonzero;stroke:none"
         id="path106" /><path
         d="m 16139.6,6459.2 c 0,0 -156.1,-2201.4 -92.6,-2690.8 63.4,-489.4 288,-1116.8 262.5,-2735.6 313.5,-75.902 767.6,0 767.6,0 0,0 67.4,1830.4 -264,2648 134.8,794.1 567.2,2613 567.2,2613 l -1240.7,165.4"
         style="fill:#201d40;fill-opacity:1;fill-rule:nonzero;stroke:none"
         id="path108" /><path
         d="m 16733,6399 c 0,0 315.3,-2471.4 469.6,-2940.1 154.3,-468.8 455.3,-865.1 734.6,-2459.798 322.2,-15.602 706.1,63.698 706.1,63.698 0,0 -127.4,1959.1 -629.1,2419.1 -17,805.3 81.1,2901.2 81.1,2901.2 L 16733,6399"
         style="fill:#2c2858;fill-opacity:1;fill-rule:nonzero;stroke:none"
         id="path110" /><path
         d="m 18017,10442.2 c -170.9,-427 -581.3,-664.3 -916.7,-530.1 -335.3,134.2 -468.7,589.1 -297.8,1016.1 170.9,427 581.3,664.4 916.6,530.2 335.4,-134.2 468.7,-589.2 297.9,-1016.2"
         style="fill:#f37a50;fill-opacity:1;fill-rule:nonzero;stroke:none"
         id="path112" /><path
         d="m 16948.3,10788.1 c -19.8,-28.5 -58.9,-35.5 -87.4,-15.7 -28.5,19.8 -35.5,59 -15.7,87.4 19.8,28.5 58.9,35.5 87.4,15.7 28.5,-19.8 35.5,-58.9 15.7,-87.4"
         style="fill:#000000;fill-opacity:1;fill-rule:nonzero;stroke:none"
         id="path114" /><path
         d="m 17418.8,10596 c -21.4,-30.8 -63.8,-38.4 -94.6,-16.9 -30.8,21.4 -38.4,63.8 -17,94.6 21.4,30.8 63.8,38.4 94.7,17 30.8,-21.4 38.4,-63.8 16.9,-94.7"
         style="fill:#000000;fill-opacity:1;fill-rule:nonzero;stroke:none"
         id="path116" /><path
         d="m 17043.7,10687.8 c -84.9,-66.9 -191.1,-147.7 -191.1,-147.7 0,0 -1.1,-102.4 118.6,-146.8 -43.3,39.3 -81.3,91.6 -36.3,151.9 45.1,60.3 108.8,142.6 108.8,142.6"
         style="fill:#de623c;fill-opacity:1;fill-rule:nonzero;stroke:none"
         id="path118" /><path
         d="m 17542.6,10636.9 c -14.1,0 -27,9.7 -30.4,24.1 -0.9,3.4 -21.9,85.1 -91.9,85.4 -17.3,0.1 -31.3,14.2 -31.2,31.5 0.1,17.3 14.3,31.3 31.5,31.2 95.6,-0.5 141.6,-87.5 152.6,-133.5 4,-16.8 -6.4,-33.8 -23.2,-37.8 -2.5,-0.6 -4.9,-0.9 -7.4,-0.9"
         style="fill:#000000;fill-opacity:1;fill-rule:nonzero;stroke:none"
         id="path120" /><path
         d="m 17014.1,10921 c -8.9,0 -17.6,4.5 -22.5,12.7 -0.4,0.8 -17.3,27.8 -45.3,32.8 -19.8,3.5 -42.1,-4.6 -66.4,-24 -11.2,-9 -27.7,-7.2 -36.7,4.1 -9,11.3 -7.2,27.7 4.1,36.7 36.8,29.5 73.4,41.1 108.8,34.5 51.9,-9.6 79.4,-55.5 80.5,-57.5 7.3,-12.4 3.1,-28.4 -9.3,-35.7 -4.2,-2.5 -8.7,-3.6 -13.2,-3.6"
         style="fill:#000000;fill-opacity:1;fill-rule:nonzero;stroke:none"
         id="path122" /><path
         d="m 17897.7,10397.7 c -123.5,397.3 32.7,608.4 32.7,608.4 -106.1,21.2 -147.3,-15.5 -147.3,-15.5 -57.9,118.8 -13,204 -13,204 -219.3,85.5 -328.5,-56.5 -526.4,-104.4 -270.9,-65.5 -605.6,42.6 -636.9,373.3 -4.5,47.9 48.1,78.9 88.1,52.1 37.1,-24.8 86.3,-44.8 147.6,-43.1 0,0 -56.8,64 -59.7,152.6 -1.6,48.8 55.7,75.2 93.2,43.9 56.3,-46.8 160.9,-91.1 347.2,-56.2 124,23.2 407.8,221.8 584.7,183 144.5,-31.7 259.2,-154.7 308.6,-330.8 0,0 355.3,-36.8 391,-427.9 35,-384.2 -410.1,-679 -410.1,-679 l -199.7,39.6"
         style="fill:#000000;fill-opacity:1;fill-rule:nonzero;stroke:none"
         id="path124" /><path
         d="m 17849.3,10463.9 c -94.1,-53.3 -135,-158.9 -91.4,-236 43.7,-76.9 155.3,-96.1 249.4,-42.8 94.1,53.3 135,158.9 91.4,236 -43.7,77 -155.3,96.2 -249.4,42.8"
         style="fill:#f37a50;fill-opacity:1;fill-rule:nonzero;stroke:none"
         id="path126" /><path
         d="m 17864.5,10232.8 c -2.9,2.1 -5.4,4.8 -7.2,8.1 -26.1,47.9 -22.1,96.8 10.8,130.9 33.7,34.9 88.3,45.1 129.8,24.3 11.6,-5.9 16.4,-20.1 10.5,-31.8 -5.8,-11.6 -20.1,-16.4 -31.7,-10.5 -22.8,11.4 -55.5,4.9 -74.6,-14.9 -18.3,-18.9 -19.5,-45.7 -3.3,-75.3 6.2,-11.5 2,-25.9 -9.5,-32.1 -8.1,-4.5 -17.7,-3.6 -24.8,1.3"
         style="fill:#de623c;fill-opacity:1;fill-rule:nonzero;stroke:none"
         id="path128" /><path
         d="m 16872.1,10256.8 c -9.3,15.1 3.8,33.8 21.1,30.2 43.9,-9.3 116.6,-23.1 186.6,-29.3 70.1,-6.3 144.1,-5.6 188.9,-4.3 17.7,0.6 27.2,-20.2 15.5,-33.4 -36.1,-40.5 -108.5,-100.5 -215.8,-90.9 -107.4,9.6 -168,81.4 -196.3,127.7"
         style="fill:#ffffff;fill-opacity:1;fill-rule:nonzero;stroke:none"
         id="path130" /><path
         d="m 16420.7,9697.4 c 0,0 16.1,43.5 -1367.8,32.3 l -371,-438.5 c 384,-307.9 1670,-362.6 1670,-362.6 l 68.8,768.8"
         style="fill:#201d40;fill-opacity:1;fill-rule:nonzero;stroke:none"
         id="path132" /><path
         d="m 16923.6,9733 436.4,40.8 422.3,-117.8 -475.8,-489.6 -382.9,566.6"
         style="fill:#95a6db;fill-opacity:1;fill-rule:nonzero;stroke:none"
         id="path134" /><path
         d="m 17074.9,9508.3 c 177.9,-146 214.2,-246.9 592.1,-51.7 l 56.6,580.9 -615.1,48.5 -33.6,-577.7"
         style="fill:#f37a50;fill-opacity:1;fill-rule:nonzero;stroke:none"
         id="path136" /><path
         d="m 17894.4,9422.2 v 0 l -129.4,51.2 17.3,182.6 -358.8,-288.1 -101.3,-16.1 -96.8,33.9 -301.8,347.3 -15.5,-182.8 -114.1,-22.9 v 0 l -411.6,-66.6 -49,-2284.5 L 16171,6399 c 546.2,-181.7 1156.9,-227 1757.3,-144.2 l -20.2,780.2 426.5,2232.6 -440.2,154.6"
         style="fill:#95a6db;fill-opacity:1;fill-rule:nonzero;stroke:none"
         id="path138" /><path
         d="m 17243.3,9121 -257.8,-1744.2 142.7,-198.4 186.2,143 63.3,1785.1 -134.4,14.5"
         style="fill:#2c2858;fill-opacity:1;fill-rule:nonzero;stroke:none"
         id="path140" /><path
         d="m 17227.9,9326.9 94.3,24.9 96,-41.9 -40.6,-206.8 -135.2,12.1 -14.5,211.7"
         style="fill:#2c2858;fill-opacity:1;fill-rule:nonzero;stroke:none"
         id="path142" /><path
         d="M 16917.6,9718.4 16852.9,7611.5 16574,6254.8 c 0,0 -441,44.4 -712,302.3 l 347.3,1021.3 118.7,2134.4 589.6,5.6"
         style="fill:#2c2858;fill-opacity:1;fill-rule:nonzero;stroke:none"
         id="path144" /><path
         d="m 16917.6,9718.4 -64.3,-2078.7 -321,1593.1 z"
         style="fill:#494c7f;fill-opacity:1;fill-rule:nonzero;stroke:none"
         id="path146" /><path
         d="m 17815.3,9583.7 -572.7,-3415.8 c 0,0 760,-93.4 1072.5,112.1 l -169.6,1122.9 207.3,1906.3 -537.5,274.5"
         style="fill:#2c2858;fill-opacity:1;fill-rule:nonzero;stroke:none"
         id="path148" /><path
         d="m 17815.3,9583.7 -334.7,-2002.1 599.3,1510.5 z"
         style="fill:#494c7f;fill-opacity:1;fill-rule:nonzero;stroke:none"
         id="path150" /><path
         d="m 14031,11592.4 c 30.4,-106.5 39.5,-221.5 174.7,-278.9 0,0 -20,-353.7 -5,-643.8 0,0 327.1,368.9 327,369.2 -18.7,116.9 -33.9,338 -15.9,463.6 4.7,32.6 11.1,65 16.2,97.7 14.1,79.3 37.4,160.5 -10.9,256.2 -186.7,369.8 -123.9,491.5 -149.6,509.5 -41.8,18.5 -140,-56 -84.5,-237.7 53.8,-175.8 40.5,-262.1 40.5,-262.1 0,0 -141.1,26.6 -191.1,-22.7 -22.8,-22.5 -137,-126.3 -101.4,-251"
         style="fill:#f37a50;fill-opacity:1;fill-rule:nonzero;stroke:none"
         id="path152" /><path
         d="m 14106.9,11093.9 c 190.6,63.6 291,92.2 439.3,92.2 350.5,-1044.5 600.3,-1438.1 496.1,-1738 -86.9,-250 -361.8,-230 -496.1,-42.6 -177.4,247.1 -334.3,1185.9 -439.3,1688.4"
         style="fill:#201d40;fill-opacity:1;fill-rule:nonzero;stroke:none"
         id="path154" /><path
         d="m 18352.8,9309.2 1104.2,-1727.6 1311.5,-740.5 -404.2,-402.5 -1315.8,576.8 -903,1274.1 207.3,1019.7"
         style="fill:#201d40;fill-opacity:1;fill-rule:nonzero;stroke:none"
         id="path156" /><path
         d="m 17322.2,9351.8 c 0,0 -162.4,-164 -311.8,-206 l -176.6,467 89.8,120.2 398.6,-381.2"
         style="fill:#ffffff;fill-opacity:1;fill-rule:nonzero;stroke:none"
         id="path158" /><path
         d="m 17322.2,9351.8 c 0,0 92.6,-159.1 270.2,-258.2 l 257,426.8 -67.1,135.6 -460.1,-304.2"
         style="fill:#ffffff;fill-opacity:1;fill-rule:nonzero;stroke:none"
         id="path160" /><path
         d="M 18524.1,4433.6 H 8882.35 c -226.61,0 -410.31,123.6 -410.31,276.1 v 0 c 0,152.5 183.7,276.1 410.31,276.1 h 9641.75 c 226.6,0 410.4,-123.6 410.4,-276.1 v 0 c 0,-152.5 -183.8,-276.1 -410.4,-276.1"
         style="fill:#95a6db;fill-opacity:1;fill-rule:nonzero;stroke:none"
         id="path162" /><path
         d="m 12496,542.902 v 0 c -103.3,0 -165.4,114.7 -109,201.2 L 14932.8,4645.4 15150.7,4503.2 12605,601.898 c -24,-36.796 -65,-58.996 -109,-58.996"
         style="fill:#95a6db;fill-opacity:1;fill-rule:nonzero;stroke:none"
         id="path164" /><path
         d="m 14910.5,542.902 v 0 c 103.3,0 165.4,114.7 108.9,201.2 l -2545.7,3901.298 -218,-142.2 2545.8,-3901.302 c 24,-36.796 65,-58.996 109,-58.996"
         style="fill:#95a6db;fill-opacity:1;fill-rule:nonzero;stroke:none"
         id="path166" /><path
         d="m 18907.9,604.699 v 0 c -68.8,0 -124.6,55.801 -124.6,124.602 V 2937.6 h 249.3 V 729.301 c 0,-68.801 -55.8,-124.602 -124.7,-124.602"
         style="fill:#768fdb;fill-opacity:1;fill-rule:nonzero;stroke:none"
         id="path168" /><path
         d="m 19782.5,604.699 v 0 c -68.8,0 -124.6,55.801 -124.6,124.602 V 2937.6 h 249.2 V 729.301 c 0,-68.801 -55.8,-124.602 -124.6,-124.602"
         style="fill:#768fdb;fill-opacity:1;fill-rule:nonzero;stroke:none"
         id="path170" /><path
         d="m 20930.1,604.699 v 0 c -68.8,0 -124.7,55.801 -124.7,124.602 V 2937.6 h 249.3 V 729.301 c 0,-68.801 -55.8,-124.602 -124.6,-124.602"
         style="fill:#768fdb;fill-opacity:1;fill-rule:nonzero;stroke:none"
         id="path172" /><path
         d="m 21804.6,604.699 v 0 c -68.8,0 -124.6,55.801 -124.6,124.602 V 2937.6 h 249.3 V 729.301 c 0,-68.801 -55.8,-124.602 -124.7,-124.602"
         style="fill:#768fdb;fill-opacity:1;fill-rule:nonzero;stroke:none"
         id="path174" /><path
         d="M 20425.6,6214.9 V 3587 c 0,-29.9 -24.2,-54.1 -54.1,-54.1 h -1629.3 c -164.4,0 -297.7,-133.3 -297.7,-297.7 v 0 c 0,-164.4 133.3,-297.6 297.7,-297.6 h 1683.4 297.7 c 164.4,0 297.6,133.2 297.6,297.6 v 297.7 2682 c 0,164.3 -133.2,297.6 -297.6,297.6 v 0 c -164.4,0 -297.7,-133.3 -297.7,-297.6"
         style="fill:#95a6db;fill-opacity:1;fill-rule:nonzero;stroke:none"
         id="path176" /><path
         d="m 22011.5,3484.6 h -1288.2 v 3027.9 h 1288.2 V 3484.6"
         style="fill:#95a6db;fill-opacity:1;fill-rule:nonzero;stroke:none"
         id="path178" /><path
         d="M 21713.8,6214.9 V 3587 c 0,-29.9 -24.2,-54.1 -54.1,-54.1 h -1629.3 c -164.4,0 -297.7,-133.3 -297.7,-297.7 v 0 c 0,-164.4 133.3,-297.6 297.7,-297.6 h 1683.4 297.7 c 164.3,0 297.6,133.2 297.6,297.6 v 297.7 2682 c 0,164.3 -133.3,297.6 -297.6,297.6 v 0 c -164.4,0 -297.7,-133.3 -297.7,-297.6"
         style="fill:#768fdb;fill-opacity:1;fill-rule:nonzero;stroke:none"
         id="path180" /><path
         d="m 8376.51,604.699 v 0 c 68.84,0 124.64,55.801 124.64,124.602 V 2937.6 H 8251.88 V 729.301 c 0,-68.801 55.8,-124.602 124.63,-124.602"
         style="fill:#768fdb;fill-opacity:1;fill-rule:nonzero;stroke:none"
         id="path182" /><path
         d="m 7501.95,604.699 v 0 c 68.84,0 124.63,55.801 124.63,124.602 V 2937.6 H 7377.31 V 729.301 c 0,-68.801 55.81,-124.602 124.64,-124.602"
         style="fill:#768fdb;fill-opacity:1;fill-rule:nonzero;stroke:none"
         id="path184" /><path
         d="m 6354.38,604.699 v 0 c 68.83,0 124.64,55.801 124.64,124.602 V 2937.6 H 6229.75 V 729.301 c 0,-68.801 55.8,-124.602 124.63,-124.602"
         style="fill:#768fdb;fill-opacity:1;fill-rule:nonzero;stroke:none"
         id="path186" /><path
         d="m 5479.82,604.699 v 0 c 68.83,0 124.63,55.801 124.63,124.602 V 2937.6 H 5355.19 V 729.301 c 0,-68.801 55.8,-124.602 124.63,-124.602"
         style="fill:#768fdb;fill-opacity:1;fill-rule:nonzero;stroke:none"
         id="path188" /><path
         d="M 6858.84,6214.9 V 3587 c 0,-29.9 24.24,-54.1 54.14,-54.1 h 1629.31 c 164.39,0 297.65,-133.3 297.65,-297.7 v 0 c 0,-164.4 -133.26,-297.6 -297.65,-297.6 H 6858.84 6561.19 c -164.38,0 -297.64,133.2 -297.64,297.6 v 297.7 2682 c 0,164.3 133.26,297.6 297.64,297.6 h 0.01 c 164.38,0 297.64,-133.3 297.64,-297.6"
         style="fill:#95a6db;fill-opacity:1;fill-rule:nonzero;stroke:none"
         id="path190" /><path
         d="M 5273,3484.6 H 6561.2 V 6512.5 H 5273 V 3484.6"
         style="fill:#95a6db;fill-opacity:1;fill-rule:nonzero;stroke:none"
         id="path192" /><path
         d="M 5570.64,6214.9 V 3587 c 0,-29.9 24.25,-54.1 54.15,-54.1 H 7254.1 c 164.39,0 297.64,-133.3 297.64,-297.7 v 0 c 0,-164.4 -133.25,-297.6 -297.64,-297.6 H 5570.64 5273 c -164.38,0 -297.64,133.2 -297.64,297.6 v 297.7 2682 c 0,164.3 133.26,297.6 297.64,297.6 v 0 c 164.39,0 297.64,-133.3 297.64,-297.6"
         style="fill:#768fdb;fill-opacity:1;fill-rule:nonzero;stroke:none"
         id="path194" /><path
         d="m 19762.6,7219.1 c -274.9,99.2 -699.5,316 -417.3,712.2 282.2,396.3 275,223.3 173.4,704.6 -101.6,481.3 240.6,859.9 566.9,764.1 326.2,-95.8 409.5,-359.8 809.4,-293 399.9,66.8 732.2,-307.2 581.7,-631.6 -150.5,-324.3 -214.8,-480.4 -74.1,-660 140.8,-179.5 775,-372.9 510.5,-803 -264.5,-430.1 -385.8,-403.7 -293.9,-624.1 91.9,-220.5 -120,-471.5 -487.7,-437.2 -367.7,34.2 -700.5,173.3 -835.3,583.8 -134.9,410.5 -533.6,684.2 -533.6,684.2"
         style="fill:#2c2858;fill-opacity:1;fill-rule:nonzero;stroke:none"
         id="path196" /><path
         d="m 18790.1,967.5 -217.2,-64.898 -163.6,167.298 c 7.8,11.6 0.3,123.6 -25,243 l 405.8,67.3 c 16.2,-123.6 0,-287.8 0,-412.7"
         style="fill:#f37a50;fill-opacity:1;fill-rule:nonzero;stroke:none"
         id="path198" /><path
         d="m 18574.5,941.703 c -51.7,135.597 -162.1,150.697 -162.1,150.697 -214.6,-286.201 -741.6,-110.599 -724.1,-497.701 801.4,4.903 1134.4,0 1134.4,0 -1,88.903 -16.9,299.903 -35.4,382.5 l -41.7,-7.398 -171.1,-28.098"
         style="fill:#e62552;fill-opacity:1;fill-rule:nonzero;stroke:none"
         id="path200" /><path
         d="m 17345.4,927.102 -226.2,-15.399 -130.1,138.497 c 10.2,9.6 34.8,181.1 36.4,303.1 l 381.2,-16.9 c -11.4,-124.2 -33.9,-287.4 -61.3,-409.298"
         style="fill:#f37a50;fill-opacity:1;fill-rule:nonzero;stroke:none"
         id="path202" /><path
         d="m 17143.8,941.703 c -51.7,135.597 -162.1,150.697 -162.1,150.697 -214.6,-286.201 -741.6,-110.599 -724.1,-497.701 801.4,4.903 1134.4,0 1134.4,0 -1,88.903 -16.9,299.903 -35.4,382.5 l -41.7,-7.398 -171.1,-28.098"
         style="fill:#e62552;fill-opacity:1;fill-rule:nonzero;stroke:none"
         id="path204" /><path
         d="m 19632.6,4709.1 c -617.4,-83.1 -2356.7,-727.7 -2453.7,-844.3 -200.2,-240.9 -94.7,-1551.5 -189.8,-2633 l 505.6,-29.8 c 242.2,880.7 222.9,1260.8 332.4,2271 0,0 1987.1,-148.8 2705.1,335.9 740.4,499.7 -400.3,1018.6 -899.6,900.2"
         style="fill:#0e6a41;fill-opacity:1;fill-rule:nonzero;stroke:none"
         id="path206" /><path
         d="m 18828,5993.1 c 145.9,-24.9 202.1,-142 237.3,-357.6 -555.9,-327.5 -1381.7,-350.8 -1381.7,-350.8 l -263.2,130.2 c 0,0 662.2,238.5 1407.6,578.2"
         style="fill:#de623c;fill-opacity:1;fill-rule:nonzero;stroke:none"
         id="path208" /><path
         d="M 20348,6609.3 C 20104.7,6255.8 19172.8,5495.6 19018.5,5471.7 l -186.9,523 c 0,0 909.9,984.9 1075.6,1158.9 286.1,302.1 839.1,32.1 440.8,-544.3"
         style="fill:#de623c;fill-opacity:1;fill-rule:nonzero;stroke:none"
         id="path210" /><path
         d="m 19323.1,6665.9 c 195.1,210.2 449.2,684.6 779.8,650.9 330.6,-33.7 354.5,-384.6 254.9,-573.5 -99.7,-188.9 -443.8,-654.5 -443.8,-654.5 l -590.9,577.1"
         style="fill:#ff4f78;fill-opacity:1;fill-rule:nonzero;stroke:none"
         id="path212" /><path
         d="m 19383,5776.6 c 140.2,-48.3 220.2,-489.7 180.8,-523.5 -600.8,-237.9 -1850.8,19.4 -1850.8,19.4 l -66.4,226.4 c 0,0 946.5,58 1736.4,277.7"
         style="fill:#f37a50;fill-opacity:1;fill-rule:nonzero;stroke:none"
         id="path214" /><path
         d="m 21359.8,4338 c -137.4,708.8 -196.6,960 -253.7,1293.6 -141,824.5 273.7,1403.9 -437.3,1799 l -518.2,-83.5 c -418.9,-440.8 -676.9,-840.9 -699,-1117.3 -30.4,-356.5 323.4,-550 323.4,-550 l -142.4,-970.7 c 0,0 -33.4,-79.2 550.9,-189.6 584.2,-110.4 1176.3,-181.5 1176.3,-181.5"
         style="fill:#e62552;fill-opacity:1;fill-rule:nonzero;stroke:none"
         id="path216" /><path
         d="m 20933.9,6508.8 c -243.3,-357.6 -1282.8,-1266.4 -1439,-1274.5 l -111.9,542.3 c 0,0 944.4,1106.7 1110,1282.8 286.2,305.5 839.1,32.4 440.9,-550.6"
         style="fill:#f37a50;fill-opacity:1;fill-rule:nonzero;stroke:none"
         id="path218" /><path
         d="m 19940.1,6506.3 c 181.5,264.1 547.7,751.4 878.3,717.7 330.6,-33.7 354.5,-384.6 254.9,-573.5 -99.7,-188.9 -443.8,-654.5 -443.8,-654.5 l -689.4,510.3"
         style="fill:#ff4f78;fill-opacity:1;fill-rule:nonzero;stroke:none"
         id="path220" /><path
         d="m 17646.6,5498.9 c -191.1,47 -606.6,186.6 -773.9,-251 41.9,-80.4 195.8,117.9 261.9,136.3 104.9,29.2 194.9,-25.9 274.2,-101.8 113.9,-108.8 304.2,-9.9 304.2,-9.9 l -66.4,226.4"
         style="fill:#f37a50;fill-opacity:1;fill-rule:nonzero;stroke:none"
         id="path222" /><path
         d="m 17497.9,4990.4 h -1795.3 v 241.1 H 17739 v 0 c 0,-133.1 -107.9,-241.1 -241.1,-241.1"
         style="fill:#ff4f78;fill-opacity:1;fill-rule:nonzero;stroke:none"
         id="path224" /><path
         d="m 14779.5,6504.8 923.1,-1514.4 213.4,112.2 -1035.3,1727.8 v 0 c -117.9,-62 -163.2,-207.7 -101.2,-325.6"
         style="fill:#ff4f78;fill-opacity:1;fill-rule:nonzero;stroke:none"
         id="path226" /><path
         d="m 20906,8106 c -87.3,-364.6 -390.2,-604.6 -676.6,-536.1 -286.3,68.6 -447.7,419.8 -360.4,784.4 87.3,364.6 390.2,604.5 676.6,536 286.3,-68.6 447.7,-419.7 360.4,-784.3"
         style="fill:#f37a50;fill-opacity:1;fill-rule:nonzero;stroke:none"
         id="path228" /><path
         d="m 20767.3,7913.9 -475.9,-295 c 0,0 -42.2,-210.3 -63.3,-278.5 -43.5,-140.8 123.1,-202.4 264,-114.7 140.9,87.7 176.7,204.9 176.7,204.9 l 98.5,483.3"
         style="fill:#f37a50;fill-opacity:1;fill-rule:nonzero;stroke:none"
         id="path230" /><path
         d="m 19836.2,8493.5 c 135.3,-11.6 428.2,11.8 535.1,138.5 76.2,-257.2 400,-502.1 667.8,-616.9 10.7,263.9 8.8,749.5 -464.4,951.2 -371.7,158.5 -738.5,-472.8 -738.5,-472.8"
         style="fill:#2c2858;fill-opacity:1;fill-rule:nonzero;stroke:none"
         id="path232" /><path
         d="m 20003.2,8258.5 c -12.6,-25.3 -43.4,-35.6 -68.7,-23 -25.3,12.6 -35.6,43.3 -23,68.7 12.6,25.3 43.4,35.6 68.7,23 25.3,-12.6 35.6,-43.4 23,-68.7"
         style="fill:#000000;fill-opacity:1;fill-rule:nonzero;stroke:none"
         id="path234" /><path
         d="m 20405.4,8159.3 c -13.7,-27.4 -46.9,-38.6 -74.3,-24.9 -27.4,13.6 -38.6,46.9 -24.9,74.3 13.6,27.4 46.9,38.5 74.3,24.9 27.4,-13.7 38.5,-46.9 24.9,-74.3"
         style="fill:#000000;fill-opacity:1;fill-rule:nonzero;stroke:none"
         id="path236" /><path
         d="m 20466.7,8205.2 c -3.8,1.9 -7,5 -8.9,9.1 -27.8,59.9 -102.8,71.6 -103.6,71.7 -10.5,1.6 -17.8,11.3 -16.3,21.9 1.5,10.5 11.2,17.8 21.7,16.3 4,-0.5 96.5,-14.5 133.2,-93.7 4.4,-9.6 0.2,-21.1 -9.4,-25.6 -5.5,-2.5 -11.7,-2.3 -16.7,0.3"
         style="fill:#2c2858;fill-opacity:1;fill-rule:nonzero;stroke:none"
         id="path238" /><path
         d="m 19891.5,8332.7 c -1.9,0.9 -3.6,2.2 -5.1,3.7 -7.5,7.6 -7.4,19.8 0.1,27.3 58.9,58.1 131.3,34 134.4,32.9 10,-3.4 15.4,-14.4 11.9,-24.5 -3.4,-10 -14.4,-15.4 -24.4,-11.9 -2.4,0.7 -53.4,16.9 -94.8,-24 -6,-5.9 -14.9,-7.1 -22.1,-3.5"
         style="fill:#2c2858;fill-opacity:1;fill-rule:nonzero;stroke:none"
         id="path240" /><path
         d="m 20036.1,8147.1 c -28.1,-28.9 -52.7,-58.7 -79.6,-75.6 -9,-5.7 -11.9,-17.7 -6.6,-27 21.6,-38.4 84.9,-70.1 123.7,-86.6 5.7,-2.4 10.3,5 5.7,9.1 -39.2,34.4 -56,59.6 -63.1,73.5 -3.5,6.9 -3.4,15 0.1,21.9 8,15.9 24,48.3 34.8,75 3.8,9.3 -8,16.9 -15,9.7"
         style="fill:#de623c;fill-opacity:1;fill-rule:nonzero;stroke:none"
         id="path242" /><path
         d="m 20768.2,8103.6 c -69.6,-54.1 -90.1,-144.1 -45.8,-201.1 44.3,-56.9 136.6,-59.2 206.2,-5.1 69.6,54.2 90.1,144.2 45.8,201.2 -44.3,56.9 -136.6,59.2 -206.2,5"
         style="fill:#f37a50;fill-opacity:1;fill-rule:nonzero;stroke:none"
         id="path244" /><path
         d="m 20807.8,7919 c -2.6,1.3 -4.9,3.2 -6.8,5.7 -26.7,35.6 -29.2,75.5 -6.7,106.9 23,32.1 65.8,46.7 101.7,34.9 10.2,-3.4 15.6,-14.3 12.3,-24.4 -3.3,-10.1 -14.2,-15.6 -24.4,-12.2 -19.6,6.5 -45.3,-2.7 -58.3,-20.8 -12.5,-17.5 -10.3,-39.2 6.2,-61.2 6.4,-8.5 4.7,-20.6 -3.8,-27 -6,-4.5 -13.9,-5 -20.2,-1.9"
         style="fill:#de623c;fill-opacity:1;fill-rule:nonzero;stroke:none"
         id="path246" /><path
         d="m 20323.5,4596.5 c -617.4,-83.1 -2359.4,-647.7 -2456.4,-764.3 -200.2,-240.9 245.6,-1272.4 388.2,-2600.4 h 596 c -6.3,946.2 69.3,1816.7 -221.8,2125.1 0,0 1669.6,111.5 2502,111.5 424.3,0 659.1,1433.7 -808,1128.1"
         style="fill:#3f964f;fill-opacity:1;fill-rule:nonzero;stroke:none"
         id="path248" /><path
         d="m 20010.1,7840.3 c -8.3,11.1 0.7,26.7 14.4,25 34.9,-4.2 92.7,-9.9 147.8,-10 55.1,0 112.9,5.6 147.8,9.7 13.8,1.6 22.7,-13.9 14.4,-25 -25.4,-34.2 -77.8,-86 -162.3,-85.9 -84.5,0.1 -136.8,52 -162.1,86.2"
         style="fill:#ffffff;fill-opacity:1;fill-rule:nonzero;stroke:none"
         id="path250" /><path
         d="m 8153.71,5616.1 c -117.9,-78.5 -85.26,-506.1 -40.74,-527.8 613.08,-74.9 1648.61,433 1648.61,433 l 40.55,227.2 c 0,0 -864.86,-144.8 -1648.42,-132.4"
         style="fill:#f37a50;fill-opacity:1;fill-rule:nonzero;stroke:none"
         id="path252" /><path
         d="M 6806.61,6357.4 C 7025.78,6007 7985.11,5100.7 8133.99,5087.2 l 126.79,513.8 c 0,0 -861.14,1091.8 -1012.86,1266.1 -262.01,302.3 -800.22,61.9 -441.31,-509.7"
         style="fill:#f37a50;fill-opacity:1;fill-rule:nonzero;stroke:none"
         id="path254" /><path
         d="m 7330.9,8230.2 c 26.36,358.9 -77.39,675.9 -363.52,837.4 -290.01,163.6 -653.32,3.1 -653.32,3.1 v 0 c -0.03,0 -307.52,109.4 -586.21,-197.6 -278.69,-307 -67.88,-577.1 -181.9,-801 -67.52,-132.6 -410.83,-160 -322.15,-591.8 25.58,-124.6 175.38,-208.4 302.26,-216.7 222.92,-14.7 430.51,71.5 520.88,-14.7 297.77,-284 957.66,-181.3 1050.01,78.5 28.64,80.5 622.23,-75.3 563.01,473.3 -30,278 -352.61,108.9 -329.06,429.5"
         style="fill:#2c2858;fill-opacity:1;fill-rule:nonzero;stroke:none"
         id="path256" /><path
         d="m 6786.96,7070.2 -471.28,87 -176.72,-235.1 375.58,-770 552.42,468.8 -280,449.3"
         style="fill:#f37a50;fill-opacity:1;fill-rule:nonzero;stroke:none"
         id="path258" /><path
         d="m 7397.86,5213.6 c -8.06,146.5 228.72,748.2 104.09,1051 -90.78,243.6 -242.42,652.6 -428.13,720.8 -87.62,32.2 -177.67,54.6 -286.86,84.8 0,0 61.6,-307 -66.74,-317.3 -247.05,-19.8 -404.54,404.3 -404.54,404.3 -133.19,12.7 -744.19,-188 -743.9,-238.2 1.45,-392.9 320.72,-966.3 425.12,-1391.2 41.08,-458.8 -119.01,-1007.9 -119.59,-1060.1 0,0 982.89,-276.4 1565.53,44.4 12.18,44.7 -33.86,499.2 -44.98,701.5"
         style="fill:#3f964f;fill-opacity:1;fill-rule:nonzero;stroke:none"
         id="path260" /><path
         d="m 6025.17,4939.1 c 0,0 -216.99,-547.4 -269.9,-892 -52.91,-344.6 245.71,-565.7 245.71,-565.7 h 2483.37 c 0,0 265.86,431.1 189.28,728.9 -76.58,297.7 -252.71,345 -252.71,345 l -2395.75,383.8"
         style="fill:#3f964f;fill-opacity:1;fill-rule:nonzero;stroke:none"
         id="path262" /><path
         d="m 8517.61,4570.6 c -317.06,44.7 -1237.24,-312.7 -1629.6,-1089.2 h 1097.68 l 531.92,1089.2"
         style="fill:#de623c;fill-opacity:1;fill-rule:nonzero;stroke:none"
         id="path264" /><path
         d="m 8169.91,4284.8 c 40.98,44.8 78.18,100.1 110.92,157.8 92.53,163 315.58,190.6 441.52,51.7 457.68,-504.6 1433.35,-1654.9 1650.85,-1798.1 61.5,-40.4 420.1,-246.9 761,-206.1 0,0 168.3,-64 56.2,-197.7 -57.7,-68.7 -924.1,-139.8 -924.1,-139.8 l -67.5,254.4 c -504.29,373.2 -1132.08,346.4 -1664.39,1028.7 -293.12,375.8 -364.5,849.1 -364.5,849.1"
         style="fill:#de623c;fill-opacity:1;fill-rule:nonzero;stroke:none"
         id="path266" /><path
         d="m 10441.8,2005.8 348.6,-226.2 47.9,57.1 -282.7,263.7 c 160.6,126.7 532.7,21 532.7,21 121.8,78.7 359.4,334 383.9,470.8 -78.1,97.2 -337.9,-102.8 -337.9,-102.8 9.5,-43.3 -72.6,-193.4 -137.9,-219 -283.9,-61.3 -566.8,19.4 -797.6,136.6 0,0 -192.9,-292.3 243,-401.2"
         style="fill:#e62552;fill-opacity:1;fill-rule:nonzero;stroke:none"
         id="path268" /><path
         d="m 8164.83,4216.2 c -63.49,-17.1 -110.85,-70.2 -120.03,-135.3 -24.83,-176.2 -153.06,-532.8 20.41,-906.3 425.9,-917 677.35,-1521.2 722.02,-1757.8 -111.24,-208.4 332.35,-777.499 338.96,-814.8 l 319.27,100 c 0,0 -183.2,272.5 -249.16,379.2 -157.07,254.1 -182.76,565.9 -208.29,807.6 -108.99,1031.9 78.41,1683.4 -668.22,2288.7 -44.15,35.8 -100.06,53.5 -154.96,38.7"
         style="fill:#f37a50;fill-opacity:1;fill-rule:nonzero;stroke:none"
         id="path270" /><path
         d="m 8628.18,980.301 31.47,-414.399 74.47,-3.5 38.23,384.797 c 198.17,-50.898 339.69,-410.898 339.69,-410.898 136.48,-49.102 483.54,-83.199 607.16,-19.801 30.01,121.102 -286.62,206.402 -286.62,206.402 C 9403.92,689 9234.8,663.301 9174.81,699.699 8953.98,888.301 8833.99,1162.1 8787.23,1416.8 c 0,0 -336.82,-23.9 -159.05,-436.499"
         style="fill:#e62552;fill-opacity:1;fill-rule:nonzero;stroke:none"
         id="path272" /><path
         d="m 6667.87,7455.1 -382.67,57.3 30.48,-355.2 c 0,0 73.25,-160.9 158.21,-171.8 l 313.07,84.8 -119.09,384.9"
         style="fill:#f37a50;fill-opacity:1;fill-rule:nonzero;stroke:none"
         id="path274" /><path
         d="m 5931.13,7968.7 c 98.79,-412.6 441.57,-684.1 765.61,-606.6 324.04,77.6 506.64,475 407.85,887.6 -98.78,412.5 -441.56,684.1 -765.6,606.5 -324.04,-77.6 -506.65,-474.9 -407.86,-887.5"
         style="fill:#f37a50;fill-opacity:1;fill-rule:nonzero;stroke:none"
         id="path276" /><path
         d="m 6952.74,8141.3 c 14.27,-28.7 49.06,-40.3 77.7,-26 28.65,14.2 40.3,49 26.03,77.6 -14.26,28.7 -49.05,40.4 -77.7,26.1 -28.64,-14.3 -40.3,-49.1 -26.03,-77.7"
         style="fill:#000000;fill-opacity:1;fill-rule:nonzero;stroke:none"
         id="path278" /><path
         d="m 6497.6,8029 c 15.45,-31 53.11,-43.6 84.12,-28.2 31,15.5 43.62,53.1 28.18,84.1 -15.45,31.1 -53.11,43.7 -84.11,28.2 -31.02,-15.4 -43.63,-53.1 -28.19,-84.1"
         style="fill:#000000;fill-opacity:1;fill-rule:nonzero;stroke:none"
         id="path280" /><path
         d="m 6428.25,8081 c 4.27,2.1 7.89,5.6 10.05,10.3 31.43,67.8 116.37,81 117.23,81.2 11.89,1.7 20.16,12.8 18.44,24.7 -1.71,11.9 -12.7,20.1 -24.6,18.5 -4.44,-0.7 -109.12,-16.4 -150.65,-106.1 -5.06,-10.9 -0.31,-23.8 10.62,-28.9 6.26,-2.9 13.18,-2.6 18.91,0.3"
         style="fill:#2c2858;fill-opacity:1;fill-rule:nonzero;stroke:none"
         id="path282" /><path
         d="m 7079.12,8225.3 c 2.1,1 4.05,2.4 5.79,4.2 8.47,8.5 8.39,22.4 -0.18,30.8 -66.55,65.8 -148.56,38.5 -152.02,37.3 -11.36,-3.9 -17.44,-16.3 -13.51,-27.7 3.92,-11.4 16.27,-17.4 27.64,-13.6 2.69,0.9 60.42,19.2 107.22,-27 6.81,-6.7 16.94,-8.1 25.06,-4"
         style="fill:#2c2858;fill-opacity:1;fill-rule:nonzero;stroke:none"
         id="path284" /><path
         d="m 6915.47,8015.3 c 31.8,-32.7 59.69,-66.4 90.04,-85.6 10.23,-6.4 13.51,-20 7.57,-30.6 -24.53,-43.4 -96.12,-79.2 -140.02,-97.9 -6.4,-2.7 -11.66,5.7 -6.43,10.3 44.31,38.8 63.35,67.4 71.34,83.1 3.97,7.9 3.87,17 -0.09,24.9 -9.08,17.9 -27.17,54.5 -39.41,84.8 -4.23,10.5 9.14,19.1 17,11"
         style="fill:#de623c;fill-opacity:1;fill-rule:nonzero;stroke:none"
         id="path286" /><path
         d="m 6087.06,7966.1 c 78.74,-61.3 101.93,-163.2 51.8,-227.6 -50.13,-64.5 -154.61,-67.1 -233.34,-5.8 -78.74,61.3 -101.93,163.2 -51.8,227.6 50.13,64.4 154.6,67 233.34,5.8"
         style="fill:#f37a50;fill-opacity:1;fill-rule:nonzero;stroke:none"
         id="path288" /><path
         d="m 6042.24,7757.2 c 2.94,1.4 5.58,3.6 7.69,6.4 30.24,40.2 33.08,85.4 7.6,120.9 -26.08,36.3 -74.51,52.9 -115.15,39.5 -11.44,-3.8 -17.65,-16.1 -13.87,-27.5 3.78,-11.5 16.12,-17.7 27.55,-13.9 22.27,7.3 51.27,-3 66.03,-23.5 14.18,-19.8 11.68,-44.4 -7.03,-69.3 -7.24,-9.6 -5.3,-23.3 4.33,-30.5 6.83,-5.2 15.69,-5.7 22.85,-2.1"
         style="fill:#de623c;fill-opacity:1;fill-rule:nonzero;stroke:none"
         id="path290" /><path
         d="m 6557.26,7686.3 c -9.13,12.3 0.74,29.5 15.96,27.7 38.7,-4.6 102.68,-10.9 163.75,-10.9 61.08,0 125.06,6.3 163.76,10.9 15.22,1.8 25.09,-15.4 15.95,-27.7 -28.07,-37.9 -86.09,-95.3 -179.71,-95.3 -93.61,0 -151.63,57.4 -179.71,95.3"
         style="fill:#ffffff;fill-opacity:1;fill-rule:nonzero;stroke:none"
         id="path292" /><path
         d="m 5923.13,8005.2 c 386.78,51.8 927.96,445.8 972.35,648.1 -74.82,242.9 -473.42,365 -698.49,252.4 -225.08,-112.5 -437.69,-594.8 -273.86,-900.5"
         style="fill:#2c2858;fill-opacity:1;fill-rule:nonzero;stroke:none"
         id="path294" /><path
         d="m 9541.45,5080.4 v 0 c -51.48,16.8 -79.59,72.1 -62.78,123.6 l 597.03,1828.9 c 16.8,51.5 72.1,79.6 123.6,62.8 v 0 c 51.5,-16.9 79.6,-72.2 62.8,-123.7 L 9665.09,5143.1 c -16.8,-51.4 -72.16,-79.5 -123.64,-62.7"
         style="fill:#ffffff;fill-opacity:1;fill-rule:nonzero;stroke:none"
         id="path296" /><path
         d="m 9858.55,5735.8 121.65,372.6 c 0,0 105.4,-214.3 0,-417.8 C 9874.76,5487.1 9774.41,5478 9774.41,5478 l 84.14,257.8"
         style="fill:#f37a50;fill-opacity:1;fill-rule:nonzero;stroke:none"
         id="path298" /><path
         d="m 9684.82,5835.5 c -30.77,72.4 -103.18,253.3 -30.77,252.5 72.42,-0.8 84.23,-88.7 84.23,-88.7 l -53.46,-163.8"
         style="fill:#f37a50;fill-opacity:1;fill-rule:nonzero;stroke:none"
         id="path300" /><path
         d="m 3704.11,6924.6 c 164.19,165.6 56.48,335.5 56.48,335.5 90.1,19.3 565.42,-700.7 770.37,-1158.3 357.5,360.3 987.44,846.9 1157.77,875.3 0,0 229.8,61.8 312.37,-216.1 73.7,-247.9 -213.73,-423.7 -213.73,-423.7 0,0 -1229.57,-868 -1411.41,-790.9 -282.98,120.1 -539.07,1153.3 -671.85,1378.2"
         style="fill:#f37a50;fill-opacity:1;fill-rule:nonzero;stroke:none"
         id="path302" /><path
         d="m 3447.39,6945.1 c 100.33,-6.2 224.41,43.5 263.06,-46.5 l 198.03,96.5 11.98,119.5 c -170.16,272.6 -584.92,350 -625.99,353.6 -106.69,9.3 -156.22,20.3 -164.56,6.1 -8.33,-14.3 -34.47,-109.3 120.34,-127.9 194.28,-23.3 65.3,-178.6 -328.83,-30.8 -98.69,37.1 -284.41,-11 -217.24,-83.1 74.02,-79.5 286.68,-259.6 743.21,-287.4"
         style="fill:#f37a50;fill-opacity:1;fill-rule:nonzero;stroke:none"
         id="path304" /><path
         d="m 14175.2,12497 c 0,-90.4 -15.4,-177.9 -44.5,-261.1 -145.4,-417.3 -630.7,-723.9 -1207.2,-723.9 -576.3,0 -1061.7,306.6 -1207,723.9 -29.1,83.2 -44.6,170.7 -44.6,261.1 h 2503.3"
         style="fill:#3f964f;fill-opacity:1;fill-rule:nonzero;stroke:none"
         id="path306" /><path
         d="m 14175.2,12497 c 0,-90.4 -15.4,-177.9 -44.5,-261.1 h -2414.2 c -29.1,83.2 -44.6,170.7 -44.6,261.1 h 2503.3"
         style="fill:#0e6a41;fill-opacity:1;fill-rule:nonzero;stroke:none"
         id="path308" /><path
         d="m 15544.7,16719.5 c 0,1446.4 -1171.5,2619.1 -2617.4,2621.1 -1426,2 -2598.9,-1147.2 -2624.5,-2573 -11.1,-623.7 195.6,-1198.6 549.1,-1653.9 447.2,-576.1 695.5,-1281.8 695.5,-2011.1 v -12.9 h 2752.3 v 12.8 c 0,730.4 250.1,1436.1 697.4,2013.6 343.3,443.1 547.6,999.4 547.6,1603.4"
         style="fill:#ffe91d;fill-opacity:1;fill-rule:nonzero;stroke:none"
         id="path310" /><path
         d="m 12952.3,16697.1 c -75.8,-128.7 -138.8,-273.4 -183.1,-423.5 -77.3,-261.9 -87.8,-512.9 -28.1,-671.3 43,-114.4 116.2,-173.9 223.7,-182 111,-8.3 180.8,37.2 219.8,143.2 88.8,241.4 -19,734.5 -232.3,1133.6 z m 367.8,-3310.8 c -7.3,0 -14.7,1.2 -22,3.8 -35,12.2 -53.4,50.3 -41.3,85.3 3.1,8.9 312.2,899.4 536.8,1806.2 398.1,1607.4 193.2,1868.6 86.7,1906.3 -313.3,111 -562.8,-53.1 -716.9,-210.3 -45.2,-46.2 -88.6,-98.3 -129.5,-155.1 66.9,-115.8 127.2,-243.6 177.8,-378.7 138.8,-370.8 175.7,-717.2 98.7,-926.5 -59.4,-161.5 -185.7,-243.4 -355.6,-230.6 -160.3,12.1 -277.6,104.9 -339.1,268.4 -70.6,187.5 -61.5,463.2 25,756.5 54.6,185.1 136.3,363.3 235.3,516.8 -92.4,146.2 -199.5,272 -315.6,356.7 -172.5,125.7 -334.5,131.2 -481.5,16.3 -303.5,-237.3 -315.2,-951 -33.6,-2063.8 217.1,-858 535.6,-1651.3 538.8,-1659.2 13.8,-34.3 -2.8,-73.3 -37.1,-87.2 -34.3,-13.8 -73.3,2.8 -87.2,37.1 -3.2,8 -324.7,808.5 -544.1,1675.2 -300.1,1185.6 -273,1927 80.7,2203.5 194.2,151.8 422.6,147 642.9,-13.6 110.5,-80.5 219.6,-201.2 318.6,-348.8 35.1,45.6 71.9,88.1 109.8,126.8 256.5,261.6 560.9,347.8 857.3,242.9 184.5,-65.4 260.2,-313.7 231.4,-759.3 -21.2,-328.6 -99.6,-768.2 -232.9,-1306.3 -226.1,-912.8 -537,-1808.4 -540.1,-1817.4 -9.6,-27.6 -35.6,-45 -63.3,-45"
         style="fill:#ffffff;fill-opacity:1;fill-rule:nonzero;stroke:none"
         id="path312" /><path
         d="m 14067.6,12411.3 h -2288.1 c -272.7,0 -493.8,221.1 -493.8,493.8 v 20.8 c 0,272.7 221.1,493.9 493.8,493.9 h 2288.1 c 272.7,0 493.9,-221.2 493.9,-493.9 v -20.8 c 0,-272.7 -221.2,-493.8 -493.9,-493.8"
         style="fill:#3f964f;fill-opacity:1;fill-rule:nonzero;stroke:none"
         id="path314" /><path
         d="m 17376.5,16611.7 h -857 c -122,0 -220.9,98.9 -220.9,220.9 v 0 c 0,122 98.9,220.9 220.9,220.9 h 857 c 122,0 220.9,-98.9 220.9,-220.9 v 0 c 0,-122 -98.9,-220.9 -220.9,-220.9"
         style="fill:#ffe91d;fill-opacity:1;fill-rule:nonzero;stroke:none"
         id="path316" /><path
         d="M 9327.62,16611.7 H 8470.6 c -121.99,0 -220.88,98.9 -220.88,220.9 v 0 c 0,122 98.89,220.9 220.88,220.9 h 857.02 c 121.98,0 220.87,-98.9 220.87,-220.9 v 0 c 0,-122 -98.89,-220.9 -220.87,-220.9"
         style="fill:#ffe91d;fill-opacity:1;fill-rule:nonzero;stroke:none"
         id="path318" /><path
         d="m 9872.27,18425 -682.02,519 c -97.08,73.8 -115.89,212.4 -42.02,309.5 v 0 c 73.87,97.1 212.45,115.9 309.52,42 l 682.05,-518.9 c 97.1,-73.9 115.9,-212.5 42,-309.6 v 0 c -73.9,-97.1 -212.45,-115.9 -309.53,-42"
         style="fill:#ffe91d;fill-opacity:1;fill-rule:nonzero;stroke:none"
         id="path320" /><path
         d="m 15931.2,18425 682,519 c 97.1,73.8 115.9,212.4 42,309.5 v 0 c -73.9,97.1 -212.4,115.9 -309.5,42 l -682,-518.9 c -97.1,-73.9 -115.9,-212.5 -42.1,-309.6 v 0 c 73.9,-97.1 212.5,-115.9 309.6,-42"
         style="fill:#ffe91d;fill-opacity:1;fill-rule:nonzero;stroke:none"
         id="path322" /><path
         d="m 9872.27,14966.3 -682.02,-519 c -97.08,-73.9 -115.89,-212.4 -42.02,-309.5 v 0 c 73.87,-97.1 212.45,-115.9 309.52,-42 l 682.05,518.9 c 97.1,73.9 115.9,212.5 42,309.6 v 0 c -73.9,97 -212.45,115.9 -309.53,42"
         style="fill:#ffe91d;fill-opacity:1;fill-rule:nonzero;stroke:none"
         id="path324" /><path
         d="m 15931.2,14966.3 682,-519 c 97.1,-73.9 115.9,-212.4 42,-309.5 v 0 c -73.9,-97.1 -212.4,-115.9 -309.5,-42 l -682,518.9 c -97.1,73.9 -115.9,212.5 -42.1,309.6 v 0 c 73.9,97 212.5,115.9 309.6,42"
         style="fill:#ffe91d;fill-opacity:1;fill-rule:nonzero;stroke:none"
         id="path326" /><path
         d="m 13492,5914.6 c 0,0 -197.1,371.8 -275.9,766.3 -68.5,337 -65.3,739.5 -56.9,954.5 1.9,48.9 66.1,65.6 91.6,23.8 124.1,-202.8 348.4,-610.4 398.8,-978.6 36,-254.1 59.3,-509.8 69.6,-766.3 l -227.2,0.3"
         style="fill:#3f964f;fill-opacity:1;fill-rule:nonzero;stroke:none"
         id="path328" /><path
         d="m 13698.2,5914.6 c 0,0 131.4,454.6 275.9,757.8 105.1,220.5 344.2,484.5 467,612.2 23.2,24.2 63.7,3.4 57.5,-29.6 -31.5,-168.1 -104.4,-499.5 -223.5,-725.8 -165.5,-314.5 -441.3,-614.6 -441.3,-614.6 h -135.6"
         style="fill:#3f964f;fill-opacity:1;fill-rule:nonzero;stroke:none"
         id="path330" /><path
         d="m 13022.4,6317.9 c -18.8,36.8 16.4,77.8 55.6,64.5 99.4,-33.5 191.4,-86.7 270.4,-156.7 147,-133.6 174.4,-285.8 174.4,-285.8 l -50.6,-17 c 0,0 -273.9,49.9 -449.8,395"
         style="fill:#0e6a41;fill-opacity:1;fill-rule:nonzero;stroke:none"
         id="path332" /><path
         d="m 14051,7380.8 c -3.4,47.1 -63.8,64.2 -91.3,25.9 -102.6,-142.8 -274.8,-424.2 -331.2,-769.1 -70.5,-430.4 11.6,-723.3 11.6,-723.3 h 58.1 c 0,0 213.9,405.4 297.3,680 78.7,259.1 68.6,603.3 55.5,786.5"
         style="fill:#0e6a41;fill-opacity:1;fill-rule:nonzero;stroke:none"
         id="path334" /><path
         d="m 13833.8,5914.6 c 0,0 123,409.8 544,565.8 24.4,9.1 48.1,-15.6 38.2,-39.7 -55.5,-135.4 -213.7,-458.8 -480.9,-526 l -101.3,-0.1"
         style="fill:#0e6a41;fill-opacity:1;fill-rule:nonzero;stroke:none"
         id="path336" /><path
         d="M 14206.4,5983.9 H 13232 l 125.1,-998.3 h 724.2 l 125.1,998.3"
         style="fill:#768fdb;fill-opacity:1;fill-rule:nonzero;stroke:none"
         id="path338" /><path
         d="M 13158.7,5203.3 V 5060 h 39 c 19,0 34.3,-15.4 34.3,-34.3 v -5.8 c 0,-18.9 -15.3,-34.3 -34.3,-34.3 h -1662.6 c -22,0 -39.9,17.9 -39.9,39.9 v 206.4 c 0,22 17.8,39.9 39.9,39.9 h 1662.6 c 19,0 34.3,-15.3 34.3,-34.3 v 0 c 0,-18.9 -15.3,-34.2 -34.3,-34.2 h -39"
         style="fill:#e62552;fill-opacity:1;fill-rule:nonzero;stroke:none"
         id="path340" /><path
         d="m 13163.6,5060 h -1454.1 c -16.1,0 -29.2,13 -29.2,29.1 v 85 c 0,16.1 13.1,29.1 29.2,29.1 h 1454.1 V 5060"
         style="fill:#ffffff;fill-opacity:1;fill-rule:nonzero;stroke:none"
         id="path342" /><path
         d="m 11348.2,5512.6 v -158.5 h -39 c -19,0 -34.3,-17 -34.3,-38 v -6.4 c 0,-20.9 15.3,-37.9 34.3,-37.9 h 1662.6 c 22,0 39.9,19.8 39.9,44.2 v 228.3 c 0,24.4 -17.9,44.2 -39.9,44.2 h -1662.6 c -19,0 -34.3,-17 -34.3,-38 v 0 c 0,-20.9 15.3,-37.9 34.3,-37.9 h 39"
         style="fill:#3f964f;fill-opacity:1;fill-rule:nonzero;stroke:none"
         id="path344" /><path
         d="m 11343.2,5354.1 h 1452.7 c 16.9,0 30.6,13.7 30.6,30.6 v 97.3 c 0,16.9 -13.7,30.6 -30.6,30.6 h -1452.7 v -158.5"
         style="fill:#ffffff;fill-opacity:1;fill-rule:nonzero;stroke:none"
         id="path346" /><path
         d="M 12987.1,5735.4 H 11471 c -33.5,0 -60.6,27.1 -60.6,60.6 v 135.8 c 0,33.5 27.1,60.7 60.6,60.7 h 1516.1 c 33.5,0 60.7,-27.2 60.7,-60.7 V 5796 c 0,-33.5 -27.2,-60.6 -60.7,-60.6"
         style="fill:#e62552;fill-opacity:1;fill-rule:nonzero;stroke:none"
         id="path348" /><path
         d="m 13109,5588.5 h -1545.8 c -25.3,0 -45.8,20.5 -45.8,45.8 v 55.3 c 0,25.3 20.5,45.8 45.8,45.8 H 13109 c 25.3,0 45.8,-20.5 45.8,-45.8 v -55.3 c 0,-25.3 -20.5,-45.8 -45.8,-45.8"
         style="fill:#768fdb;fill-opacity:1;fill-rule:nonzero;stroke:none"
         id="path350" /></g></g></svg>
