<?xml version="1.0" encoding="UTF-8" standalone="no"?>
<!-- Created with Inkscape (http://www.inkscape.org/) -->

<svg
   version="1.1"
   id="svg2"
   xml:space="preserve"
   width="5333.3335"
   height="5333.3335"
   viewBox="0 0 5333.3335 5333.3335"
   sodipodi:docname="6100_4_04.eps"
   xmlns:inkscape="http://www.inkscape.org/namespaces/inkscape"
   xmlns:sodipodi="http://sodipodi.sourceforge.net/DTD/sodipodi-0.dtd"
   xmlns="http://www.w3.org/2000/svg"
   xmlns:svg="http://www.w3.org/2000/svg"><defs
     id="defs6" /><sodipodi:namedview
     id="namedview4"
     pagecolor="#ffffff"
     bordercolor="#666666"
     borderopacity="1.0"
     inkscape:pageshadow="2"
     inkscape:pageopacity="0.0"
     inkscape:pagecheckerboard="0" /><g
     id="g8"
     inkscape:groupmode="layer"
     inkscape:label="ink_ext_XXXXXX"
     transform="matrix(1.3333333,0,0,-1.3333333,0,5333.3333)"><g
       id="g10"
       transform="scale(0.1)"><path
         d="M 0,0 H 40000 V 40000 H 0 Z"
         style="fill:#dcb3ff;fill-opacity:1;fill-rule:nonzero;stroke:none"
         id="path12" /><path
         d="m 19158.6,4127.5 c -5708.1,0 -10335.53,494.7 -10335.53,1104.9 0,244.5 743.19,470.5 2000.93,653.5 35.3,-168.5 108.4,-321.9 201.3,-441.2 269.5,-346.4 601.8,-346.4 1489.6,-346.4 210.3,0 433.6,-4.7 649.6,-9.3 227,-4.8 433.5,-8.6 619.5,-8.6 584,0 966.3,36.9 1147.7,193.8 194.6,167.9 293.2,528.1 413.6,985.4 1180,50.1 2466.4,77.6 3813.3,77.6 221.6,0 441.2,-0.7 659.3,-2.2 447.9,-572.3 1185.6,-1022.6 2164.8,-1022.5 645.5,0 1395.9,195.7 2237.1,681.3 0,0 382.2,-635.5 1025,-635.4 50.1,0 101.9,3.9 155.1,12.2 431.9,67.4 726.3,253.3 813.5,669.2 2018.8,-201.6 3280.8,-488.8 3280.8,-807.4 0,-610.2 -4627.4,-1104.9 -10335.6,-1104.9"
         style="fill:#bb94da;fill-opacity:1;fill-rule:nonzero;stroke:none"
         id="path14" /><path
         d="m 23066.5,18588 -194.8,-949.2 -99.2,-483.9 L 21060,8814.4 c 0,0 575.2,-84.6 1355.8,-136.1 152.5,-9.8 313.2,-18.7 478.9,-25.5 1234.1,-50 2749.5,19.2 3394.2,572.6 249,213.9 483.4,677 684.7,1279.4 577.9,1727.9 886.7,4602 506.9,6020.7 -12.2,46 -28.5,91.5 -49,135.4 -362.5,803.2 -1949.1,1350.5 -3105.5,1650.5 -135.9,35.7 -266.6,67.9 -388.2,96.2 -513.3,120.8 -871.3,180.4 -871.3,180.4"
         style="fill:#ffffff;fill-opacity:1;fill-rule:nonzero;stroke:none"
         id="path16" /><path
         d="m 23505.4,8849.7 c -135.6,0 -271.1,1.9 -405.2,5.4 6.8,226.3 33.1,509 117.3,632.1 30.8,41.2 62.7,85.3 95.6,132 133.3,110 257.3,226 371.1,347 265.5,-160.8 760.1,-298.6 1229.4,-298.6 61.7,0 123.1,2.4 183.3,7.5 378.7,31.6 677.5,166.7 864.2,390.8 49.6,59.5 98.7,142.8 146.3,241.4 29.4,-1.7 58.6,-2.5 87.6,-2.5 185.4,0 360.2,33.8 522.9,89.8 -171.6,-476.9 -363.8,-838.2 -565.2,-1011.1 -307.5,-264 -865.4,-409 -1511.1,-479 -4.6,0.1 -9.2,0.1 -13.8,0.1 -120.7,0 -248.5,-12.6 -376.6,-33.1 -243.9,-15.2 -495.1,-21.8 -745.8,-21.8 m 3670.9,7846.6 c -729.2,110.3 -1481.3,296.5 -2067.7,345.8 -3,93 -6.7,185.1 -11,275.1 322.9,42.6 643.1,104.4 958.6,185.4 504.9,-231.8 921.9,-502.4 1120.1,-806.3"
         style="fill:#d7d1da;fill-opacity:1;fill-rule:nonzero;stroke:none"
         id="path18" /><path
         d="m 21308.9,8990.8 c 1243,-158.2 3995.9,-335.3 4843.8,392.7 896.4,769.6 1612.3,5274.3 1126.6,7088.3 -260.8,974.3 -2846.2,1650.2 -4049.3,1875.3 L 21308.9,8990.8 m 2196.6,-559.9 c -1244.1,0 -2387.2,163.9 -2476.1,176.9 l -218.5,32.1 2091.7,10186.9 198.2,-33 c 41.9,-7 1038.1,-175 2097.7,-517.8 1474.5,-477 2310.2,-1047.8 2483.8,-1696.3 244.4,-912.8 229.7,-2501.1 -38.2,-4145.1 -103.2,-633 -496.1,-2746.4 -1219.6,-3367.6 -584.5,-501.9 -1793.1,-636.1 -2919,-636.1"
         style="fill:#371a45;fill-opacity:1;fill-rule:nonzero;stroke:none"
         id="path20" /><path
         d="m 25012.9,17153.8 c 625.3,-13.1 1245.5,-49.6 1864.2,-150.7 208.2,-36.1 416.7,-78 629,-147.7 109.6,-36 169.2,-153.9 133.3,-263.5 -37.4,-116 -169.2,-175.3 -280.9,-126.7 -550.1,220 -1161.8,315 -1749.9,401.7 -201.9,27.7 -405.9,52.8 -607.6,72.2 -135,15.7 -124.8,213.5 11.9,214.7"
         style="fill:#371a45;fill-opacity:1;fill-rule:nonzero;stroke:none"
         id="path22" /><path
         d="m 26310.2,12599.9 c -230.2,262.1 -2129.2,512.3 -2408.2,283.5 -279,-228.9 -750.2,-2200 -183.8,-2686.5 287.9,-247.3 1598.9,-578.2 2082.6,2.5 301.3,361.6 739.6,2138.4 509.4,2400.5"
         style="fill:#ffffff;fill-opacity:1;fill-rule:nonzero;stroke:none"
         id="path24" /><path
         d="m 24912.2,10084.7 c -378.5,0 -760.9,109.3 -956.2,207 76.4,103.6 145.6,210.1 207.2,319 30.4,-49 65.7,-91.5 106.4,-126.5 161.9,-138.9 648,-304.6 1128.4,-319.3 -112.6,-45.3 -234.1,-65.6 -335.7,-74.1 -49.7,-4.1 -99.9,-6.1 -150.1,-6.1"
         style="fill:#d7d1da;fill-opacity:1;fill-rule:nonzero;stroke:none"
         id="path26" /><path
         d="m 26156.3,12459.3 h 0.5 -0.5 m -2123.8,261 c -115.1,-116.6 -390.6,-976 -371,-1704.1 8.8,-327.2 77.2,-561.9 192.6,-661.1 136.6,-117.3 699.3,-306.7 1208.2,-264.3 184.6,15.4 434.8,69.9 578.3,242.1 255.5,306.7 623.9,1859.4 508.7,2132.3 -243.7,194.8 -1870.4,392.1 -2116.8,255.1 m 881.1,-3052.7 c -538.6,0 -1110.7,181.5 -1331.3,371.1 -230.7,198.1 -344.6,564.3 -338.7,1088.4 7.6,679.3 244,1686.1 526.1,1917.5 226.8,186.1 875.8,150.7 1380.4,88.2 327.2,-40.6 1110.5,-160.2 1316.8,-395.2 58.4,-66.5 235.9,-268.6 -8.6,-1346.8 -104.8,-461.6 -297.8,-1085.6 -497.2,-1324.9 -186.7,-224.1 -485.5,-359.2 -864.2,-390.8 -60.2,-5.1 -121.6,-7.5 -183.3,-7.5"
         style="fill:#371a45;fill-opacity:1;fill-rule:nonzero;stroke:none"
         id="path28" /><path
         d="m 19071.7,9023.1 c 0,0 -2129.8,-41.7 -3002.7,-762.9 C 15195.5,7539 15176.2,5760.7 14795.5,5432.2 14547.8,5217.8 13439.1,5307 12515,5307 c -854.7,0 -1118.1,0 -1325.1,266 -103.8,133.5 -198.7,360.3 -177.3,604.9 11.5,132.4 57.4,269.6 153.3,400.5 300.9,409.3 815.1,490.2 815.1,490.2 0,0 -64.6,2059.3 684.7,3371.9 508,889.7 1251.6,1511.8 1795,1881.5 406.2,276.4 700.9,411.5 700.9,411.5 l 3910.1,-3710.4"
         style="fill:#ffffff;fill-opacity:1;fill-rule:nonzero;stroke:none"
         id="path30" /><path
         d="m 13773,5497.8 c -206.8,0 -418.8,4.5 -599.7,8.3 -218.1,4.6 -443.7,9.4 -658.4,9.4 -838.6,0 -1021,6.2 -1160.4,185.4 -51.9,66.7 -112.4,183.6 -131,321.2 201.2,-87.8 590.6,-180.1 1338.5,-180.1 289.2,0 537.2,-5.3 751.7,-5.3 842.8,0 1169.8,81.8 1470.3,888.7 377.6,1012.2 478.2,1270.4 683.7,2146 238,1014.3 -1156,1509.1 -1039.5,3171.5 87,62.8 170.1,119.7 247.8,170.6 237.9,-1676.5 1660.8,-2659.9 1864.6,-2792.7 240.7,-157 489.7,-295.5 745.4,-415.2 -505.6,-120.1 -1010.2,-303.8 -1350.1,-584.5 -579.2,-478.3 -803.9,-1332.5 -984.4,-2018.8 -89.3,-339.6 -190.6,-724.5 -292.4,-812.4 -88.8,-74.6 -477.4,-92.1 -886.1,-92.1"
         style="fill:#d7d1da;fill-opacity:1;fill-rule:nonzero;stroke:none"
         id="path32" /><path
         d="m 13784,5080.4 c -186,0 -392.5,3.8 -619.5,8.6 -216,4.6 -439.3,9.3 -649.6,9.3 -887.8,0 -1220.1,0 -1489.6,346.4 -235.7,303 -344.8,825.6 -27.5,1257.4 232.6,316.5 568.8,464.1 773.1,528.3 1.5,529.1 61.8,2171.9 713.6,3313.6 910.5,1595.1 2521.9,2348 2590,2379.2 104.8,48.1 228.5,2.1 276.6,-102.6 48,-104.7 2.1,-228.6 -102.7,-276.6 -15.3,-7.1 -1559.4,-731.3 -2401.6,-2206.8 -711.9,-1247.2 -657.8,-3241.9 -657.2,-3261.9 3.3,-105.2 -72.2,-196.3 -176.1,-212.6 -3.5,-0.6 -435.6,-75.7 -679.6,-407.7 -217.5,-296 -81.6,-622.7 20.6,-754.1 139.4,-179.2 321.8,-185.4 1160.4,-185.4 214.7,0 440.3,-4.8 658.4,-9.4 538.3,-11.5 1352.1,-28.6 1485.8,83.8 101.8,87.9 203.1,472.8 292.4,812.4 180.5,686.3 405.2,1540.5 984.4,2018.8 918.7,758.7 3041.5,808.7 3131.4,810.5 113,2.7 210.4,-89.2 212.7,-204.4 2.2,-115.2 -89.3,-210.4 -204.5,-212.7 -20.5,-0.4 -2067.2,-48.9 -2874,-715.1 -475.5,-392.6 -681.2,-1174.8 -846.6,-1803.3 -124.8,-474.6 -223.4,-849.5 -423.2,-1021.9 -181.4,-156.9 -563.7,-193.8 -1147.7,-193.8"
         style="fill:#371a45;fill-opacity:1;fill-rule:nonzero;stroke:none"
         id="path34" /><path
         d="m 24697.5,13307.1 c -56.3,-377 -124.1,-743.1 -203.9,-1089.4 -98.1,-425.5 -214.9,-820.3 -351.5,-1168.6 -821.3,-2095.9 -4541.1,-3374.6 -7487.5,-1453.4 -313.9,205 -1157.7,859.9 -1569.7,1895.6 -187.2,470.9 -285.8,1021.1 -204.4,1643.2 26.1,195.6 69.3,397.9 133,607 627.3,2056.8 2119.8,2541.8 3190.4,4671 l 6522.8,434.9 c 242.5,-1263.6 267,-3553.4 -29.2,-5540.3"
         style="fill:#ffffff;fill-opacity:1;fill-rule:nonzero;stroke:none"
         id="path36" /><path
         d="m 19646.2,10896.8 c -1,0 -2,0 -3,0 -840.7,6.3 -2962.2,66.3 -4288,496.8 -208.4,447.5 -336.8,980.6 -280.6,1592.5 41,-7.3 82.3,-14.4 123.7,-20.9 -134.2,-1080.1 29,-1344.4 212,-1454 259.7,-155.7 2448.6,-332.2 3731.2,-423.6 164.4,-19.3 316.1,-26.6 422.7,-29.2 1.7,-0.1 3.4,-0.1 5.1,-0.1 v 0 0 h 0.1 c 104.2,0 191.5,76.9 206.3,178.3 0,0.1 0,0.3 0.1,0.5 0,0 0,0.1 0,0.2 1.2,8.2 1.9,16.6 2.1,25 13.3,366.8 37.2,701 67.4,1002.3 441.1,-101.9 1032.5,-149.4 1652.2,-149.4 681.3,0 1396.4,57.4 1982.3,163.3 344.6,62.2 644.8,141.2 866.9,235.1 -29,-138.2 -59.9,-274 -92.8,-406.4 -776.5,-322.7 -1741.9,-409.1 -2553,-409.1 -935.9,-0.1 -1666.5,115 -1666.5,115 l -18.8,-559.1 c -6.8,-199.2 -170,-357.2 -369.4,-357.2 M 21750,13398 c -761.2,0 -1392.6,81.2 -1713.2,132.1 45.1,214 89.3,386.8 126.8,518.5 908.9,431.1 1570.8,836.1 1698,915.3 v 0 0 c 14,9 21.7,13.6 22.4,14 0.1,0 0,0 0.1,0 -1182.6,-917.8 -754.7,-1410.2 92,-1577.5 v 0 c -76.4,-1.7 -151.9,-2.4 -226.1,-2.4"
         style="fill:#d7d1da;fill-opacity:1;fill-rule:nonzero;stroke:none"
         id="path38" /><path
         d="m 18758.3,8959.9 c -698,136.7 -1373.5,408.5 -1989.9,810.4 -71.3,46.5 -309.3,209.2 -585.8,479 741.9,-443.7 1526.5,-692.2 2297.5,-782.3 l -92.1,-37.7 c 161.7,-131.2 278,-288.6 370.3,-469.4"
         style="fill:#d7d1da;fill-opacity:1;fill-rule:nonzero;stroke:none"
         id="path40" /><path
         d="m 19820.2,8439.4 c -1148.1,0 -2285.4,333.1 -3279.6,981.4 -261.5,170.5 -2531.2,1741.7 -1726.5,4381.5 355.2,1165.3 975.5,1843.3 1632.1,2561.1 539.2,589.3 1096.7,1198.8 1571.2,2143 51.7,102.9 177.1,144.3 280.1,92.6 102.9,-51.7 144.5,-177.1 92.7,-280 -500.5,-995.8 -1077.8,-1626.9 -1636.2,-2237.2 -651,-711.6 -1213.1,-1326.2 -1540.9,-2401.2 -715.8,-2348.3 1320.7,-3757.4 1555.3,-3910.3 1416.7,-923.8 3145.6,-1160.2 4743,-648.9 1182.2,378.4 2093,1127.5 2436.4,2003.8 839.4,2142 900.5,5981 573.8,7682.8 -21.7,113.2 52.4,222.5 165.5,244.2 113.2,22.1 222.5,-52.4 244.2,-165.6 335.9,-1750.1 271.2,-5703.1 -595.1,-7913.6 -388.7,-991.9 -1397.1,-1832.7 -2697.6,-2248.9 -595.8,-190.7 -1208.7,-284.7 -1818.4,-284.7"
         style="fill:#371a45;fill-opacity:1;fill-rule:nonzero;stroke:none"
         id="path42" /><path
         d="m 26240,6292.6 c -10.4,-596.6 -329,-842.2 -840.1,-922 -735.8,-115.2 -1180.1,623.2 -1180.1,623.2 -2404.1,-1387.7 -4066,-408.3 -4659.5,742.1 -350.4,678.4 -467.2,1290.1 -628.4,1788.7 -42.7,131.9 -88.6,256.5 -142.9,371.8 -0.5,1 -0.5,1.6 -0.5,1.6 -97,207 -220.6,385.3 -400.5,531.3 l 6024.8,2463 c -270.7,-969.9 -820.9,-1904.4 -1195.3,-2405.1 -151.2,-221.1 -115.8,-956.4 -115.8,-956.4 0,0 1360.6,586.7 1969.2,290 455.2,-222.2 999.1,-1261 1136.3,-2115.7 24.5,-153.3 35.5,-290.5 32.8,-412.5"
         style="fill:#ffffff;fill-opacity:1;fill-rule:nonzero;stroke:none"
         id="path44" /><path
         d="m 21982.7,5312.5 c -1199.3,-0.1 -2036.6,675.5 -2422.4,1423.4 -350.4,678.4 -467.2,1290.1 -628.4,1788.7 269.1,-632.6 924.1,-1897.7 2028.6,-2405.1 368.2,-169 747.9,-237 1120.1,-237 1514.1,0 2908.6,1124.1 2941.2,1150.1 -18.2,-34.4 -466.7,-903.7 61.6,-1257.3 88.7,-59.2 190.1,-87.5 296.8,-87.5 299.1,0 640,221.9 859.8,604.8 -10.4,-596.6 -329,-842.2 -840.1,-922 -53.2,-8.3 -105,-12.2 -155.1,-12.2 -642.8,0 -1025,635.4 -1025,635.4 -841.2,-485.6 -1591.6,-681.3 -2237.1,-681.3"
         style="fill:#d7d1da;fill-opacity:1;fill-rule:nonzero;stroke:none"
         id="path46" /><path
         d="m 18453.5,9510.2 c 492.4,-289.2 669.2,-882.6 822.8,-1390.4 98,-324.9 195.3,-644.2 325.3,-954.7 59.2,-144.5 133.8,-306.9 209.8,-442.8 437.4,-773.2 1322.7,-1222.1 2202.1,-1201 743.3,11.5 1460,283.5 2102.2,653.1 96,55.4 217.8,25.8 278,-65.6 16.2,-25.5 40.4,-60 61.1,-86.4 142.4,-185.3 343,-353.1 563.7,-419.5 l 45.8,-14.2 46.7,-8.1 c 42.7,-10.1 97.3,-11 141,-13 296.1,17.1 624.7,114.4 728.6,413.1 124.4,406.3 -2.3,877.5 -129.6,1277.9 -144.6,418.5 -510.5,1245.4 -942,1401.3 -512.1,128.2 -1242.2,-131.3 -1728.4,-322.4 -129.9,-57.5 -284,42.1 -287.1,183.1 -8,247.6 -5.9,484.4 32.2,730.7 16.9,107.5 50.6,252.8 123.6,358.8 78.3,105.5 152,212.9 223.9,322.5 402,623.5 736.5,1307.6 938.8,2015.8 30.6,111.7 146.8,177.2 258.2,145.5 110.8,-31.5 175.1,-146.8 143.7,-257.6 -173.9,-611.6 -435.1,-1185.9 -745.5,-1729.9 -146.8,-253.7 -305.1,-503.3 -479.8,-739 -97.4,-246.4 -80.5,-560.6 -78.4,-826.6 l -290.9,181.4 c 159.2,66.6 311.2,121.6 470.1,173.4 577,175.6 1439.9,421 1928.1,-71.3 623,-595.2 1245.7,-2142.6 955.4,-2985.5 -134.5,-395.6 -520.1,-610.5 -903.4,-667.5 -137.4,-24.1 -292.7,-28.7 -431.8,-1.4 -423.4,77.2 -767.3,367 -996.5,716.3 l 283,-73.1 c -308.2,-178 -632.2,-333.5 -971.7,-454.5 -1443.4,-542 -3070.4,-232.2 -3908.2,1147.4 -91.6,151.6 -173.2,325.7 -245.3,487.7 -214.5,474.7 -335.5,1016 -469.6,1499.9 -88.3,322.6 -198.6,606.7 -407.1,854.4 -77.3,86.8 25.7,223.3 131.2,162.2"
         style="fill:#371a45;fill-opacity:1;fill-rule:nonzero;stroke:none"
         id="path48" /><path
         d="m 16038.4,8025.6 c -15.6,0 -31.6,1.8 -47.5,5.5 -2273,529.6 -3184.2,2695.1 -3221.8,2787.1 -43.8,106.6 7.3,228.4 113.9,272.1 106.6,43.6 228.2,-7.3 272,-113.7 8.5,-20.5 871.3,-2059.4 2930.6,-2539.1 112.2,-26.2 181.9,-138.4 155.8,-250.5 -22.4,-96.3 -108.2,-161.4 -203,-161.4"
         style="fill:#371a45;fill-opacity:1;fill-rule:nonzero;stroke:none"
         id="path50" /><path
         d="m 21234.8,5198.2 c -81.1,0 -158.2,47.6 -192,127 -45.1,105.8 4,228.1 109.6,273.4 70.8,30.6 1732.5,772.8 1740.9,2933 0.4,114.8 93.7,207.7 208.6,207.7 h 0.8 c 115.2,-0.4 208.2,-94.2 207.8,-209.4 -9.6,-2441.7 -1913.1,-3280.4 -1994.1,-3314.9 -26.6,-11.4 -54.4,-16.8 -81.6,-16.8"
         style="fill:#371a45;fill-opacity:1;fill-rule:nonzero;stroke:none"
         id="path52" /><path
         d="m 19569.2,11267.1 c 0,0 -3773,256 -4051.5,422.9 -156.9,94.4 -180.9,473 -145.5,927.7 67.3,854.7 345.3,1975.9 345.3,1975.9 l 3498.6,94.9 68.3,-1277.1 79.3,-596 205.5,-1548.3"
         style="fill:#ffffff;fill-opacity:1;fill-rule:nonzero;stroke:none"
         id="path54" /><path
         d="m 18180,11579.9 c -655.9,53.6 -1266.7,110.4 -1729.6,162.5 l 40.3,509.3 c 187.5,44.5 315.9,136.7 403.7,241.1 68.5,-108.4 165.9,-173.4 271.8,-180.3 1.4,-0.1 2.8,-0.2 4.3,-0.3 l 449.2,-22.5 c 5,-0.3 9.9,-0.4 14.8,-0.4 193.4,0 358.4,190.7 409.1,458 37.9,-55.6 90.1,-104.3 161,-121.5 -46.6,-372.9 -79.9,-807.8 -24.6,-1045.9 m -2040.5,199.7 c -262.2,33.7 -443.9,64.4 -512.1,89.4 -16.7,23.9 -80.1,146.5 -56,601.5 168.3,-110.2 378.4,-212 604,-237.5 l -35.9,-453.4"
         style="fill:#d7d1da;fill-opacity:1;fill-rule:nonzero;stroke:none"
         id="path56" /><path
         d="m 19569.3,11058.3 c -4.7,0 -9.4,0.2 -14.1,0.5 -1149.5,78 -3854.4,278.2 -4144.9,452.4 -199.4,119.4 -375.3,422.5 -168.6,1764.1 106.7,693.2 266.6,1341.1 273.4,1368.4 22.6,91 103,155.7 196.8,158.3 l 3498.8,95.2 c 1.9,0.1 3.9,0.1 5.8,0.1 112.6,0 205.3,-89.7 208.4,-203 3.1,-115.1 -87.7,-211 -202.9,-214.1 l -3338.4,-90.9 c -51.6,-223.6 -147.7,-661.7 -220.4,-1118.5 -179.8,-1130.1 -59.7,-1367.5 -35.8,-1401.8 249.9,-91.8 2019.1,-258 3701.5,-376.4 l -251.2,1891.4 c -15.1,114.2 65.1,219 179.3,234.2 113.7,15.2 219.1,-65.1 234.3,-179.3 l 284.8,-2144.6 c 8.2,-62 -11.8,-124.4 -54.7,-170.1 -39.5,-42.2 -94.7,-65.9 -152.1,-65.9"
         style="fill:#371a45;fill-opacity:1;fill-rule:nonzero;stroke:none"
         id="path58" /><path
         d="m 16433,13506.4 -154.5,-1954.2 154.5,1954.2"
         style="fill:#ffffff;fill-opacity:1;fill-rule:nonzero;stroke:none"
         id="path60" /><path
         d="m 16278.6,11395.8 c -4.1,0 -8.3,0.1 -12.5,0.4 -86.1,6.8 -150.4,82.2 -143.6,168.4 l 154.5,1954.1 c 6.8,86.1 81.5,150.7 168.3,143.6 86.2,-6.8 150.5,-82.1 143.6,-168.3 l -154.5,-1954.1 c -6.5,-82 -75,-144.1 -155.8,-144.1"
         style="fill:#371a45;fill-opacity:1;fill-rule:nonzero;stroke:none"
         id="path62" /><path
         d="m 19492.5,13429.5 -1.2,9.4 c -13.9,104.9 -104,181.2 -206.7,181.2 -3.7,0 -7.5,-0.1 -11.3,-0.4 l -1.9,35.8 c 137,55.6 271.4,112.4 402.1,169.6 -23.1,-98.5 -47,-207.5 -70.7,-327.2 -35.8,-18.2 -73.4,-40.7 -110.3,-68.4"
         style="fill:#b7acbc;fill-opacity:1;fill-rule:nonzero;stroke:none"
         id="path64" /><path
         d="m 18654.5,12835.3 c 11.6,77.3 24.5,157.9 38.8,241.7 23.5,138 47.9,266 72.5,384 171.9,62.4 340.6,127.5 505.6,194.5 l 1.9,-35.8 c -5.4,-0.2 -10.8,-0.8 -16.3,-1.5 -114.2,-15.2 -194.4,-120 -179.3,-234.2 l 39.8,-299.7 c -32.5,15.9 -65.7,24.4 -99.5,24.4 -73.5,0 -150,-40.1 -229,-131.2 -47.3,-54.5 -92.1,-101.7 -134.5,-142.2"
         style="fill:#d7d1da;fill-opacity:1;fill-rule:nonzero;stroke:none"
         id="path66" /><path
         d="m 19328.9,11492.6 c -37,2.6 -74,5.3 -111.1,7.9 -311.6,35.8 -576,103.4 -632,170.5 -32.3,94.7 -28.5,513.7 68.7,1164.3 42.4,40.5 87.2,87.7 134.5,142.2 79,91.1 155.5,131.2 229,131.2 33.8,0 67,-8.5 99.5,-24.4 l 211.4,-1591.7"
         style="fill:#b7acbc;fill-opacity:1;fill-rule:nonzero;stroke:none"
         id="path68" /><path
         d="m 19369.8,11485.9 c -51.4,4 -102.3,8.9 -152,14.6 37.1,-2.6 74.1,-5.3 111.1,-7.9 l -211.4,1591.7 -39.8,299.7 c -15.1,114.2 65.1,219 179.3,234.2 5.5,0.7 10.9,1.3 16.3,1.5 3.8,0.3 7.6,0.4 11.3,0.4 102.7,0 192.8,-76.3 206.7,-181.2 l 1.2,-9.4 c -77.5,-58.1 -152,-139 -200.4,-250.7 -30.8,-70.9 -50.7,-154.2 -54.6,-252.3 -8.7,-232.4 94.1,-384.7 206.7,-481.2 -31.5,-288.8 -57.5,-608.4 -74.4,-959.4"
         style="fill:#371a45;fill-opacity:1;fill-rule:nonzero;stroke:none"
         id="path70" /><path
         d="m 18585.8,11671 c 64.9,-77.8 410.1,-156.2 784,-185.1 74.3,1540.1 323.4,2477 444.3,2851.6 -282.5,120 -630.6,202.8 -741.3,95.1 -74,-73.6 -240.7,-542.8 -379.5,-1355.6 -134.6,-788.2 -143.6,-1300 -107.5,-1406 m 983.6,-612.7 c -1.8,0 -3.5,0 -5.2,0.1 -346.9,8.5 -1172.9,66.8 -1351.5,425.2 -142.5,285.9 -1.8,1242.2 65.3,1640 84.3,499.6 261.9,1372.8 504.1,1608.2 403,391.4 1227.9,-16.6 1389.2,-102.4 94.7,-50.4 135.7,-164.3 95,-263.4 -5.9,-14.6 -413.4,-1038.8 -488.6,-3106.7 -4,-112.4 -96.4,-201 -208.3,-201"
         style="fill:#371a45;fill-opacity:1;fill-rule:nonzero;stroke:none"
         id="path72" /><path
         d="m 19716.8,12297.1 c 0,0 -498.1,129.1 -479.2,629.5 20.9,555.1 571.4,643.5 571.4,643.5 0,0 2676.2,-553.1 4816.5,323.6 0,0 700.7,-779 -73.1,-1274.6 -773.9,-495.6 -3576,-669.4 -4835.6,-322"
         style="fill:#ffffff;fill-opacity:1;fill-rule:nonzero;stroke:none"
         id="path74" /><path
         d="m 21497.5,12115.2 c -619.7,0 -1211.1,47.5 -1652.2,149.4 0,0.1 0,0 0,0.1 441.1,-101.9 1032.6,-149.4 1652.3,-149.4 681.3,0 1396.2,57.4 1982.2,163.2 -585.9,-105.9 -1301,-163.3 -1982.3,-163.3"
         style="fill:#b7acbc;fill-opacity:1;fill-rule:nonzero;stroke:none"
         id="path76" /><path
         d="m 19444.2,12445.3 c -112.6,96.5 -215.4,248.8 -206.7,481.2 3.9,98.1 23.8,181.4 54.6,252.3 -30.7,-70.9 -50.8,-154.3 -54.5,-252.2 -8.8,-232.4 94,-384.8 206.6,-481.2 v -0.1"
         style="fill:#371a45;fill-opacity:1;fill-rule:nonzero;stroke:none"
         id="path78" /><path
         d="m 19845.3,12264.6 c -44.4,10.2 -87.3,21 -128.5,32.4 0,0 -142.8,37.1 -272.6,148.3 v 0.1 c 129.8,-111.3 272.6,-148.3 272.6,-148.3 41.2,-11.3 84.2,-22.1 128.5,-32.4 0,-0.1 0,0 0,-0.1"
         style="fill:#371a45;fill-opacity:1;fill-rule:nonzero;stroke:none"
         id="path80" /><path
         d="m 24914.7,13158.5 c -0.1,0 -0.1,0 -0.2,0 3.9,52.5 1.3,104.5 -6.1,155.1 0,0.2 0,0.2 0,0.4 7.5,-50.8 10.2,-102.9 6.3,-155.5"
         style="fill:#d7d1da;fill-opacity:1;fill-rule:nonzero;stroke:none"
         id="path82" /><path
         d="m 24845.9,12919.3 c 0,0.2 0.1,0.4 0.1,0.6 41.7,78.8 62.5,159.4 68.5,238.6 0.1,0 0.1,0 0.2,0 -6,-79.5 -26.9,-160.2 -68.8,-239.2"
         style="fill:#371a45;fill-opacity:1;fill-rule:nonzero;stroke:none"
         id="path84" /><path
         d="m 24646.2,12686.1 c 92.7,74.1 157.2,153.1 199.8,233.8 0,-0.2 -0.1,-0.4 -0.1,-0.6 -42.7,-80.5 -107.1,-159.3 -199.7,-233.2 m 262.2,627.5 c -5.5,37.4 -13.7,74.2 -23.7,109.8 v 0 c 10.1,-35.5 18.2,-72.1 23.7,-109.4 0,-0.2 0,-0.2 0,-0.4"
         style="fill:#371a45;fill-opacity:1;fill-rule:nonzero;stroke:none"
         id="path86" /><path
         d="m 21497.6,12115.3 c -619.7,0 -1211.2,47.5 -1652.3,149.4 -44.3,10.3 -87.3,21.1 -128.5,32.4 0,0 -142.8,37 -272.6,148.3 -112.6,96.4 -215.4,248.8 -206.6,481.2 3.7,97.9 23.8,181.3 54.5,252.2 6.6,15 13.6,29.4 21,43.3 104.8,-318.1 449.6,-407.8 449.6,-407.8 450.7,-124.2 1099.1,-181.8 1781.1,-181.8 1224.3,0 2557.6,185.4 3054.6,503.6 138.7,88.6 229.9,186.6 286.3,287.3 10,-35.6 18.2,-72.4 23.7,-109.8 7.4,-50.6 10,-102.6 6.1,-155.1 -6,-79.2 -26.8,-159.8 -68.5,-238.6 -42.6,-80.7 -107.1,-159.7 -199.8,-233.8 -28.5,-22.8 -59.7,-45 -93.7,-66.8 -220.4,-141.3 -605.7,-256.4 -1072.7,-340.8 -586,-105.8 -1300.9,-163.2 -1982.2,-163.2"
         style="fill:#d7d1da;fill-opacity:1;fill-rule:nonzero;stroke:none"
         id="path88" /><path
         d="m 19810.9,13357.1 c -94.8,-24.9 -352.9,-121.8 -364.8,-438.3 -12,-317.4 290.2,-410.6 324.8,-420.2 l -54,-201.5 55.4,201.1 c 1208.5,-333.3 3956.7,-158.7 4667.6,296.5 158.6,101.7 244.9,217.2 263.8,353.1 24.2,175.2 -67.6,367.5 -149.5,493.9 -2017.7,-759.8 -4380.4,-354 -4743.3,-284.6 z M 21518.3,11909 c -721.5,0 -1401.3,61.7 -1855.4,186.6 -228.9,60 -653.7,311.7 -633.7,838.9 21.6,574.2 497.9,801.6 746.7,841.6 24.9,4 50.5,3.4 75.2,-1.7 26.2,-5.3 2640.8,-529.2 4695.3,312.4 81.4,33.4 175.2,12 234.2,-53.5 16.5,-18.4 402.4,-453.9 336.7,-940 -35.4,-261.6 -187.6,-480.3 -452.4,-649.9 -551.8,-353.4 -1910.2,-534.3 -3146.6,-534.4"
         style="fill:#371a45;fill-opacity:1;fill-rule:nonzero;stroke:none"
         id="path90" /><path
         d="m 17954.3,12877.9 c -13.9,-275.9 -161.3,-492.5 -329.4,-484.1 l -449.2,22.6 50.1,998.3 449.2,-22.6 c 168.1,-8.4 293.1,-238.7 279.3,-514.2"
         style="fill:#22a7f0;fill-opacity:1;fill-rule:nonzero;stroke:none"
         id="path92" /><path
         d="m 17953.2,12863.3 c -18,-268.9 -163.2,-477.8 -328.3,-469.5 l -449.2,22.6 50.1,998.3 181.6,-9.1 -27.9,-555.9 449.2,-22.6 c 43.4,-2.1 85.7,10.7 124.5,36.2"
         style="fill:#1c7aea;fill-opacity:1;fill-rule:nonzero;stroke:none"
         id="path94" /><path
         d="m 17954.3,12877.9 h 0.5 -0.5 m -669.2,-362.6 345,-17.3 c 1.4,-0.1 2.7,-0.1 4.1,-0.1 93.6,0 204.7,162.2 216,385.2 11.3,226 -85.9,400.1 -180.4,404.9 l -345,17.3 -39.7,-790 m 349.4,-226 c -4.9,0 -9.8,0.1 -14.8,0.4 l -449.2,22.5 c -27.7,1.4 -53.6,13.7 -72.1,34.2 -18.6,20.5 -28.3,47.6 -26.9,75.2 l 50.2,998.3 c 2.9,57.5 53.2,102 109.4,99 l 449.2,-22.6 c 229,-11.5 395.1,-285.5 378.2,-623.6 -16.7,-331.1 -201.5,-583.4 -424,-583.4"
         style="fill:#371a45;fill-opacity:1;fill-rule:nonzero;stroke:none"
         id="path96" /><path
         d="m 17505,12900.3 c -13.8,-275.7 -161.2,-492.3 -329.3,-483.9 -168,8.4 -293,238.8 -279.1,514.4 13.8,275.7 161.2,492.4 329.3,483.9 168,-8.4 293,-238.7 279.1,-514.4"
         style="fill:#22a7f0;fill-opacity:1;fill-rule:nonzero;stroke:none"
         id="path98" /><path
         d="m 17505.1,12900.3 c -13.9,-275.9 -161.2,-492.5 -329.4,-484.1 -167.9,8.5 -292.8,238.8 -279,514.7 0.9,16.8 2.3,33.2 4.2,49.3 41.6,-164.6 138.7,-280.9 257.1,-286.9 158.1,-7.9 297.6,182.8 325.2,434.4 18,-68.8 25.9,-146.2 21.9,-227.4"
         style="fill:#1c7aea;fill-opacity:1;fill-rule:nonzero;stroke:none"
         id="path100" /><path
         d="m 17216.7,13310.7 c -93.7,0 -204.8,-162.2 -216,-385.1 -5.6,-112.8 15.9,-223.1 58.9,-302.5 34.3,-63 78.4,-100.4 121.4,-102.5 94.3,-4.9 208.5,158.9 219.9,384.9 5.6,112.9 -15.8,223.1 -58.9,302.5 -34.2,63.1 -78.4,100.4 -121.3,102.6 -1.4,0.1 -2.7,0.1 -4,0.1 m -31.3,-998.8 c -5,0 -9.9,0.1 -14.9,0.4 -117.2,5.8 -224.5,82.9 -294.2,211.3 -61.7,113.8 -91.5,260.2 -83.9,412.4 17,338.4 208.3,594.2 438.7,582.9 117.3,-5.9 224.5,-83 294.2,-211.4 61.8,-113.8 91.6,-260.2 83.9,-412.4 -16.7,-331 -201.5,-583.2 -423.8,-583.2"
         style="fill:#371a45;fill-opacity:1;fill-rule:nonzero;stroke:none"
         id="path102" /><path
         d="m 31574.1,23877.4 c 0,0 1215.9,-1361.6 1225.7,-1722.9 18.3,-669.8 -1623.7,-3696.9 -2836.1,-4078.4 -474.7,-149.4 -2922.6,753.3 -2922.6,753.3 l 4533,5048"
         style="fill:#ffffff;fill-opacity:1;fill-rule:nonzero;stroke:none"
         id="path104" /><path
         d="m 29814.5,18258.8 c -231.1,0 -747.8,124.7 -1345.3,304.7 576.6,376.1 1112.1,830.5 1590,1360.1 3.6,3.5 7,7.1 10.4,10.8 28.6,31.8 56.9,63.8 85,96.1 411.2,-461 800.5,-582.2 1044.4,-605.9 -429,-567.2 -893.7,-1029.2 -1295.9,-1155.8 -21.5,-6.8 -51.3,-10 -88.6,-10"
         style="fill:#d7d1da;fill-opacity:1;fill-rule:nonzero;stroke:none"
         id="path106" /><path
         d="m 23351.1,24102.5 -13.6,-26.1 -9.9,21.5 z"
         style="fill:#d8d8d8;fill-opacity:1;fill-rule:nonzero;stroke:none"
         id="path108" /><path
         d="m 23327.6,24097.9 -23.2,-4.2 13.5,26.1 z"
         style="fill:#d8d8d8;fill-opacity:1;fill-rule:nonzero;stroke:none"
         id="path110" /><path
         d="m 16959.8,24071.3 c 0,0 -2144.8,1485.6 -2295,1960 -149.9,472.7 -7.5,1231.3 255.7,2001.7 l -0.2,0.7 c 410.3,1202.7 1113.5,2436 1454.2,2661.5 301.3,199.4 2114.4,-13.6 2114.4,-13.6 l -745.8,-3223.8 -783.3,-3386.5"
         style="fill:#ffffff;fill-opacity:1;fill-rule:nonzero;stroke:none"
         id="path112" /><path
         d="m 16959.8,24071.3 c 0,0 -2144.8,1485.6 -2295,1960 -149.9,472.7 -7.5,1231.3 255.7,2001.7 13.5,-36 460.6,-1157.8 2818.4,-576.2 1.3,0.4 3,0.6 4.2,1 l -783.3,-3386.5"
         style="fill:#d8d8d8;fill-opacity:1;fill-rule:nonzero;stroke:none"
         id="path114" /><path
         d="m 27391.7,18917.4 c 1082.4,-383.5 2279,-721.7 2511.4,-648.6 1115.5,351 2711.2,3282.3 2694.9,3880.2 -15.2,168.3 -517.6,837.7 -1025.5,1424.3 l -4180.8,-4655.9 m 2440.9,-1056.9 c -688.9,0 -2330.9,583.8 -2861.3,779.4 l -279.3,102.9 4882.5,5437.4 150.2,-168.3 c 380.4,-426 1266.3,-1459.1 1277.1,-1851.9 20.3,-744.8 -1651.1,-3859.2 -2977.5,-4276.5 -50.2,-15.8 -115.1,-23 -191.7,-23"
         style="fill:#371a45;fill-opacity:1;fill-rule:nonzero;stroke:none"
         id="path116" /><path
         d="m 16995.8,30578.4 c -257.6,0 -447.6,-15.8 -510.9,-52.2 -497.8,-329.5 -1981,-3319.3 -1627.6,-4434 73.5,-232 1037.9,-1017.6 1973.4,-1683.4 l 1410.2,6096.6 c -440.7,45 -902.6,73 -1245.1,73 m 93.9,-6842.6 -244.7,169.4 c -516.5,357.7 -2213.9,1563.7 -2372.8,2064.9 -420.1,1325.5 1169.4,4482.4 1790.8,4893.6 327.7,216.8 1682.3,84.9 2249.5,18.2 l 224,-26.3 -1646.8,-7119.8"
         style="fill:#371a45;fill-opacity:1;fill-rule:nonzero;stroke:none"
         id="path118" /><path
         d="m 31056.9,21714.1 c -2016.4,-3877.9 -6794.7,-5387 -10672.6,-3370.6 -3877.9,2016.4 -5386.9,6794.7 -3370.5,10672.6 2016.4,3878 6794.7,5387 10672.6,3370.6 3877.9,-2016.4 5386.9,-6794.7 3370.5,-10672.6"
         style="fill:#ffffff;fill-opacity:1;fill-rule:nonzero;stroke:none"
         id="path120" /><path
         d="m 24506.1,17669.1 c -94.6,253.3 -213,490.4 -361,692.7 123.4,-5.3 247.1,-7.9 370.4,-7.9 1634.8,0 3251.7,457.5 4608.3,1215.6 -1291,-1131 -2924,-1794.1 -4617.7,-1900.4 m -3551.8,626.1 c -160.6,70 -319.6,145.9 -476.9,227.7 -258.7,134.5 -507.3,282.2 -744.9,441.7 -127.1,442.3 -277.2,891.9 -447.9,1339.2 465.6,-415.6 985.2,-780 1558.4,-1078.1 323.2,-168.1 653.8,-310 989.8,-427.5 -282.2,-128.4 -571.8,-301.9 -878.5,-503 m -4300.6,6376.4 c -104.8,105.7 -211,206.3 -318.9,301.8 -7.1,135.1 -10.6,270.8 -10.6,406.5 0.1,273.9 14.8,548.7 44.4,823.1 52.2,-509.5 147.4,-1023.4 285.1,-1531.4"
         style="fill:#d7d1da;fill-opacity:1;fill-rule:nonzero;stroke:none"
         id="path122" /><path
         d="m 24048.1,33076.3 c -2787.6,0 -5482.7,-1513.9 -6855.1,-4153.3 -1961.8,-3772.9 -488.4,-8438.5 3284.5,-10400.3 1133.4,-589.3 2348,-868.7 3545.1,-868.8 2787.6,-0.2 5482.7,1513.9 6855.1,4153.4 950.4,1827.6 1132.1,3916 511.8,5880.3 -620.4,1964.4 -1968.6,3569.6 -3796.3,4519.9 -1133.4,589.4 -2348,868.8 -3545.1,868.8 m -26.2,-15826.2 c -1260,0 -2537.7,293.9 -3730.7,914.2 -3970.5,2064.6 -5521.2,6974.5 -3456.6,10945 2064.6,3970.6 6974.6,5521.1 10944.9,3456.6 1923.5,-1000.1 3342.3,-2689.4 3995.1,-4756.6 652.9,-2067.2 461.6,-4265 -538.5,-6188.4 -1444.2,-2777.4 -4280.9,-4370.8 -7214.2,-4370.8"
         style="fill:#371a45;fill-opacity:1;fill-rule:nonzero;stroke:none"
         id="path124" /><path
         d="m 24048.1,33076.3 c -2787.6,0 -5482.7,-1513.9 -6855.1,-4153.3 -1961.8,-3772.9 -488.4,-8438.5 3284.5,-10400.3 1133.4,-589.3 2348,-868.7 3545.1,-868.8 2787.6,-0.2 5482.7,1513.9 6855.1,4153.4 950.4,1827.6 1132.1,3916 511.8,5880.3 -620.4,1964.4 -1968.6,3569.6 -3796.3,4519.9 -1133.4,589.4 -2348,868.8 -3545.1,868.8 m -26.2,-15826.2 c -1260,0 -2537.7,293.9 -3730.7,914.2 -3970.5,2064.6 -5521.2,6974.5 -3456.6,10945 2064.6,3970.6 6974.6,5521.1 10944.9,3456.6 1923.5,-1000.1 3342.3,-2689.4 3995.1,-4756.6 652.9,-2067.2 461.6,-4265 -538.5,-6188.4 -1444.2,-2777.4 -4280.9,-4370.8 -7214.2,-4370.8"
         style="fill:#371a45;fill-opacity:1;fill-rule:nonzero;stroke:none"
         id="path126" /><path
         d="m 24048.1,33076.3 c -2787.6,0 -5482.7,-1513.9 -6855.1,-4153.3 -1961.8,-3772.9 -488.4,-8438.5 3284.5,-10400.3 1133.4,-589.3 2348,-868.7 3545.1,-868.8 2787.6,-0.2 5482.7,1513.9 6855.1,4153.4 950.4,1827.6 1132.1,3916 511.8,5880.3 -620.4,1964.4 -1968.6,3569.6 -3796.3,4519.9 -1133.4,589.4 -2348,868.8 -3545.1,868.8 m -26.2,-15826.2 c -1260,0 -2537.7,293.9 -3730.7,914.2 -3970.5,2064.6 -5521.2,6974.5 -3456.6,10945 2064.6,3970.6 6974.6,5521.1 10944.9,3456.6 1923.5,-1000.1 3342.3,-2689.4 3995.1,-4756.6 652.9,-2067.2 461.6,-4265 -538.5,-6188.4 -1444.2,-2777.4 -4280.9,-4370.8 -7214.2,-4370.8"
         style="fill:#371a45;fill-opacity:1;fill-rule:nonzero;stroke:none"
         id="path128" /><path
         d="m 16517.8,27091.9 c -789.3,-3422.7 838.7,-6946.2 3959.6,-8569 3120.6,-1622.5 6939.8,-931.9 9289.1,1679.3 3.8,4.3 7.7,8.4 11.7,12.3 429.1,479.2 798.9,1015.1 1099.3,1592.9 133,255.8 252.4,520.3 354.8,786.3 1417.2,3665.2 -147.4,7798.1 -3639.3,9613.8 -3490.7,1815.1 -7771.9,722.9 -9958.4,-2540.6 -158.9,-235.5 -307.3,-485.6 -441.7,-743.9 -300.8,-578.7 -526.8,-1189.1 -671.9,-1814.7 -0.8,-5.5 -1.9,-11 -3.2,-16.4 m 7518.5,-9844.3 c -1272.7,0 -2557,299 -3745.2,916.9 -3280.7,1705.9 -4993.9,5407.7 -4169.7,9006.1 0.8,4.9 1.7,9.8 2.9,14.7 152.5,663.6 391.5,1310.9 710.2,1924 141.4,271.9 297.8,535.3 464.9,782.9 1103.5,1647.2 2773.6,2830 4702.3,3329.9 1943,503.7 3995.1,270.7 5777.7,-656.2 3674.7,-1910.8 5321.1,-6260.4 3829.8,-10117.6 -107.7,-279.7 -233.4,-558.2 -373.3,-827.2 -318.3,-612.2 -710.7,-1179.6 -1166.3,-1686.7 -3.4,-3.7 -6.8,-7.3 -10.4,-10.8 -1577.2,-1748.2 -3782,-2675.9 -6022.9,-2676"
         style="fill:#371a45;fill-opacity:1;fill-rule:nonzero;stroke:none"
         id="path130" /><path
         d="m 23302.6,32723.2 c 1368.1,0 2755.8,-328.5 4040.5,-996.5 1515,-787.8 2751.1,-1977.1 3575,-3439.4 314.4,-558.1 561.5,-1141.9 739.1,-1741 -370.8,2371.3 -1841.4,4505.8 -4063.9,5661.4 -2212.3,1150.3 -4791.5,1133.4 -6940.2,88.8 851.1,283.4 1746,426.7 2649.5,426.7 M 31770,23480.8 c -9.6,0 -19.4,0.7 -29.1,2.1 -104.9,15.2 -180.2,108.9 -172.5,214.6 229.4,3147 -1502.2,6158 -4411.6,7670.8 -2907.4,1511.8 -6365.6,1201.3 -8810.1,-791.2 -82,-67 -202,-59.1 -274.6,18.1 -72.6,77.2 -73.3,197.4 -1.5,275.3 2473.2,2684.7 6465.6,3382 9709,1695.6 3245.3,-1687.5 4967.3,-5358.1 4187.5,-8926.4 -20.5,-93.9 -103.6,-158.9 -197.1,-158.9"
         style="fill:#371a45;fill-opacity:1;fill-rule:nonzero;stroke:none"
         id="path132" /><path
         d="m 31056.4,21714.1 c -316,-607.7 -700,-1158.1 -1137.4,-1644.8 l -0.9,-0.3 c -2441.8,-1720 -6081.6,-2399.7 -9075.4,-843.1 -2993.8,1556.7 -4527.2,4926.4 -4521.6,7913.1 l -0.3,1 c 146.7,637.9 376.6,1268.3 692.7,1876.1 138.1,265.7 289.3,520.5 453,763.1 2310.1,2128.4 6061.5,2586.9 9326.1,889.4 3265.3,-1697.8 5044.5,-5033.7 4628,-8147.5 -105,-272.4 -226.4,-541.9 -364.2,-807"
         style="fill:#371a45;fill-opacity:1;fill-rule:nonzero;stroke:none"
         id="path134" /><path
         d="m 24515.5,18353.9 c -123.3,0 -247,2.6 -370.4,7.9 0,0 -0.1,0.1 -0.2,0.2 123.5,-5.3 246.9,-7.9 370.2,-7.9 1635.4,0 3253.3,458 4610.2,1216.6 -0.6,-0.4 -0.9,-0.8 -1.5,-1.2 -1356.6,-758.1 -2973.5,-1215.6 -4608.3,-1215.6"
         style="fill:#92919c;fill-opacity:1;fill-rule:nonzero;stroke:none"
         id="path136" /><path
         d="m 29123.8,19569.5 c 0.6,0.4 0.9,0.8 1.5,1.2 2.9,1.6 5.6,3.2 8.5,4.8 -0.4,-0.4 -0.9,-0.8 -1.4,-1.2 -2.7,-1.6 -5.8,-3.3 -8.6,-4.8"
         style="fill:#2a1a3b;fill-opacity:1;fill-rule:nonzero;stroke:none"
         id="path138" /><path
         d="m 29132.4,19574.3 c 0.5,0.4 1,0.8 1.4,1.2 272.6,152.7 534.8,317.7 784.3,493.5 l 0.9,0.3 c 437.4,486.7 821.4,1037.1 1137.4,1644.8 137.8,265.1 259.2,534.6 364.2,807 1.3,10 2.6,20.1 3.9,30.2 -1.1,-10.3 -2.1,-20.3 -3.8,-30.6 -104.9,-272.3 -226.3,-541.8 -364.1,-806.9 -316,-607.7 -700,-1158.1 -1137.4,-1644.9 l -0.9,-0.3 c -250.1,-176.1 -512.7,-341.3 -785.9,-494.3"
         style="fill:#2a1a3b;fill-opacity:1;fill-rule:nonzero;stroke:none"
         id="path140" /><path
         d="m 21832.8,18798.2 c -336,117.5 -666.6,259.4 -989.8,427.5 -573.2,298.1 -1092.8,662.5 -1558.4,1078.1 v 0 c 465.5,-415.4 985.1,-779.9 1558.1,-1077.9 323.5,-168.1 654.1,-310.1 990.3,-427.6 -0.1,0 -0.1,0 -0.2,-0.1"
         style="fill:#92919c;fill-opacity:1;fill-rule:nonzero;stroke:none"
         id="path142" /><path
         d="m 24515.1,18354.1 c -123.3,0 -246.7,2.6 -370.2,7.9 -189.8,259.3 -428.3,461.3 -728.2,567.3 -208.3,73.7 -410.6,107.3 -610.8,107.3 -324.8,0 -643.9,-88.5 -972.9,-238.3 -336.2,117.5 -666.8,259.5 -990.3,427.6 -573,298 -1092.6,662.5 -1558.1,1077.9 -630.8,1652.4 -1544.4,3272 -2630.7,4367.6 -220.3,812.5 -331.7,1640.1 -332.6,2440.8 188,178.2 382.2,322.1 559.7,435.5 756.7,-2318.8 2304.1,-4467.1 4614.6,-5668.4 1325.6,-689.3 2763.1,-994.2 4187.9,-994.2 221.1,0 441.6,7.3 661.7,21.6 4.8,-5.2 9.9,-10.4 15,-15.4 94,-92.5 219,-137.7 350.1,-137.7 163.8,0 337,70.4 471.6,207.2 12.8,13 24.9,26.3 36.5,40 1522.4,228.2 2977.3,782.5 4207.2,1560.6 -0.4,-3.4 -0.7,-6.8 -1.1,-10.1 -1.3,-10.1 -2.6,-20.2 -3.9,-30.2 -105,-272.4 -226.4,-541.9 -364.2,-807 -316,-607.7 -700,-1158.1 -1137.4,-1644.8 l -0.9,-0.3 c -249.5,-175.8 -511.7,-340.8 -784.3,-493.5 -2.9,-1.6 -5.6,-3.2 -8.5,-4.8 v 0 c -1356.9,-758.6 -2974.8,-1216.6 -4610.2,-1216.6"
         style="fill:#2a1a3b;fill-opacity:1;fill-rule:nonzero;stroke:none"
         id="path144" /><path
         d="m 28740.1,21978.5 c -173.2,0 -335.9,47.8 -471.7,148.5 -438.1,325.2 -429.5,1079 19.3,1683.6 309.8,417.4 748.2,654.5 1134.2,654.5 173.2,0 336,-47.8 471.7,-148.5 438.1,-325.2 429.5,-1078.9 -19.3,-1683.6 -309.7,-417.3 -748.2,-654.5 -1134.2,-654.5"
         style="fill:#9b8da2;fill-opacity:1;fill-rule:nonzero;stroke:none"
         id="path146" /><path
         d="m 26345.2,20906.7 c -195.1,210.4 -165.5,566.9 71,807.3 134.5,136.8 307.8,207.2 471.5,207.2 131.1,0 256.1,-45.2 350.1,-137.7 200.3,-197 188.4,-537.9 -19.4,-782.7 -289,-43.4 -580.5,-74.9 -873.2,-94.1"
         style="fill:#9b8da2;fill-opacity:1;fill-rule:nonzero;stroke:none"
         id="path148" /><path
         d="m 26710.3,20753.6 c -131.1,0 -256.1,45.2 -350.1,137.7 -5.1,5 -10.2,10.2 -15,15.4 292.7,19.2 584.2,50.7 873.2,94.1 -11.6,-13.7 -23.7,-27 -36.5,-40 -134.6,-136.8 -307.8,-207.2 -471.6,-207.2"
         style="fill:#958d9d;fill-opacity:1;fill-rule:nonzero;stroke:none"
         id="path150" /><path
         d="m 17667,25981.8 c 0,0 628.3,4020.3 3189.6,4479.6 371.7,66.6 746.7,95.4 1115,95.4 2169.2,0 4120.1,-996.6 3993,-1117.9 0,0 -702.2,158.3 -1687.6,158.3 -1165.6,0 -2727.6,-221.4 -3993.8,-1187.8 C 18481.4,27034.1 17667,25981.8 17667,25981.8"
         style="fill:#9b8da2;fill-opacity:1;fill-rule:nonzero;stroke:none"
         id="path152" /><path
         d="m 24220,5993.7 c 0,0 532.2,371.4 802.2,1040.1"
         style="fill:#ffffff;fill-opacity:1;fill-rule:nonzero;stroke:none"
         id="path154" /><path
         d="m 24100.6,6164.8 c 348.3,220.1 635.7,541.5 824.9,908 57.9,117.2 233.5,46.1 193.4,-78.1 -149.1,-450.4 -420,-860.4 -779.6,-1172.1 -241.8,-189.7 -500.7,180.8 -238.7,342.2"
         style="fill:#371a45;fill-opacity:1;fill-rule:nonzero;stroke:none"
         id="path156" /><path
         d="m 11114.4,28576.4 c 0,0 678.4,-169.7 1016.4,151.4 338.1,321.1 952.2,597.2 1583.2,411.3 631,-185.9 858,-718.6 1792.4,-500.2 934.4,218.5 -665.6,-1359 -682.5,-1359 -16.9,0 -3709.5,321.1 -3709.5,321.1 v 661.5 313.9"
         style="fill:#ad825a;fill-opacity:1;fill-rule:nonzero;stroke:none"
         id="path158" /><path
         d="m 11323.1,27792.2 c 1152.8,-100.2 3006.2,-261.1 3428.1,-297 195.2,187.7 643.7,676.7 791.5,938.1 -698.3,-160.1 -1070.2,66.4 -1398.6,266.1 -156.6,95.3 -304.5,185.2 -489.1,239.6 -526.6,155.1 -1072.8,-70.2 -1380.5,-362.4 -276.8,-263 -696.3,-272.1 -963.4,-244.2 7.8,-21.9 12,-45.4 12,-69.9 v -470.3 m 3500.8,-720.9 c -12.2,0 -25.9,0 -3727.5,321.9 -107.8,9.4 -190.5,99.6 -190.5,207.8 v 661.5 c 0,62.6 27.5,118.7 71.2,156.9 -57,49.9 -84.6,129.2 -65,207.7 27.9,111.6 140.5,179.5 252.6,151.8 158.3,-39 615,-96.9 822.5,100.1 365.5,347.3 1052.5,676.2 1785.7,460.2 236.9,-69.8 423.4,-183.3 587.9,-283.3 312.2,-189.9 558.8,-340 1098.1,-213.8 84.8,19.8 342.9,80.1 482.3,-93.5 88.8,-110.5 88.6,-260.7 -0.4,-446.4 -89.5,-186.8 -279.9,-441.4 -565.8,-756.7 -430.2,-474.2 -465.6,-474.2 -551.1,-474.2"
         style="fill:#371a45;fill-opacity:1;fill-rule:nonzero;stroke:none"
         id="path160" /><path
         d="m 17497.9,28090.5 c 0,0 -2142.5,-734.9 -2314.9,-2871.2 -108,-1339.7 -1219.7,-1110.7 -2033.6,-753.4 -213.5,93.5 -407.2,196.1 -556.3,281.3 -188.8,108.5 -307.5,188.9 -307.5,188.9 0,0 -118.1,1548.9 -2653.29,2974.8 0,0 591.69,1005.7 1938.19,564.6 1089.9,-356.9 2052.5,-801.4 2911.9,-390.3 672,321 1740.2,1383.8 3015.5,5.3"
         style="fill:#e2af76;fill-opacity:1;fill-rule:nonzero;stroke:none"
         id="path162" /><path
         d="m 13721.8,27597.4 c -657.9,0 -1372,300 -2151.3,555.1 -242.1,79.3 -459.8,111.8 -654.1,111.8 -420,0 -730.4,-152 -940.71,-311.8 -10.27,6.2 -20.75,12.4 -31.1,18.6 162.81,169.7 478.91,407 973.61,407 173.5,0 369.1,-29.2 587.6,-100.8 149.1,-48.8 297.9,-100 441.8,-149.5 615.7,-211.9 1208.6,-415.9 1776.5,-415.9 289.4,0 572.3,53 848.3,184.9 119.3,57 245.8,133 379.7,213.5 371.4,223.1 770.1,462.7 1211.6,462.7 300.1,0 620,-110.7 964.5,-412.2 -14.5,-7 -29.5,-14.2 -44.8,-21.7 -322.3,230.6 -629,317.1 -916.5,317.1 -686.3,0 -1263.2,-492.8 -1684.5,-693.9 -244.9,-117.2 -498.3,-164.8 -760.6,-164.9"
         style="fill:#f1d7bb;fill-opacity:1;fill-rule:nonzero;stroke:none"
         id="path164" /><path
         d="m 13185.3,24623.8 c -12.1,-54.7 -24.3,-107.5 -35.9,-157.9 -213.5,93.5 -407.2,196.1 -556.3,281.3 19.4,340.4 -15,964.1 -422.2,1517.5 -536.5,728.2 -733.5,790.2 -998.4,901.1 314.6,4.1 543.4,-182.1 720.2,-368.4 193.1,-203.4 324.3,-406.8 437.5,-362.3 93.9,37.3 -33.9,492.9 -1435.1,1423 0,0 2782.6,-1012.4 2290.2,-3234.3"
         style="fill:#c68659;fill-opacity:1;fill-rule:nonzero;stroke:none"
         id="path166" /><path
         d="m 12478.1,25059.2 c 459.9,-295.1 1543.3,-859.7 2105.2,-590.2 231.1,110.7 359.3,361.6 392,766.9 142.7,1770.3 1526.9,2626 2152.9,2924.9 -851.5,745.3 -1552.3,324.3 -2176.1,-50.5 -133.9,-80.5 -260.4,-156.5 -379.7,-213.5 -817.8,-390.8 -1695.5,-88.8 -2624.8,231 -143.9,49.5 -292.7,100.7 -441.8,149.5 -841.5,275.5 -1341.3,-77 -1561.21,-306.2 2068.01,-1231.9 2461.11,-2532.9 2533.51,-2911.9 m 1747.1,-1077.8 c -876.1,0 -1918,687.9 -2056.7,782.3 -52.1,35.4 -85.4,92.5 -90.6,155.3 -2.3,23.7 -166.7,1470.7 -2547.96,2810.1 -48.83,27.5 -84.57,73.4 -99.17,127.5 -14.55,54.1 -6.79,111.8 21.63,160.1 6.74,11.5 693.8,1144.8 2183.2,657.1 152.1,-49.8 302.4,-101.5 447.8,-151.5 882.9,-303.9 1645.5,-566.2 2309.1,-249.1 101.4,48.5 219.6,119.5 344.7,194.7 648.1,389.4 1732.6,1041.2 2913.6,-235.5 47.9,-51.8 66.4,-124.2 49.2,-192.6 -17.2,-68.4 -67.9,-123.4 -134.6,-146.3 -81.9,-28.4 -2015.3,-720.3 -2174.3,-2691.2 -45,-558.4 -256.3,-931.8 -627.9,-1109.7 -164.1,-78.6 -347.1,-111.2 -538,-111.2"
         style="fill:#371a45;fill-opacity:1;fill-rule:nonzero;stroke:none"
         id="path168" /><path
         d="m 16795.8,14135.8 c 0,0 -1194.5,-135.1 -3147.6,80.4 0,0 -3541.4,-1267.1 -5270.9,835.2 v 0.5 c -55.67,67.3 -109.43,138 -160.76,212.6 -1817.13,2627.2 675.45,8055.4 3665.26,9923.8 489.1,305.6 991.2,516.2 1489.9,603.3 302.6,53.3 603.8,61 900.1,17.5 314.2,-46.5 621.7,-148.2 919.9,-296.4 2024.9,-1005.6 3647.9,-4152.3 4360.1,-6674.9 662.4,-2346.4 -299.7,-4397.9 -2756,-4702"
         style="fill:#e2af76;fill-opacity:1;fill-rule:nonzero;stroke:none"
         id="path170" /><path
         d="m 13371.7,25791.6 c -67.8,-600.8 99.3,-1330 -1374.6,-2291.3 -533.5,-347.9 -1127.8,-1089.4 -1127.8,-1089.4 0,0 300.6,561.6 871.5,1098 1083.9,1018.2 847.1,1139.8 713.5,1157.7 -187.9,25.7 -730.3,-104.8 -1553.9,-1253.8 15,32 269.2,548.1 703.5,1053.1 225.2,261.5 664.6,538.1 623.9,739 489.1,305.6 645.2,499.6 1143.9,586.7"
         style="fill:#c68659;fill-opacity:1;fill-rule:nonzero;stroke:none"
         id="path172" /><path
         d="m 8377.3,16090.9 c 0,0 1617.58,-1942.5 4733.5,-695 0,0 -2495,-751.9 -4733.5,695"
         style="fill:#c68659;fill-opacity:1;fill-rule:nonzero;stroke:none"
         id="path174" /><path
         d="m 16795.8,14135.8 c 0,0 -1194.5,-135.1 -3147.6,80.4 0,0 -3541.4,-1267.1 -5270.9,835.2 v 0.5 c 0,0 2070.4,-1461.7 4966.8,-504.5 0,0 2737.6,626.5 2999.5,1138.8 0,0 -1803.1,-295.8 -2778.7,120.1 0,0 3387.5,-223.9 4251,2131.2 734.8,2004.1 -820.1,4328.3 -820.1,4328.3 0,0 -210.6,-1229.8 -652.7,-2021 18.4,63.9 689,2436.4 -1151.4,5267.9 2024.9,-1005.6 3647.9,-4152.3 4360.1,-6674.9 662.4,-2346.4 -299.7,-4397.9 -2756,-4702"
         style="fill:#c68659;fill-opacity:1;fill-rule:nonzero;stroke:none"
         id="path176" /><path
         d="m 14337.7,18745.6 c -81.1,-51.1 -170.5,-81.6 -248.4,-101.6 -118,-29.1 -223.8,-42.9 -330,-51.6 -174.2,-14.3 -348.7,-10.2 -523.1,-9.5 -9.9,0 -10.6,4.2 -10.6,12.5 -0.3,253.9 -1,507.9 -1.4,761.8 0,82.3 -0.2,164.3 -0.5,246.6 0,8.5 0,14.3 11.5,14.5 147.5,1.6 294.8,8.3 442.3,2.6 140.1,-5.3 279.3,-17.5 416,-52.1 93.7,-23.5 183.6,-56.7 263.8,-112 95.7,-66.2 158.3,-154.6 177,-270.3 29.5,-183 -29.3,-336 -196.6,-440.9 z m -1115.8,2118.3 c -0.2,51 0,101.9 -0.5,152.8 0,8.8 0.7,12.9 11.3,13.2 163.4,2.9 326.8,10.6 490,-5.6 115,-11.3 228.3,-31.1 335.3,-77.9 77.9,-34.1 146.3,-81.1 195.4,-152.3 53.9,-78.1 71.2,-166.2 66.1,-259.5 -8.3,-154.6 -90.1,-259.9 -223.3,-329.8 -61.7,-32.5 -127.7,-55.3 -200.7,-71.6 -121.5,-28.2 -245,-38.3 -369.2,-42.4 -97.2,-3 -194.5,0 -291.7,0.2 -9.7,0 -11.8,3.2 -11.8,12.7 0,253.2 -0.7,506.7 -0.9,760.2"
         style="fill:#e2af76;fill-opacity:1;fill-rule:nonzero;stroke:none"
         id="path178" /><path
         d="m 13892.2,25628 c -1484.5,0 -3236.8,-1309.3 -4564.12,-3445.6 -1329.1,-2139.1 -2135.2,-5071.1 -939.94,-6799.3 1547.12,-2237 5153.76,-983.5 5189.96,-970.6 l 45.2,16.1 47.8,-5.2 c 1903.1,-209.9 3089.6,-81.5 3101.3,-80.2 1009.9,125.1 1795.8,569.2 2270.4,1283.9 542.5,817 651.9,1937.1 308.1,3154.2 -888.7,3146.9 -2929.2,6500.5 -5109.5,6821.5 -114.4,16.9 -231.1,25.2 -349.2,25.2 M 11349.8,13629 c -1477.09,0 -2616.79,522 -3304.82,1516.8 -1302.74,1883.7 -472.22,5002 928.76,7256.8 704.4,1133.7 1547.66,2074.6 2438.86,2720.8 987.8,716.5 1986.9,1025 2889.5,892.2 2465.5,-363 4553.6,-3945.8 5450.3,-7121 377.3,-1335.9 248.8,-2578.3 -362.1,-3498.3 -543.9,-819.2 -1432.2,-1326.6 -2568.9,-1467.4 -51.5,-5.9 -1223.1,-133.6 -3149.6,74.8 -208.4,-69.6 -1071.9,-337.2 -2110.6,-371.2 -71.2,-2.3 -141.7,-3.5 -211.4,-3.5"
         style="fill:#371a45;fill-opacity:1;fill-rule:nonzero;stroke:none"
         id="path180" /><path
         d="m 15166.1,23010 c -218.4,-223.2 -598.5,-99.3 -682.7,138.5 -85.3,240.6 147.2,752.4 -17.5,1613.8 -49.8,260 -136,552.4 -278.4,878.3 l 752,-327.3 c 49.8,-121.6 108.4,-308 163.1,-523.9 162.7,-643 291.5,-1546.5 63.5,-1779.4"
         style="fill:#54504d;fill-opacity:1;fill-rule:nonzero;stroke:none"
         id="path182" /><path
         d="m 15166.1,23010 c -218.4,-223.2 -598.5,-99.3 -682.7,138.5 -30.1,85.2 -20.4,204.8 -2.5,362.1 0.5,-3.4 1.5,-6.3 2.5,-9.2 84.2,-237.7 464.3,-361.7 682.7,-138.4 66.8,67.7 103.1,193.6 116.2,353.4 21.3,-322.5 -5.4,-593.6 -116.2,-706.4"
         style="fill:#44413f;fill-opacity:1;fill-rule:nonzero;stroke:none"
         id="path184" /><path
         d="m 15102.6,24789.4 c -218.3,-2 -444.4,-13.6 -636.7,-27.1 -49.8,260 -136,552.4 -278.4,878.3 l 752,-327.3 c 49.8,-121.6 108.4,-308 163.1,-523.9"
         style="fill:#44413f;fill-opacity:1;fill-rule:nonzero;stroke:none"
         id="path186" /><path
         d="m 14555.8,25252.7 c 246.2,-782.6 180.5,-1349.1 138.6,-1710.9 -15.6,-134.7 -31.8,-274 -14.3,-323.5 17.6,-49.5 79.7,-95.1 151,-110.8 42.5,-9.4 123.4,-15.6 185.9,48.3 36.8,37.5 111.6,274.2 18.3,910.6 -61.6,420.2 -173.2,850.3 -259.5,1090.4 l -220,95.9 m 326.4,-2568.1 c -46.6,0 -93.8,5.1 -141,15.5 -214,47.2 -388.1,192.3 -454.2,378.8 -49.9,140.7 -31,304.1 -7,511 48,414.1 120.5,1040 -283.8,1967.4 -34.3,78.6 -17,170.2 43.7,230.9 60.5,60.7 152.2,78.1 230.8,43.7 l 751.9,-327.5 c 49.6,-21.6 88.9,-61.7 109.5,-111.8 133.6,-324.3 622.6,-2079.6 183.1,-2528.6 -114,-116.5 -269.3,-179.4 -433,-179.4"
         style="fill:#371a45;fill-opacity:1;fill-rule:nonzero;stroke:none"
         id="path188" /><path
         d="m 17147.8,22559.2 c -89.5,-247.9 -501.6,-267.7 -662.3,-14.5 -146.2,230.9 -252.3,1139.3 -962.1,2082.5 h -0.5 c -205.3,273 -461.4,549.5 -784.4,812.9 l 854.1,-77 c 131.2,-149.6 430.5,-474.5 734.5,-863.8 494.9,-633.8 1002.8,-1438.5 820.7,-1940.1"
         style="fill:#54504d;fill-opacity:1;fill-rule:nonzero;stroke:none"
         id="path190" /><path
         d="m 17147.8,22559.2 c -89.5,-247.9 -501.6,-267.7 -662.3,-14.5 -146.2,230.9 -252.3,1139.3 -962.1,2082.5 h -0.5 c -205.3,273 -461.4,549.5 -784.4,812.9 l 108,-9.7 c 270.7,-158.3 542.3,-327.3 713.7,-493.4 1,0 68.3,-130.7 68.3,-130.7 848.3,-820.7 890.4,-1760 1071,-1965.3 128.3,-145.7 336,-78.4 479.3,58.1 14.6,-123 6.3,-237.7 -31,-339.9"
         style="fill:#44413f;fill-opacity:1;fill-rule:nonzero;stroke:none"
         id="path192" /><path
         d="m 16327.1,24499.3 c -371.3,77.5 -664.3,113.3 -803.7,127.9 h -0.5 c -205.3,273 -461.4,549.5 -784.4,812.9 l 854.1,-77 c 131.2,-149.6 430.5,-474.5 734.5,-863.8"
         style="fill:#44413f;fill-opacity:1;fill-rule:nonzero;stroke:none"
         id="path194" /><path
         d="m 15329.4,25177.3 c 792.4,-830.1 1062.9,-1700.7 1218.9,-2202.6 43.7,-140.5 85,-273.1 113.6,-318.3 42.4,-67 126.5,-89.8 191.3,-82.8 39.3,4.3 86,21.4 98.7,56.6 153.1,421.8 -326.6,1260.8 -1425.6,2493.4 -12.2,13.7 -23.8,26.7 -34.8,39.1 l -162.1,14.6 m 1499.8,-3022.2 c -211.1,0 -410,104.6 -519.8,278.1 -58.2,91.8 -100.7,228.5 -159.4,417.7 -169.9,546.6 -486.2,1564.2 -1543.6,2427.4 -71,58 -95.9,155.5 -61.3,240.4 34.6,84.9 120.9,137.1 211.9,129 l 854.4,-76.9 c 53.4,-4.8 102.9,-30 138.2,-70.3 24,-27.4 53.7,-60.7 88.1,-99.2 848.3,-951.5 1786.1,-2142.5 1506.4,-2913.4 -65.4,-180.2 -236.2,-306.3 -445.8,-329.1 -23.1,-2.5 -46.2,-3.7 -69.1,-3.7"
         style="fill:#371a45;fill-opacity:1;fill-rule:nonzero;stroke:none"
         id="path196" /><path
         d="m 11518.5,24978.1 c 0,0 2627.5,703.8 4631.7,-107.7 0,0 197.1,438.6 -139.6,790 -483.9,505.3 -3783.4,619.9 -4387.1,52.6 -429.9,-404 -105,-734.9 -105,-734.9"
         style="fill:#54504d;fill-opacity:1;fill-rule:nonzero;stroke:none"
         id="path198" /><path
         d="m 16150.4,24870.2 c -2004.5,811.5 -4631.7,108 -4631.7,108 0,0 -198,201.9 -79.9,482.7 33.9,-79.9 79.9,-126.3 79.9,-126.3 0,0 2627.2,704 4631.7,-107.5 0,0 19.9,44.5 36.3,117.1 63,-253.2 -36.3,-474 -36.3,-474"
         style="fill:#44413f;fill-opacity:1;fill-rule:nonzero;stroke:none"
         id="path200" /><path
         d="m 16203.4,25086.4 c -0.1,0.1 0,0 -0.1,0.1 4,38.9 5.7,81.6 3.1,126.6 -2.1,38.4 -7.3,78.6 -16.7,119.8 20.5,-89.5 21.2,-174.4 13.7,-246.5"
         style="fill:#9b8da2;fill-opacity:1;fill-rule:nonzero;stroke:none"
         id="path202" /><path
         d="m 16195.9,25031.9 c 0,0.2 0,0.3 -0.1,0.5 3,17 5.5,35.1 7.5,54.1 0.1,-0.1 0,0 0.1,-0.1 -2,-19.1 -4.6,-37.3 -7.5,-54.5"
         style="fill:#9b8da2;fill-opacity:1;fill-rule:nonzero;stroke:none"
         id="path204" /><path
         d="m 11400.9,25287.1 c 1.4,120.3 53.8,267.7 222.4,426.1 27.8,26.1 61.3,50.8 100,74 0,-0.1 0.1,-0.1 0.1,-0.2 -38.7,-23.2 -72.1,-47.9 -99.9,-74 -168.5,-158.4 -221,-305.5 -222.6,-425.9"
         style="fill:#eed9ff;fill-opacity:1;fill-rule:nonzero;stroke:none"
         id="path206" /><path
         d="m 15829,25780.9 c -82.6,39 -184.2,74.8 -300.5,107 0.1,0.1 0,0 0,0.1 116.4,-32.2 217.9,-68 300.5,-107.1"
         style="fill:#ececec;fill-opacity:1;fill-rule:nonzero;stroke:none"
         id="path208" /><path
         d="m 12123,25940.8 -0.1,0.1 c 68.6,17.7 142.1,33.8 219.2,48.3 v 0 c -77.2,-14.5 -150.4,-30.6 -219.1,-48.4 m 2995.2,36.5 c -431.6,74.1 -960.7,114 -1478.5,114 -206.4,0 -411.1,-6.3 -607.1,-19.3 v 0 c 196,13.1 400.8,19.4 607.2,19.4 517.9,0 1046.8,-39.9 1478.4,-114 v -0.1"
         style="fill:#f1d7bb;fill-opacity:1;fill-rule:nonzero;stroke:none"
         id="path210" /><path
         d="m 12342.1,25989.2 v 0 c 206.9,38.9 441.7,66.3 690.5,82.8 v 0 c -248.8,-16.6 -483.6,-43.9 -690.5,-82.8"
         style="fill:#e3c3ac;fill-opacity:1;fill-rule:nonzero;stroke:none"
         id="path212" /><path
         d="m 11723.4,25787 c 0,0.1 -0.1,0.1 -0.1,0.2 101.1,60.7 237.4,111.8 399.6,153.7 l 0.1,-0.1 c -162.2,-41.9 -298.5,-93 -399.6,-153.8 m 3805.1,100.9 c -122,33.8 -260.2,63.7 -410.3,89.4 v 0.1 c 150.1,-25.7 288.4,-55.6 410.3,-89.4 0,-0.1 0.1,0 0,-0.1"
         style="fill:#9b8da2;fill-opacity:1;fill-rule:nonzero;stroke:none"
         id="path214" /><path
         d="m 16189.7,25333.1 c 0,0 -0.1,0.1 -0.1,0.2 0,-0.1 0.1,-0.2 0.1,-0.2"
         style="fill:#9b8da2;fill-opacity:1;fill-rule:nonzero;stroke:none"
         id="path216" /><path
         d="m 11422.4,25147.2 c -13.2,40.7 -22.2,87.7 -21.5,139.9 1.6,120.4 54.1,267.5 222.6,425.9 27.8,26.1 61.2,50.8 99.9,74 101.1,60.8 237.4,111.9 399.6,153.8 68.7,17.8 141.9,33.9 219.1,48.4 206.9,38.9 441.7,66.2 690.5,82.8 196,13 400.7,19.3 607.1,19.3 517.8,0 1046.9,-39.9 1478.5,-114 150.1,-25.7 288.3,-55.6 410.3,-89.4 116.3,-32.2 217.9,-68 300.5,-107 78.6,-37.2 140.3,-77.4 181.5,-120.5 101.5,-105.9 154.5,-219.8 179.1,-327.1 0,-0.1 0.1,-0.2 0.1,-0.2 0,-0.1 0,-0.2 0,-0.2 9.4,-41.2 14.6,-81.4 16.7,-119.8 -2.4,42 -8.5,86.1 -19.7,131.1 -16.4,-72.6 -36.3,-117.1 -36.3,-117.1 -9.2,3.7 -18.5,7.4 -27.7,11.1 -28.2,51.2 -64.9,102.2 -112.2,151.6 -260.5,272.2 -1337.7,430.9 -2370.7,430.9 -885.2,0 -1737.9,-116.5 -2016.5,-378.2 -38.2,-36 -70.5,-71.5 -97.6,-106.1 -4.6,-1.2 -7,-1.8 -7,-1.8 0,0 -46,46.4 -79.9,126.3 -51.8,-123.1 -42.8,-231.1 -16.4,-313.5 0,-0.1 0,-0.1 0,-0.2"
         style="fill:#aaa8a6;fill-opacity:1;fill-rule:nonzero;stroke:none"
         id="path218" /><path
         d="m 16195.8,25032.4 c -12.2,66.7 -34.9,136.5 -73.1,205.8 9.2,-3.7 18.5,-7.4 27.7,-11.1 0,0 19.9,44.5 36.3,117.1 11.2,-45 17.3,-89.1 19.7,-131.1 2.6,-45 0.9,-87.7 -3.1,-126.6 -2,-19 -4.5,-37.1 -7.5,-54.1 m -4773.4,115 c -26.4,82.4 -35.4,190.4 16.4,313.5 33.9,-79.9 79.9,-126.3 79.9,-126.3 0,0 2.4,0.6 7,1.8 -51.8,-66.2 -84.5,-129.6 -103.3,-189"
         style="fill:#a2a09f;fill-opacity:1;fill-rule:nonzero;stroke:none"
         id="path220" /><path
         d="m 13854.4,25472.1 c 687.6,0 1441.5,-79.7 2144.5,-322.4 3.3,108.3 -23,245.4 -138.9,366.5 -154.2,160.9 -945.4,341.2 -2002.6,364.2 -1007.5,21.7 -1867.6,-109.4 -2091,-319.4 -156.5,-147.1 -172.3,-264.4 -149.9,-344.1 343.3,79.6 1217.5,255.2 2237.9,255.2 z m 2403.8,-870.5 -186.2,75.4 c -1914.4,775.1 -4473.8,106.4 -4499.5,99.6 l -117.5,-31.4 -85.3,86.7 c -18.7,19.1 -182.7,194 -177.3,462.4 4,202.7 101,394.7 288.2,570.7 467.5,439.2 1944.7,442.2 2385.9,432.5 310.9,-6.8 1882.4,-62.3 2294.8,-492.8 429,-447.8 189.6,-996.7 179.2,-1019.8 l -82.3,-183.3"
         style="fill:#371a45;fill-opacity:1;fill-rule:nonzero;stroke:none"
         id="path222" /><path
         d="m 9659.42,16429.8 c -31.37,0 -65.67,4.7 -103.15,14.2 -641.78,163.6 -1167.74,1350.1 -905.55,2871 227,1316.7 1130.55,2338.3 1497.98,2338.3 424.5,0 34.2,-766.2 -101.9,-2848.4 -90.89,-1390.7 67.5,-2375.1 -387.38,-2375.1"
         style="fill:#f1d7bb;fill-opacity:1;fill-rule:nonzero;stroke:none"
         id="path224" /><path
         d="m 14848.3,18974.7 c 0,-517.2 -398.7,-915.9 -934.5,-1040.5 v -623 h -697.7 v 635.4 c -542,143.4 -965.7,573.3 -1009.3,616.9 l 498.4,498.3 c 37.4,-43.5 423.7,-448.5 872.2,-448.5 336.4,0 554.5,168.2 554.5,355.1 0,560.7 -1844.1,666.6 -1844.1,1738.2 0,517.1 392.5,915.8 928.3,1034.2 v 623 h 697.7 v -635.4 c 542.1,-143.4 965.7,-567 1009.3,-610.6 l -492.2,-498.4 c -43.6,49.8 -436.1,436.1 -878.4,436.1 -336.4,0 -554.5,-155.8 -554.5,-342.7 0,-560.7 1850.3,-666.6 1850.3,-1738.1"
         style="fill:#371a45;fill-opacity:1;fill-rule:nonzero;stroke:none"
         id="path226" /><path
         d="M 24880,15143.3 21884.1,14978 c 0,0 -7.8,-4.7 -22.5,-14.1 -277.9,-173.1 -3108.5,-1901.3 -5490.2,-2058.8 -1569.1,-103.8 -3276.5,614.8 -3446,1150.4 -106.4,334.8 62.6,719.1 984.6,860.4 -19.8,909.5 1246.9,403.6 1961.3,320.7 0,0 1770.5,860.5 3647.8,2086 1614.5,1053.9 2651.3,2047.9 3897.6,1606.7 1385.1,-489.7 1463.3,-3029.3 1463.3,-3786"
         style="fill:#ffffff;fill-opacity:1;fill-rule:nonzero;stroke:none"
         id="path228" /><path
         d="m 16060.7,12895 c -149.7,0 -299.5,6.8 -448.3,19.5 -139.4,11.9 -277.9,29 -414.1,50.7 -41.4,6.5 -82.7,13.6 -123.7,20.9 -140.4,25.4 -277.8,55.3 -411.4,89.2 -720.7,182.8 -1321.7,478.2 -1594.3,761 -72.1,74.7 -121.1,148.5 -143.5,219.2 -17.9,56.5 -28.1,114.5 -28,172.4 v 0.1 c 0.2,285.2 246.4,570.5 1012.6,687.9 0,0 34.9,-154.9 267.5,-299.8 0,0 -118.3,24 -261.3,24 -256.3,0 -591.9,-77.2 -467.7,-508 147.2,-511.4 1458.5,-806.6 2689.9,-806.7 286.7,0 568.8,16 831.2,49 1046.1,131.9 3945,1449.2 4892,1589.5 -127.2,-79.2 -789.1,-484.2 -1698,-915.3 -156.5,-74.2 -320.4,-149.3 -490.1,-223.5 -288.1,-126.1 -593,-249.9 -907.7,-364.1 -150,-54.5 -302.2,-106.7 -455.8,-155.9 -100.1,-32.1 -201.2,-63 -302.2,-92.3 -67.4,-19.5 -134.9,-38.4 -202.5,-56.5 -69.8,-18.7 -139.6,-36.6 -209.5,-53.6 -67.8,-16.6 -135.7,-32.3 -203.6,-47.2 -129.1,-28.3 -258.1,-53.4 -386.6,-75 -70.9,-11.9 -141.9,-22.7 -212.5,-32.3 -83.6,-11.4 -166.8,-21.2 -249.6,-29.1 -57.6,-5.6 -114.9,-10.3 -172.1,-14 -47.7,-3.2 -95.6,-5.6 -143.5,-7.2 -55.6,-2 -111.5,-2.9 -167.2,-2.9"
         style="fill:#d7d1da;fill-opacity:1;fill-rule:nonzero;stroke:none"
         id="path230" /><path
         d="m 24671.6,15143.4 c -9,1059.7 -143.9,2886.5 -1121.3,3494.5 -421.8,238.2 -926.4,238.2 -1380.6,71.5 -735.3,-274.1 -1355.8,-773.2 -2015.9,-1212.4 -1340.1,-912.4 -2741.5,-1721.2 -4191.3,-2448.1 -37,-18.4 -77,-24.4 -115.2,-19.6 -208.4,25.3 -397.8,68.6 -585.9,106.8 -263.9,44.8 -970.2,235.6 -1112.4,-28.6 -22.2,-44 -32.3,-115.5 -30.5,-191 0,-104.6 -76.8,-191.2 -177,-206.8 -292.4,-53.1 -614.6,-111.9 -790.2,-336.1 -152.2,-242.9 97.9,-444.3 292.2,-573.5 560,-356.1 1231,-546.6 1888.5,-642.5 1365.1,-196.7 2715.7,250 3973.3,747.9 748.9,296.2 1782.9,816.3 2522.9,1160.5 52.3,26.7 117.1,4.9 142.2,-48.4 21.5,-45.3 7.6,-98.3 -30.5,-127.7 -752.4,-582.8 -1597.2,-1013.1 -2467.3,-1387.2 -1099.5,-457.4 -2269.6,-825.8 -3473.9,-819.7 -966.3,18.9 -2385.7,330.9 -3093.9,1023.1 -231.6,225.3 -293.3,627.9 -100.1,899.8 255,353.9 679.6,446.8 1073.6,516.2 l -176.9,-210.7 c -17.8,644.2 510.4,807.9 1055.7,734.3 387.1,-41.2 766.8,-154.2 1138.2,-202 l -115.2,-19.6 c 1424.2,714.5 2819.1,1518.6 4138.2,2417.2 672.8,448.6 1332.2,974.8 2113,1261.6 547.1,205.2 1214.1,197 1731.1,-105.8 520.5,-310.3 809.3,-861 992.3,-1406.1 256.5,-790.2 329.4,-1625.6 334.1,-2447.6 0.1,-115.2 -93.1,-208.8 -208.3,-208.9 -115.4,-0.3 -209.1,93.4 -208.9,208.9"
         style="fill:#371a45;fill-opacity:1;fill-rule:nonzero;stroke:none"
         id="path232" /><path
         d="m 19672.4,13615.9 c -11.9,0 -23.9,1 -35.9,3.1 -113.5,19.7 -189.6,127.7 -169.9,241.2 234.3,1350.2 -653.6,2998 -662.6,3014.5 -55.2,101.1 -18,227.8 83.1,283 101.2,55.2 227.8,18.1 283,-82.9 39.6,-72.4 967,-1790.8 707.5,-3285.9 -17.5,-101.5 -105.7,-173 -205.2,-173"
         style="fill:#371a45;fill-opacity:1;fill-rule:nonzero;stroke:none"
         id="path234" /><path
         d="m 14885.4,14336.1 c -264.6,165.7 -878.9,211.7 -975.5,579.8"
         style="fill:#ffffff;fill-opacity:1;fill-rule:nonzero;stroke:none"
         id="path236" /><path
         d="m 14830.1,14247.7 c -354.8,146.7 -850.3,129.9 -1075.7,510.5 -20.1,38.3 -36.4,80.4 -52.8,121.2 -43.8,109 9.2,233 118.3,276.7 109.1,43.8 233,-9.2 276.7,-118.3 25.5,-80.3 7.1,-132.9 91.9,-207.5 122.7,-113 308.3,-182.6 470,-255.7 91.5,-41.6 186.7,-82.7 282.2,-150.1 47.1,-33.2 58.4,-98.3 25.1,-145.3 -31.1,-44.3 -89.8,-56.2 -135.7,-31.5"
         style="fill:#371a45;fill-opacity:1;fill-rule:nonzero;stroke:none"
         id="path238" /></g></g></svg>
