<?xml version="1.0" encoding="UTF-8" standalone="no"?>
<!-- Created with Inkscape (http://www.inkscape.org/) -->

<svg
   version="1.1"
   id="svg2"
   xml:space="preserve"
   width="666.66669"
   height="666.66669"
   viewBox="0 0 666.66669 666.66669"
   sodipodi:docname="271783-P5O9DO-246.eps"
   xmlns:inkscape="http://www.inkscape.org/namespaces/inkscape"
   xmlns:sodipodi="http://sodipodi.sourceforge.net/DTD/sodipodi-0.dtd"
   xmlns="http://www.w3.org/2000/svg"
   xmlns:svg="http://www.w3.org/2000/svg"><defs
     id="defs6" /><sodipodi:namedview
     id="namedview4"
     pagecolor="#ffffff"
     bordercolor="#666666"
     borderopacity="1.0"
     inkscape:pageshadow="2"
     inkscape:pageopacity="0.0"
     inkscape:pagecheckerboard="0" /><g
     id="g8"
     inkscape:groupmode="layer"
     inkscape:label="ink_ext_XXXXXX"
     transform="matrix(1.3333333,0,0,-1.3333333,0,666.66667)"><g
       id="g10"
       transform="scale(0.1)"><path
         d="M 0,0 H 5000 V 5000 H 0 Z"
         style="fill:#ffffff;fill-opacity:1;fill-rule:nonzero;stroke:none"
         id="path12" /><path
         d="m 3168.14,1966.85 924.5,604.94 -528.02,806.93 -462.25,-302.48 -472.97,-154.5 10.73,-147.98 528.01,-806.91"
         style="fill:#f5b880;fill-opacity:1;fill-rule:nonzero;stroke:none"
         id="path14" /><path
         d="m 3444.27,3173.14 255.2,-725.86 105.49,-6.8 77.95,62.32 -438.64,670.34"
         style="fill:#da9b6c;fill-opacity:1;fill-rule:nonzero;stroke:none"
         id="path16" /><path
         d="m 3652.47,2416.51 379.35,248.24 60.82,-92.96 -379.35,-248.23 -60.82,92.95"
         style="fill:#da9b6c;fill-opacity:1;fill-rule:nonzero;stroke:none"
         id="path18" /><path
         d="m 2661.28,2780.91 513.11,-784.14 888.33,581.28 -504.35,770.74 -444.16,-290.64 c -1.59,-1.04 -3.32,-1.87 -5.13,-2.46 l -456.89,-149.24 9.09,-125.54 m 506.88,-835.69 c -7.05,0 -13.96,3.45 -18.11,9.79 l -528.02,806.92 c -2,3.07 -3.2,6.61 -3.47,10.27 l -10.72,147.98 c -0.72,9.9 5.4,19.03 14.85,22.11 l 470.24,153.61 459.85,300.9 c 9.98,6.54 23.37,3.74 29.93,-6.25 l 528.02,-806.92 c 3.14,-4.8 4.24,-10.64 3.07,-16.26 -1.17,-5.61 -4.52,-10.52 -9.33,-13.66 l -924.49,-604.96 c -3.65,-2.38 -7.75,-3.53 -11.82,-3.53"
         style="fill:#434244;fill-opacity:1;fill-rule:nonzero;stroke:none"
         id="path20" /><path
         d="m 3956.26,2390.7 467.46,305.89 -614.16,938.56 -467.46,-305.88 614.16,-938.57"
         style="fill:#f7f7f7;fill-opacity:1;fill-rule:nonzero;stroke:none"
         id="path22" /><path
         d="m 3956.26,2390.7 467.46,305.89 -198.95,304.04 -467.47,-305.88 198.96,-304.05"
         style="fill:#cfcecd;fill-opacity:1;fill-rule:nonzero;stroke:none"
         id="path24" /><path
         d="m 2867.33,1630.7 687.85,450.1 c 130.69,85.53 167.31,260.81 81.79,391.5 l -305.44,466.77 -462.24,-302.47 -472.97,-154.5 10.72,-147.98 460.29,-703.42"
         style="fill:#f5b880;fill-opacity:1;fill-rule:nonzero;stroke:none"
         id="path26" /><path
         d="m 2743.29,1645.89 831.27,543.94 c 51.16,33.49 87.83,80.75 108.48,133.68 1.93,-94.22 -43.2,-187.31 -127.86,-242.71 l -658.21,-430.7 -153.68,-4.21"
         style="fill:#da9b6c;fill-opacity:1;fill-rule:nonzero;stroke:none"
         id="path28" /><path
         d="m 2867.35,1609.08 c -7.05,0 -13.96,3.44 -18.11,9.79 -6.53,9.99 -3.74,23.39 6.25,29.92 l 687.85,450.1 c 58.38,38.2 98.39,96.84 112.66,165.14 14.26,68.29 1.08,138.06 -37.12,196.44 -6.55,9.99 -3.74,23.39 6.25,29.92 10,6.54 23.39,3.74 29.93,-6.25 44.52,-68.04 59.88,-149.35 43.25,-228.95 -16.63,-79.59 -63.26,-147.95 -131.3,-192.48 l -687.85,-450.1 c -3.65,-2.39 -7.75,-3.53 -11.81,-3.53"
         style="fill:#434244;fill-opacity:1;fill-rule:nonzero;stroke:none"
         id="path30" /><path
         d="m 3372.03,3323.02 590.48,-902.4 431.28,282.22 -590.48,902.39 z m 584.23,-953.93 c -1.47,0 -2.95,0.15 -4.41,0.45 -5.62,1.17 -10.53,4.53 -13.68,9.33 l -614.16,938.56 c -6.53,9.99 -3.73,23.39 6.26,29.92 l 467.45,305.89 c 9.99,6.54 23.38,3.74 29.93,-6.25 l 614.16,-938.56 c 6.53,-9.99 3.74,-23.39 -6.26,-29.93 L 3968.1,2372.62 c -3.55,-2.32 -7.66,-3.53 -11.84,-3.53"
         style="fill:#434244;fill-opacity:1;fill-rule:nonzero;stroke:none"
         id="path32" /><path
         d="m 4117.39,2428.69 514.5,336.67 -675.96,1033.02 -514.5,-336.67 675.96,-1033.02"
         style="fill:#4b4c4d;fill-opacity:1;fill-rule:nonzero;stroke:none"
         id="path34" /><path
         d="m 3471.35,3455.46 652.29,-996.85 478.32,313 -652.29,996.85 z m 646.04,-1048.39 c -1.47,0 -2.96,0.16 -4.41,0.46 -5.62,1.17 -10.53,4.52 -13.67,9.33 l -675.98,1033.01 c -3.13,4.8 -4.25,10.65 -3.07,16.26 1.18,5.61 4.53,10.53 9.32,13.67 l 514.51,336.66 c 9.98,6.55 23.38,3.75 29.92,-6.25 l 675.97,-1033.02 c 6.54,-9.98 3.74,-23.38 -6.25,-29.92 l -514.5,-336.67 c -3.55,-2.32 -7.67,-3.53 -11.84,-3.53"
         style="fill:#434244;fill-opacity:1;fill-rule:nonzero;stroke:none"
         id="path36" /><path
         d="m 4117.39,2428.69 514.5,336.67 -190.69,291.41 -514.5,-336.66 190.69,-291.42"
         style="fill:#434244;fill-opacity:1;fill-rule:nonzero;stroke:none"
         id="path38" /><path
         d="m 3443.87,1956.44 -854.15,558.92 c -81.03,53.02 -103.73,161.69 -50.72,242.72 53.03,81.02 161.69,103.73 242.72,50.7 l 854.16,-558.92 c 81.02,-53.02 103.73,-161.69 50.7,-242.72 -53.02,-81.03 -161.69,-103.73 -242.71,-50.7"
         style="fill:#ca8552;fill-opacity:1;fill-rule:nonzero;stroke:none"
         id="path40" /><path
         d="m 3635.88,2249.86 -79.71,52.15 c 73.71,-54.94 92.83,-158.47 41.81,-236.45 -53.02,-81.03 -161.68,-103.73 -242.72,-50.71 l -774.44,506.77 c 2.89,-2.16 5.84,-4.26 8.9,-6.26 l 854.15,-558.92 c 81.02,-53.03 189.69,-30.33 242.71,50.7 53.03,81.03 30.32,189.7 -50.7,242.72"
         style="fill:#a6663e;fill-opacity:1;fill-rule:nonzero;stroke:none"
         id="path42" /><path
         d="m 2418.78,2208.95 883.29,-578 c 81.03,-53.02 189.7,-30.32 242.72,50.71 53.02,81.03 30.32,189.7 -50.71,242.71 l -1007.9,659.54 -67.4,-374.96"
         style="fill:#ca8552;fill-opacity:1;fill-rule:nonzero;stroke:none"
         id="path44" /><path
         d="m 2477.47,2535.44 -155.12,237.05 c -53.02,81.03 -30.31,189.69 50.71,242.72 l 292.19,191.2 c 28.89,18.89 62.32,28.62 96.03,28.62 19,0 38.1,-3.09 56.52,-9.37 l 311.34,-106.07 -36.21,-23.69 -470.24,-153.61 c -9.45,-3.08 -15.57,-12.21 -14.85,-22.11 l 7.08,-97.69 c -29.99,-13.2 -56.63,-34.95 -75.92,-64.41 -46.68,-71.35 -34.66,-164.12 24.19,-221.47 l -3.15,-1.03 -73.86,48.33 -8.71,-48.47"
         style="fill:#da9b6c;fill-opacity:1;fill-rule:nonzero;stroke:none"
         id="path46" /><path
         d="m 2957.07,2694.04 -175.35,114.74 c -29.61,19.38 -62.91,28.64 -95.84,28.64 -9.57,0 -19.11,-0.78 -28.52,-2.33 l -5.17,71.36 456.89,149.24 c 1.81,0.59 3.54,1.42 5.13,2.46 l 56.9,37.24 87.54,-204.01 -301.58,-197.34"
         style="fill:#d36c38;fill-opacity:1;fill-rule:nonzero;stroke:none"
         id="path48" /><path
         d="m 2614.92,2822.49 -7.08,97.69 c -0.72,9.9 5.4,19.03 14.85,22.11 l 470.24,153.61 36.21,23.69 36.99,-12.6 4.98,-11.6 -56.9,-37.24 c -1.59,-1.04 -3.32,-1.87 -5.13,-2.46 l -456.89,-149.24 5.17,-71.36 c -14.58,-2.39 -28.86,-6.62 -42.44,-12.6"
         style="fill:#392920;fill-opacity:1;fill-rule:nonzero;stroke:none"
         id="path50" /><path
         d="m 2577.17,2524.37 -17.13,11.21 3.15,1.03 c 4.4,-4.29 9.06,-8.37 13.98,-12.24 m 551.29,57.52 -171.39,112.15 301.58,197.34 67.29,-156.8 c -69.87,-83.38 -136.15,-130.62 -197.48,-152.69"
         style="fill:#d36c38;fill-opacity:1;fill-rule:nonzero;stroke:none"
         id="path52" /><path
         d="m 3000.57,2247.31 -423.4,277.06 c -4.92,3.87 -9.58,7.95 -13.98,12.24 -58.85,57.35 -70.87,150.12 -24.19,221.47 19.29,29.46 45.93,51.21 75.92,64.41 13.58,5.98 27.86,10.21 42.44,12.6 9.41,1.55 18.95,2.33 28.52,2.33 32.93,0 66.23,-9.26 95.84,-28.64 l 175.35,-114.74 171.39,-112.15 c -30.1,-10.83 -59.02,-15.59 -86.61,-15.59 -121.51,0 -217.15,92.34 -274.13,166 l 214.98,-328.53 c 31.54,-48.21 36.28,-106.22 17.87,-156.46"
         style="fill:#ad4f27;fill-opacity:1;fill-rule:nonzero;stroke:none"
         id="path54" /><path
         d="m 2836.14,2132.42 c -57.18,-0.01 -113.22,27.92 -146.87,79.35 l -211.8,323.67 8.71,48.47 73.86,-48.33 17.13,-11.21 423.4,-277.06 c -12.52,-34.19 -35.77,-64.78 -68.59,-86.26 -29.61,-19.37 -62.91,-28.63 -95.84,-28.63"
         style="fill:#ad4f27;fill-opacity:1;fill-rule:nonzero;stroke:none"
         id="path56" /><path
         d="m 2630.27,1230.18 -775.77,507.63 c -81.03,53.02 -103.73,161.69 -50.71,242.72 53.02,81.02 161.69,103.73 242.71,50.71 l 775.78,-507.64 c 81.02,-53.02 103.73,-161.69 50.71,-242.71 -53.03,-81.04 -161.69,-103.73 -242.72,-50.71"
         style="fill:#ca8552;fill-opacity:1;fill-rule:nonzero;stroke:none"
         id="path58" /><path
         d="m 2822.28,1523.6 -79.71,52.15 c 73.71,-54.94 92.83,-158.47 41.81,-236.44 -53.01,-81.04 -161.68,-103.73 -242.71,-50.72 l -696.06,455.48 c 2.89,-2.16 5.83,-4.26 8.89,-6.26 l 775.77,-507.63 c 81.03,-53.02 189.69,-30.33 242.72,50.71 53.02,81.02 30.31,189.69 -50.71,242.71"
         style="fill:#a6663e;fill-opacity:1;fill-rule:nonzero;stroke:none"
         id="path60" /><path
         d="m 3539.57,1906.26 c -36.98,0 -74.36,10.38 -107.54,32.09 -9.99,6.53 -12.79,19.93 -6.25,29.92 6.54,9.98 19.94,12.78 29.92,6.26 70.92,-46.41 166.39,-26.48 212.81,44.44 46.4,70.93 26.45,166.39 -44.47,212.8 l -854.16,558.93 c -70.92,46.41 -166.38,26.46 -212.78,-44.46 -6.53,-9.99 -19.92,-12.79 -29.92,-6.25 -10,6.53 -12.8,19.93 -6.26,29.92 59.47,90.87 181.78,116.42 272.63,56.96 l 854.16,-558.92 c 90.87,-59.46 116.43,-181.77 56.97,-272.65 -37.76,-57.68 -100.83,-89.04 -165.11,-89.04"
         style="fill:#434244;fill-opacity:1;fill-rule:nonzero;stroke:none"
         id="path62" /><path
         d="m 1960.22,2038.19 c -50.17,0 -99.39,-24.47 -128.86,-69.5 -22.48,-34.35 -30.24,-75.41 -21.84,-115.6 8.4,-40.19 31.94,-74.71 66.3,-97.19 l 775.77,-507.63 c 70.94,-46.42 166.39,-26.46 212.79,44.44 46.41,70.93 26.47,166.39 -44.46,212.8 l -775.76,507.63 c -25.9,16.95 -55.08,25.05 -83.94,25.05 z M 2735.46,1180 c -36.98,-0.01 -74.35,10.37 -107.54,32.09 l -775.77,507.63 c -44.02,28.81 -74.19,73.03 -84.95,124.53 -10.76,51.49 -0.82,104.09 27.99,148.11 59.46,90.87 181.77,116.4 272.64,56.97 l 775.76,-507.64 c 90.87,-59.46 116.43,-181.77 56.98,-272.65 -37.76,-57.67 -100.84,-89.04 -165.11,-89.04"
         style="fill:#434244;fill-opacity:1;fill-rule:nonzero;stroke:none"
         id="path64" /><path
         d="M 1831.85,1960.1 907.359,2565.05 1435.38,3371.97 1897.62,3069.5 2370.6,2915 2359.87,2767.02 1831.85,1960.1"
         style="fill:#ca8552;fill-opacity:1;fill-rule:nonzero;stroke:none"
         id="path66" /><path
         d="m 1237.31,2347.7 460.61,851.03 -242.73,158.83 -528.018,-806.92 310.138,-202.94"
         style="fill:#a6663e;fill-opacity:1;fill-rule:nonzero;stroke:none"
         id="path68" /><path
         d="m 937.281,2571.3 888.319,-581.28 513.12,784.15 9.09,125.53 -456.9,149.25 c -1.81,0.59 -3.53,1.42 -5.12,2.46 l -444.16,290.64 z m 894.579,-632.82 c -4.18,0 -8.3,1.21 -11.84,3.52 l -924.497,604.96 c -9.992,6.54 -12.789,19.93 -6.25,29.92 l 528.017,806.93 c 3.14,4.8 8.05,8.15 13.67,9.32 5.6,1.18 11.46,0.07 16.25,-3.07 l 459.85,-300.91 470.24,-153.6 c 9.44,-3.08 15.57,-12.21 14.85,-22.11 l -10.72,-147.98 c -0.27,-3.66 -1.46,-7.2 -3.47,-10.27 l -528.02,-806.93 c -3.14,-4.8 -8.06,-8.15 -13.67,-9.32 -1.46,-0.32 -2.94,-0.46 -4.41,-0.46"
         style="fill:#434244;fill-opacity:1;fill-rule:nonzero;stroke:none"
         id="path70" /><path
         d="m 1043.74,2383.96 -467.463,305.88 614.163,938.57 467.45,-305.89 -614.15,-938.56"
         style="fill:#f7f7f7;fill-opacity:1;fill-rule:nonzero;stroke:none"
         id="path72" /><path
         d="m 1043.74,2383.96 -467.463,305.88 198.957,304.05 467.456,-305.88 -198.95,-304.05"
         style="fill:#cfcecd;fill-opacity:1;fill-rule:nonzero;stroke:none"
         id="path74" /><path
         d="m 2114.65,1569.81 -687.84,450.1 c -130.7,85.53 -167.32,260.81 -81.8,391.51 l 305.44,466.77 462.25,-302.48 472.96,-154.5 -10.72,-147.98 -460.29,-703.42"
         style="fill:#ca8552;fill-opacity:1;fill-rule:nonzero;stroke:none"
         id="path76" /><path
         d="m 2238.69,1585 -831.27,543.95 c -51.16,33.48 -87.83,80.74 -108.48,133.67 -1.92,-94.22 43.2,-187.3 127.87,-242.71 l 658.2,-430.7 153.68,-4.21"
         style="fill:#da9b6c;fill-opacity:1;fill-rule:nonzero;stroke:none"
         id="path78" /><path
         d="m 2114.63,1548.19 c -4.06,0 -8.16,1.15 -11.81,3.53 l -687.84,450.11 c -103.95,68 -155.86,190.75 -132.25,312.7 2.27,11.73 13.61,19.38 25.33,17.12 11.72,-2.28 19.39,-13.61 17.12,-25.33 -20.26,-104.64 24.28,-209.96 113.47,-268.31 l 687.84,-450.11 c 9.99,-6.53 12.79,-19.93 6.25,-29.92 -4.15,-6.34 -11.06,-9.79 -18.11,-9.79"
         style="fill:#434244;fill-opacity:1;fill-rule:nonzero;stroke:none"
         id="path80" /><path
         d="m 2974.91,1425.97 -734.57,480.67 c -81.03,53.02 -103.73,161.69 -50.71,242.72 53.02,81.02 161.69,103.73 242.71,50.71 l 734.57,-480.68 c 81.03,-53.02 103.73,-161.68 50.72,-242.72 -53.03,-81.03 -161.69,-103.73 -242.72,-50.7"
         style="fill:#ca8552;fill-opacity:1;fill-rule:nonzero;stroke:none"
         id="path82" /><path
         d="m 3166.91,1719.39 -79.7,52.15 c 73.71,-54.94 92.83,-158.47 41.81,-236.44 -53.01,-81.04 -161.69,-103.74 -242.71,-50.72 l -654.87,428.52 c 2.89,-2.16 5.84,-4.26 8.9,-6.26 l 734.57,-480.67 c 81.03,-53.03 189.69,-30.33 242.72,50.7 53.01,81.04 30.31,189.7 -50.72,242.72"
         style="fill:#a6663e;fill-opacity:1;fill-rule:nonzero;stroke:none"
         id="path84" /><path
         d="m 3494.08,1924.37 -79.7,52.16 c 73.71,-54.95 92.83,-158.48 41.81,-236.45 -53.03,-81.03 -161.69,-103.73 -242.72,-50.71 l -794.62,519.97 -0.07,-0.39 883.29,-578 c 81.03,-53.02 189.7,-30.32 242.72,50.71 53.02,81.03 30.32,189.7 -50.71,242.71"
         style="fill:#a6663e;fill-opacity:1;fill-rule:nonzero;stroke:none"
         id="path86" /><path
         d="m 3397.68,1580.64 c -37.89,0 -74.99,10.99 -107.44,32.23 l -883.3,577.98 c -9.99,6.54 -12.78,19.94 -6.25,29.93 6.54,9.98 19.94,12.78 29.93,6.25 l 883.29,-577.99 c 34.37,-22.48 75.43,-30.24 115.6,-21.84 40.19,8.39 74.71,31.93 97.19,66.3 46.41,70.92 26.46,166.38 -44.45,212.79 l -883.3,577.99 c -9.99,6.54 -12.8,19.93 -6.25,29.92 6.54,9.99 19.93,12.78 29.92,6.25 l 883.3,-577.98 c 90.87,-59.47 116.41,-181.78 56.96,-272.65 -28.81,-44.02 -73.04,-74.19 -124.53,-84.95 -13.54,-2.82 -27.15,-4.23 -40.67,-4.23"
         style="fill:#434244;fill-opacity:1;fill-rule:nonzero;stroke:none"
         id="path88" /><path
         d="m 3070.52,1375.66 c -37.89,0 -75,10.98 -107.44,32.21 l -768.74,503.03 c -10,6.54 -12.8,19.94 -6.26,29.93 6.54,9.98 19.94,12.77 29.92,6.25 l 768.75,-503.03 c 34.36,-22.49 75.43,-30.21 115.6,-21.84 40.19,8.4 74.7,31.94 97.18,66.31 46.42,70.91 26.48,166.37 -44.45,212.78 l -560.72,366.92 c -10,6.54 -12.8,19.93 -6.26,29.92 6.54,9.99 19.93,12.78 29.93,6.26 l 560.72,-366.92 c 44.02,-28.81 74.19,-73.04 84.95,-124.53 10.75,-51.49 0.81,-104.09 -27.99,-148.11 -28.81,-44.02 -73.03,-74.2 -124.52,-84.95 -13.54,-2.83 -27.16,-4.23 -40.67,-4.23"
         style="fill:#434244;fill-opacity:1;fill-rule:nonzero;stroke:none"
         id="path90" /><path
         d="m 606.199,2696.1 431.281,-282.21 590.49,902.38 -431.28,282.21 z m 437.541,-333.76 c -4.18,0 -8.3,1.21 -11.84,3.53 l -467.459,305.89 c -4.796,3.14 -8.152,8.05 -9.324,13.66 -1.172,5.62 -0.062,11.46 3.071,16.26 l 614.162,938.56 c 6.54,9.99 19.94,12.79 29.93,6.25 l 467.45,-305.88 c 9.99,-6.54 12.78,-19.93 6.25,-29.92 l -614.16,-938.56 c -3.14,-4.81 -8.05,-8.16 -13.67,-9.33 -1.46,-0.31 -2.94,-0.46 -4.41,-0.46"
         style="fill:#434244;fill-opacity:1;fill-rule:nonzero;stroke:none"
         id="path92" /><path
         d="m 1745.1,3143.47 524.81,178.79 c 51.1,17.4 107.38,10.3 152.55,-19.26 l 292.19,-191.2 c 81.02,-53.02 103.73,-161.69 50.71,-242.71 l -366.92,-560.73 c -53.02,-81.03 -161.69,-103.73 -242.72,-50.71 -81.02,53.02 -103.73,161.69 -50.71,242.72 l 273.55,418.03 c 0,0 -253.15,-465.82 -695.3,-176.5"
         style="fill:#ca8552;fill-opacity:1;fill-rule:nonzero;stroke:none"
         id="path94" /><path
         d="m 2742.98,2813.3 c -4.06,0 -8.17,1.14 -11.82,3.53 -9.99,6.54 -12.79,19.94 -6.25,29.93 l 22.37,34.16 c 46.4,70.93 26.45,166.38 -44.47,212.8 l -292.19,191.19 c -39.87,26.1 -88.62,32.25 -133.74,16.88 l -513.13,-161.08 c -11.38,-3.56 -23.53,2.76 -27.1,14.15 -3.58,11.39 2.75,23.53 14.15,27.1 l 512.64,160.92 c 57.31,19.52 119.75,11.64 170.85,-21.79 l 292.19,-191.2 c 90.87,-59.47 116.43,-181.77 56.98,-272.64 l -22.38,-34.17 c -4.14,-6.34 -11.05,-9.78 -18.1,-9.78"
         style="fill:#434244;fill-opacity:1;fill-rule:nonzero;stroke:none"
         id="path96" /><path
         d="M 882.602,2421.94 368.105,2758.61 1044.07,3791.64 1558.57,3454.97 882.602,2421.94"
         style="fill:#214378;fill-opacity:1;fill-rule:nonzero;stroke:none"
         id="path98" /><path
         d="m 398.027,2764.87 478.325,-313 652.298,996.85 -478.33,312.99 z m 484.555,-364.55 c -4.062,0 -8.164,1.15 -11.816,3.54 L 356.27,2740.53 c -9.993,6.54 -12.79,19.93 -6.25,29.92 l 675.97,1033.02 c 3.13,4.8 8.05,8.16 13.66,9.33 5.61,1.18 11.46,0.07 16.26,-3.07 l 514.5,-336.68 c 4.8,-3.13 8.15,-8.05 9.32,-13.67 1.17,-5.61 0.07,-11.46 -3.07,-16.25 L 900.691,2410.11 c -4.148,-6.34 -11.058,-9.79 -18.109,-9.79"
         style="fill:#434244;fill-opacity:1;fill-rule:nonzero;stroke:none"
         id="path100" /><path
         d="m 1677.05,1659.35 775.76,507.62 c 81.03,53.03 103.73,161.69 50.72,242.72 -53.03,81.03 -161.69,103.73 -242.72,50.71 l -775.77,-507.64 c -81.03,-53.01 -103.74,-161.69 -50.71,-242.71 53.02,-81.03 161.69,-103.73 242.72,-50.7"
         style="fill:#f5b880;fill-opacity:1;fill-rule:nonzero;stroke:none"
         id="path102" /><path
         d="m 1633.47,1725.94 775.77,507.63 c 69.57,45.52 96.09,132.05 68.66,206.91 9.48,-9.08 18.13,-19.33 25.63,-30.78 v -0.01 c 53.01,-81.03 30.31,-189.69 -50.72,-242.72 l -775.76,-507.62 c -81.03,-53.03 -189.7,-30.33 -242.72,50.7 -7.5,11.46 -13.43,23.49 -17.95,35.81 57.6,-55.11 147.52,-65.45 217.09,-19.92"
         style="fill:#da9b6c;fill-opacity:1;fill-rule:nonzero;stroke:none"
         id="path104" /><path
         d="m 1677.05,1659.34 h 0.06 z m 679.45,808.11 c -29.57,0 -58.53,-8.56 -83.85,-25.14 l -775.78,-507.63 c -70.92,-46.41 -90.86,-141.87 -44.46,-212.8 46.41,-70.92 141.87,-90.87 212.8,-44.45 l 775.77,507.64 c 34.36,22.48 57.9,56.99 66.3,97.18 8.39,40.19 0.64,81.25 -21.85,115.61 -22.48,34.36 -56.99,57.9 -97.18,66.29 -10.57,2.21 -21.2,3.3 -31.75,3.3 z m -775.15,-858.29 c -64.29,0 -127.36,31.37 -165.11,89.05 -28.8,44.03 -38.74,96.62 -27.99,148.13 10.76,51.49 40.93,95.71 84.95,124.52 l 775.77,507.63 c 90.88,59.46 213.17,33.91 272.64,-56.97 28.81,-44.01 38.75,-96.62 27.99,-148.11 -10.76,-51.5 -40.92,-95.71 -84.95,-124.52 l -775.77,-507.64 c -33.18,-21.71 -70.56,-32.09 -107.53,-32.09"
         style="fill:#434244;fill-opacity:1;fill-rule:nonzero;stroke:none"
         id="path106" /><path
         d="m 1429.98,1916.29 663.53,434.42 c 81.03,53.02 103.74,161.69 50.71,242.72 -53.02,81.03 -161.69,103.73 -242.71,50.71 l -663.54,-434.42 c -81.03,-53.02 -103.73,-161.69 -50.71,-242.72 53.02,-81.02 161.69,-103.73 242.72,-50.71"
         style="fill:#f5b880;fill-opacity:1;fill-rule:nonzero;stroke:none"
         id="path108" /><path
         d="m 1386.4,1982.88 663.54,434.42 c 69.57,45.53 96.09,132.06 68.65,206.91 9.49,-9.07 18.13,-19.32 25.63,-30.78 v 0 c 53.03,-81.03 30.32,-189.7 -50.71,-242.72 l -663.53,-434.42 c -81.03,-53.02 -189.7,-30.31 -242.72,50.71 -7.5,11.46 -13.43,23.48 -17.95,35.81 57.61,-55.1 147.52,-65.45 217.09,-19.93"
         style="fill:#da9b6c;fill-opacity:1;fill-rule:nonzero;stroke:none"
         id="path110" /><path
         d="m 1429.98,1916.29 h 0.07 z m 567.29,734.81 c -28.86,0 -58.03,-8.1 -83.93,-25.05 l -663.53,-434.42 c -34.36,-22.49 -57.91,-57 -66.3,-97.19 -8.4,-40.19 -0.64,-81.25 21.84,-115.6 22.48,-34.36 56.99,-57.9 97.19,-66.3 40.19,-8.39 81.24,-0.64 115.6,21.83 l 663.53,434.43 c 70.93,46.41 90.87,141.87 44.47,212.8 -29.47,45.02 -78.7,69.5 -128.87,69.5 z m -662.99,-784.99 c -64.29,0 -127.36,31.36 -165.11,89.06 -28.8,44.01 -38.74,96.62 -27.98,148.11 10.75,51.5 40.92,95.72 84.95,124.53 l 663.53,434.41 c 90.86,59.46 213.17,33.92 272.64,-56.95 59.46,-90.88 33.91,-213.18 -56.96,-272.64 l -663.53,-434.42 -0.01,-0.01 c -33.17,-21.71 -70.56,-32.09 -107.53,-32.09"
         style="fill:#434244;fill-opacity:1;fill-rule:nonzero;stroke:none"
         id="path112" /><path
         d="m 1998.92,1449.33 663.53,434.42 c 81.03,53.02 103.73,161.69 50.71,242.71 -53.02,81.03 -161.69,103.74 -242.72,50.72 l -663.53,-434.43 c -81.03,-53.01 -103.73,-161.69 -50.71,-242.71 53.02,-81.03 161.69,-103.73 242.72,-50.71"
         style="fill:#f5b880;fill-opacity:1;fill-rule:nonzero;stroke:none"
         id="path114" /><path
         d="m 1955.34,1515.92 663.54,434.42 c 69.57,45.53 96.08,132.06 68.65,206.91 9.49,-9.08 18.13,-19.33 25.63,-30.79 53.02,-81.02 30.32,-189.69 -50.71,-242.71 l -663.53,-434.42 c -81.03,-53.02 -189.7,-30.32 -242.72,50.71 -7.5,11.45 -13.43,23.48 -17.95,35.81 57.61,-55.11 147.52,-65.45 217.09,-19.93"
         style="fill:#da9b6c;fill-opacity:1;fill-rule:nonzero;stroke:none"
         id="path116" /><path
         d="m 1998.92,1449.33 h 0.06 z m 567.21,734.89 c -29.56,0 -58.52,-8.57 -83.85,-25.14 l -663.53,-434.41 c -34.36,-22.49 -57.91,-57 -66.3,-97.19 -8.4,-40.19 -0.64,-81.25 21.84,-115.61 22.48,-34.36 56.99,-57.91 97.18,-66.29 40.2,-8.4 81.25,-0.65 115.61,21.83 l 663.53,434.43 c 34.37,22.48 57.91,57 66.3,97.18 8.4,40.2 0.65,81.25 -21.84,115.61 -22.48,34.35 -57,57.9 -97.19,66.3 -10.57,2.2 -21.19,3.29 -31.75,3.29 z m -662.91,-785.07 c -64.28,0 -127.36,31.36 -165.11,89.05 -28.8,44.03 -38.74,96.62 -27.98,148.12 10.76,51.49 40.92,95.71 84.94,124.52 l 663.54,434.41 c 90.87,59.47 213.18,33.92 272.64,-56.95 28.81,-44.02 38.74,-96.62 27.98,-148.11 -10.75,-51.5 -40.92,-95.73 -84.94,-124.54 l -663.54,-434.41 v -0.01 c -33.18,-21.7 -70.56,-32.08 -107.53,-32.08"
         style="fill:#434244;fill-opacity:1;fill-rule:nonzero;stroke:none"
         id="path118" /><path
         d="m 2326.42,1239.3 523.9,341.48 c 81.04,53.03 103.73,161.69 50.72,242.72 -53.02,81.03 -161.69,103.73 -242.72,50.71 l -523.91,-341.49 c -81.02,-53.01 -103.73,-161.68 -50.7,-242.71 53.02,-81.03 161.69,-103.73 242.71,-50.71"
         style="fill:#f5b880;fill-opacity:1;fill-rule:nonzero;stroke:none"
         id="path120" /><path
         d="m 2282.85,1305.9 523.9,341.48 c 69.57,45.52 96.09,132.05 68.66,206.91 9.48,-9.08 18.13,-19.33 25.63,-30.78 v -0.01 c 53.01,-81.03 30.32,-189.69 -50.72,-242.72 l -523.9,-341.48 c -81.02,-53.02 -189.7,-30.32 -242.71,50.71 -7.5,11.45 -13.44,23.49 -17.95,35.81 57.6,-55.11 147.52,-65.45 217.09,-19.92"
         style="fill:#da9b6c;fill-opacity:1;fill-rule:nonzero;stroke:none"
         id="path122" /><path
         d="m 2754.01,1881.26 c -29.57,0 -58.53,-8.56 -83.85,-25.14 l -523.94,-341.51 c -34.33,-22.46 -57.87,-56.97 -66.27,-97.16 -8.4,-40.19 -0.64,-81.25 21.84,-115.6 22.48,-34.36 57,-57.9 97.19,-66.3 40.2,-8.4 81.24,-0.65 115.6,21.84 l 0.04,0.02 523.91,341.49 c 34.32,22.46 57.87,56.97 66.26,97.16 8.39,40.2 0.64,81.24 -21.84,115.61 -22.49,34.36 -57,57.9 -97.19,66.3 -10.56,2.21 -21.19,3.29 -31.75,3.29 z M 2230.82,1189 c -13.52,0 -27.14,1.4 -40.68,4.23 -51.49,10.75 -95.72,40.92 -124.52,84.94 -28.81,44.03 -38.74,96.62 -27.99,148.12 10.76,51.49 40.93,95.71 84.95,124.52 l 523.94,341.5 c 43.98,28.79 96.61,38.73 148.08,27.97 51.49,-10.76 95.71,-40.92 124.52,-84.95 28.81,-44.01 38.75,-96.61 27.99,-148.11 -10.76,-51.5 -40.93,-95.73 -84.94,-124.52 L 2338.26,1221.21 C 2305.82,1199.98 2268.71,1189 2230.82,1189"
         style="fill:#434244;fill-opacity:1;fill-rule:nonzero;stroke:none"
         id="path124" /><path
         d="M 882.602,2421.94 368.105,2758.61 558.793,3050.03 1073.3,2713.36 882.602,2421.94"
         style="fill:#152538;fill-opacity:1;fill-rule:nonzero;stroke:none"
         id="path126" /><path
         d="M 3254.89,3150.21 2730.08,3329 c -51.1,17.41 -107.37,10.31 -152.54,-19.25 l -292.19,-191.21 c -81.03,-53.02 -103.73,-161.68 -50.71,-242.71 l 366.91,-560.72 c 53.03,-81.04 161.69,-103.73 242.72,-50.72 81.03,53.02 103.73,161.69 50.71,242.72 l -273.54,418.03 c 0,0 253.15,-465.81 695.3,-176.49"
         style="fill:#f5b880;fill-opacity:1;fill-rule:nonzero;stroke:none"
         id="path128" /><path
         d="m 2748.66,2214.09 c -13.51,0 -27.13,1.41 -40.67,4.23 -51.5,10.76 -95.71,40.93 -124.52,84.95 l -366.92,560.72 c -28.81,44.02 -38.74,96.63 -27.99,148.12 10.76,51.5 40.93,95.72 84.95,124.52 l 292.19,191.2 c 51.1,33.43 113.56,41.31 171.35,21.63 l 524.82,-178.79 c 11.29,-3.85 17.34,-16.13 13.49,-27.43 -3.85,-11.3 -16.08,-17.34 -27.44,-13.49 l -524.81,178.79 c -45.12,15.38 -93.85,9.22 -133.73,-16.88 l -292.2,-191.2 c -70.92,-46.41 -90.87,-141.87 -44.46,-212.79 l 366.93,-560.73 c 22.48,-34.36 56.99,-57.91 97.18,-66.3 40.17,-8.4 81.24,-0.65 115.6,21.84 70.93,46.42 90.87,141.88 44.46,212.79 l -238.14,363.93 c -22.59,30.75 -34.81,52.87 -36.31,55.62 -5.54,10.19 -2.04,22.93 7.9,28.88 9.97,5.95 22.84,2.97 29.19,-6.72 l 31.29,-47.82 c 45.24,-62.13 139.78,-168.59 275.42,-202.64 113.24,-28.42 233.91,-1.43 358.66,80.21 9.99,6.55 23.38,3.74 29.93,-6.25 6.54,-9.99 3.73,-23.39 -6.26,-29.92 -135.4,-88.61 -267.69,-117.49 -393.2,-85.88 -57.2,14.41 -107.33,39.9 -150.16,69.67 l 127.87,-195.4 c 59.45,-90.87 33.89,-213.18 -56.98,-272.64 -32.44,-21.23 -69.55,-32.22 -107.44,-32.22"
         style="fill:#434244;fill-opacity:1;fill-rule:nonzero;stroke:none"
         id="path130" /><path
         d="m 1800.11,323 c -1.4,-3 -3.3,-5.301 -5.7,-6.801 -2.3,-1.5 -4.9,-2.199 -7.8,-2.199 -2.8,0 -5.4,0.699 -7.7,2.301 -2.4,1.597 -4.3,3.898 -5.6,7 -1.4,3.101 -2.1,6.801 -2.1,11.199 0,4.199 0.6,7.801 1.9,11 1.3,3.102 3.1,5.5 5.5,7.199 2.3,1.699 5,2.5 7.9,2.5 2.9,0 5.5,-0.801 7.9,-2.398 2.4,-1.699 4.3,-4 5.7,-7.199 1.4,-3.102 2.1,-6.801 2.1,-11.102 0,-4.602 -0.7,-8.398 -2.1,-11.5 z m 16.3,66.102 c -1.3,1.5 -3.2,2.3 -5.7,2.3 -2.4,0 -4.3,-0.8 -5.6,-2.5 -1.4,-1.703 -2,-4.203 -2,-7.601 v -23.903 c -3.1,3.301 -6.2,5.801 -9.4,7.403 -3.2,1.601 -7.1,2.398 -11.8,2.398 -8.1,0 -14.6,-2.801 -19.5,-8.5 -5,-5.597 -7.5,-13.5 -7.5,-23.699 0,-4.699 0.7,-9.199 1.9,-13.301 1.3,-4.097 3.1,-7.699 5.5,-10.801 2.4,-3 5.3,-5.398 8.6,-6.996 3.3,-1.601 6.9,-2.5 10.8,-2.5 2.9,0 5.6,0.399 8.1,1.297 2.4,0.801 4.7,2 6.8,3.5 2.2,1.602 4.3,3.602 6.5,6.102 v -1.602 c 0,-3 0.7,-5.301 2.1,-6.898 1.5,-1.602 3.3,-2.399 5.5,-2.399 2.3,0 4.1,0.797 5.6,2.399 1.4,1.5 2.1,3.801 2.1,6.898 v 71.5 c 0,3 -0.7,5.301 -2,6.903"
         style="fill:#434244;fill-opacity:1;fill-rule:nonzero;stroke:none"
         id="path132" /><path
         d="m 1847.61,352 c 2.6,2.801 5.9,4.199 9.9,4.199 4.2,0 7.7,-1.398 10.2,-4.097 2.6,-2.801 4.1,-6.903 4.5,-12.5 h -29.4 c 0.6,5.5 2.2,9.597 4.8,12.398 z m 33.8,-28.301 c -1.6,0 -2.8,-0.398 -3.6,-1.097 -2,-1.903 -3.6,-3.403 -4.9,-4.5 -1.3,-1.102 -2.7,-2.102 -4.2,-3.102 -1.5,-1 -3,-1.699 -4.6,-2.102 -1.6,-0.5 -3.4,-0.699 -5.3,-0.699 -2.9,0 -5.6,0.699 -8,2.102 -2.4,1.398 -4.3,3.597 -5.7,6.398 -1.5,2.801 -2.2,6 -2.3,9.699 h 31.7 c 4.3,0 7.6,0.602 9.9,1.801 2.3,1.199 3.5,3.903 3.5,8 0,4.301 -1.1,8.602 -3.4,12.903 -2.2,4.199 -5.6,7.699 -10.2,10.296 -4.5,2.704 -9.9,4 -16.3,4 -4.8,0 -9.3,-0.699 -13.2,-2.296 -4.1,-1.602 -7.4,-3.801 -10.1,-6.704 -2.8,-3 -4.9,-6.5 -6.3,-10.597 -1.4,-4 -2.1,-8.5 -2.1,-13.301 0,-10.199 2.9,-18.199 8.7,-24.102 5.7,-6 13.8,-8.996 24.2,-8.996 4.6,0 8.6,0.598 12.1,1.797 3.5,1.199 6.4,2.699 8.7,4.5 2.3,1.801 4.1,3.703 5.2,5.602 1.2,2 1.8,3.699 1.8,5.199 0,1.602 -0.6,2.902 -1.6,3.801 -1,0.898 -2.4,1.398 -4,1.398"
         style="fill:#434244;fill-opacity:1;fill-rule:nonzero;stroke:none"
         id="path134" /><path
         d="m 1945.91,330.602 c -1.6,2.296 -4,4.296 -7.2,6 -3.2,1.699 -7.3,3.097 -12.3,4.398 -4.3,1 -7.6,1.898 -10,2.602 -2.4,0.699 -4.3,1.597 -5.8,2.699 -1.4,1.097 -2.1,2.5 -2.1,4.199 0,1.801 1,3.402 2.9,4.602 1.9,1.3 4.4,1.898 7.3,1.898 2.9,0 5.1,-0.5 6.8,-1.398 1.6,-1 3.1,-2.204 4.3,-3.801 1.5,-1.903 2.8,-3.301 4,-4.301 1.2,-0.898 2.6,-1.398 4.3,-1.398 2.3,0 4,0.597 5.3,1.796 1.2,1.102 1.8,2.704 1.8,4.5 0,1.704 -0.5,3.5 -1.7,5.301 -1.2,1.699 -2.9,3.403 -5.1,4.801 -2.2,1.5 -5,2.699 -8.4,3.5 -3.3,0.898 -7.1,1.301 -11.3,1.301 -5.3,0 -9.9,-0.801 -13.7,-2.602 -3.8,-1.699 -6.6,-4 -8.6,-6.898 -1.9,-2.903 -2.9,-5.903 -2.9,-9.199 0,-3.602 1.1,-6.704 3.2,-9.204 2.1,-2.5 4.9,-4.5 8.4,-6 3.5,-1.5 8,-3 13.6,-4.398 4.9,-1.102 8.5,-2.398 10.7,-3.699 2.1,-1.301 3.2,-3.403 3.2,-6.199 0,-1.903 -1,-3.5 -3.1,-5 -2.1,-1.403 -4.8,-2.102 -8,-2.102 -4,0 -7.2,0.699 -9.5,2.102 -2.3,1.398 -4.3,3.597 -5.9,6.5 -0.9,1.5 -1.7,2.597 -2.7,3.5 -0.9,0.796 -2.2,1.199 -3.9,1.199 -1.9,0 -3.5,-0.602 -4.8,-1.903 -1.2,-1.296 -1.9,-2.796 -1.9,-4.597 0,-2.699 1,-5.301 3,-8 2,-2.699 5,-4.903 9.2,-6.699 4.1,-1.801 9.1,-2.7 15,-2.7 6,0 11.2,0.899 15.5,2.5 4.2,1.598 7.4,4.098 9.6,7.297 2.2,3.102 3.3,7 3.3,11.403 0,3 -0.8,5.597 -2.5,8"
         style="fill:#434244;fill-opacity:1;fill-rule:nonzero;stroke:none"
         id="path136" /><path
         d="m 1970.51,388.699 c -1.6,1.403 -3.5,2 -5.6,2 -2.1,0 -4,-0.699 -5.7,-2.199 -1.6,-1.5 -2.5,-3.398 -2.5,-5.699 0,-2.5 0.9,-4.5 2.5,-5.801 1.6,-1.398 3.5,-2.102 5.7,-2.102 2.2,0 4.1,0.704 5.7,2.102 1.6,1.398 2.4,3.301 2.4,5.801 0,2.597 -0.9,4.597 -2.5,5.898 z m 0.1,-23.801 c -1.5,1.602 -3.5,2.403 -5.8,2.403 -2.4,0 -4.3,-0.801 -5.8,-2.403 -1.5,-1.597 -2.3,-4 -2.3,-7.199 v -46.398 c 0,-3.199 0.8,-5.602 2.3,-7.301 1.5,-1.699 3.4,-2.598 5.8,-2.598 2.3,0 4.3,0.899 5.8,2.5 1.6,1.7 2.4,4.098 2.4,7.399 v 46.801 c 0,2.898 -0.8,5.199 -2.4,6.796"
         style="fill:#434244;fill-opacity:1;fill-rule:nonzero;stroke:none"
         id="path138" /><path
         d="m 2025.91,323.699 c -1.5,-2.898 -3.5,-5.097 -5.9,-6.597 -2.3,-1.403 -4.9,-2.102 -7.6,-2.102 -4.5,0 -8.2,1.699 -11.1,5 -2.9,3.398 -4.3,8.398 -4.3,14.898 0,6.504 1.4,11.504 4.2,15 2.8,3.602 6.5,5.301 11.1,5.301 4.8,0 8.6,-1.801 11.5,-5.5 2.9,-3.699 4.4,-8.801 4.4,-15.398 0,-4.199 -0.8,-7.699 -2.3,-10.602 z m 16.5,40.602 c -1,2 -3.1,3 -6.2,3 -2.2,0 -4,-0.699 -5.4,-2.301 -1.4,-1.5 -2,-3.699 -2,-6.5 v -2.199 c -2.9,3.801 -6.1,6.5 -9.4,8.301 -3.4,1.699 -7.4,2.597 -12,2.597 -3.8,0 -7.3,-0.699 -10.5,-2 -3.2,-1.398 -6.1,-3.398 -8.5,-6.097 -2.5,-2.7 -4.4,-6 -5.7,-9.903 -1.3,-3.898 -2,-8.301 -2,-13.199 0,-6.5 1.1,-12.301 3.3,-17.301 2.2,-5 5.3,-8.801 9.3,-11.597 4.1,-2.801 8.8,-4.204 14.3,-4.204 4.5,0 8.4,0.903 11.6,2.801 3.3,1.801 6.2,4.403 8.7,7.903 -0.1,-5.301 -0.2,-9.102 -0.4,-11.5 -0.2,-2.403 -0.7,-4.704 -1.6,-6.801 -1,-2.102 -2.6,-3.699 -4.9,-4.903 -2.3,-1.097 -5.6,-1.699 -9.8,-1.699 -2,0 -3.8,0.203 -5.4,0.5 -1.6,0.403 -3,1 -4.1,1.801 -1.1,0.699 -2.1,1.699 -3.1,2.801 -0.9,1 -1.8,2.097 -2.7,3.199 -1.8,2.102 -3.8,3.102 -6.2,3.102 -1.9,0 -3.5,-0.602 -4.9,-1.801 -1.3,-1.301 -2,-2.903 -2,-4.903 0,-2.597 1.2,-5.097 3.6,-7.597 2.3,-2.5 5.7,-4.5 10.1,-6.102 4.4,-1.5 9.4,-2.301 15,-2.301 6.1,0 11.2,0.602 15.3,1.801 4.1,1.301 7.4,3.102 9.9,5.699 2.5,2.5 4.4,5.704 5.5,9.602 1.2,3.898 1.8,8.5 1.8,13.898 V 355.5 c 0,3.801 -0.6,6.699 -1.6,8.801"
         style="fill:#434244;fill-opacity:1;fill-rule:nonzero;stroke:none"
         id="path140" /><path
         d="m 2111.81,350.199 c -0.3,2.301 -1,4.5 -2.1,6.5 -1.6,3.403 -4.2,6 -7.5,7.903 -3.4,1.8 -7.2,2.699 -11.5,2.699 -4.4,0 -8.3,-0.899 -11.6,-2.602 -3.4,-1.801 -6.5,-4.5 -9.4,-8.297 v 1.996 c 0,1.903 -0.3,3.602 -1,4.903 -0.7,1.301 -1.6,2.301 -2.8,3 -1.1,0.699 -2.4,1 -3.9,1 -2.3,0 -4.1,-0.699 -5.5,-2.199 -1.3,-1.602 -2,-3.903 -2,-7 v -46.801 c 0,-3.199 0.8,-5.602 2.3,-7.301 1.5,-1.699 3.4,-2.598 5.7,-2.598 2.4,0 4.4,0.899 5.9,2.5 1.5,1.598 2.3,4.098 2.3,7.399 v 20.301 c 0,6.597 0.4,11.097 1.2,13.5 1.1,3 2.9,5.398 5.2,7.097 2.4,1.703 5,2.602 7.9,2.602 4.5,0 7.4,-1.403 8.9,-4.199 1.5,-2.903 2.2,-6.903 2.2,-12.301 v -27 c 0,-3.199 0.8,-5.602 2.3,-7.301 1.5,-1.699 3.4,-2.598 5.9,-2.598 2.3,0 4.3,0.899 5.7,2.5 1.5,1.7 2.3,4.098 2.3,7.399 v 30.101 c 0,3.598 -0.2,6.496 -0.5,8.797"
         style="fill:#434244;fill-opacity:1;fill-rule:nonzero;stroke:none"
         id="path142" /><path
         d="m 2141.31,352 c 2.6,2.801 5.9,4.199 10,4.199 4.2,0 7.6,-1.398 10.2,-4.097 2.6,-2.801 4.1,-6.903 4.5,-12.5 h -29.4 c 0.6,5.5 2.1,9.597 4.7,12.398 z m 33.8,-28.301 c -1.5,0 -2.7,-0.398 -3.5,-1.097 -2.1,-1.903 -3.7,-3.403 -5,-4.5 -1.2,-1.102 -2.6,-2.102 -4.1,-3.102 -1.5,-1 -3.1,-1.699 -4.7,-2.102 -1.6,-0.5 -3.4,-0.699 -5.3,-0.699 -2.9,0 -5.5,0.699 -7.9,2.102 -2.4,1.398 -4.3,3.597 -5.8,6.398 -1.4,2.801 -2.2,6 -2.2,9.699 h 31.7 c 4.2,0 7.5,0.602 9.9,1.801 2.3,1.199 3.5,3.903 3.5,8 0,4.301 -1.2,8.602 -3.4,12.903 -2.3,4.199 -5.7,7.699 -10.2,10.296 -4.5,2.704 -10,4 -16.3,4 -4.9,0 -9.3,-0.699 -13.3,-2.296 -4,-1.602 -7.4,-3.801 -10.1,-6.704 -2.7,-3 -4.8,-6.5 -6.2,-10.597 -1.4,-4 -2.2,-8.5 -2.2,-13.301 0,-10.199 2.9,-18.199 8.7,-24.102 5.8,-6 13.9,-8.996 24.3,-8.996 4.5,0 8.6,0.598 12.1,1.797 3.5,1.199 6.4,2.699 8.7,4.5 2.3,1.801 4,3.703 5.2,5.602 1.1,2 1.7,3.699 1.7,5.199 0,1.602 -0.5,2.902 -1.5,3.801 -1.1,0.898 -2.4,1.398 -4.1,1.398"
         style="fill:#434244;fill-opacity:1;fill-rule:nonzero;stroke:none"
         id="path144" /><path
         d="m 2231.41,323 c -1.4,-3 -3.3,-5.301 -5.7,-6.801 -2.3,-1.5 -4.9,-2.199 -7.8,-2.199 -2.8,0 -5.4,0.699 -7.8,2.301 -2.3,1.597 -4.2,3.898 -5.6,7 -1.3,3.101 -2,6.801 -2,11.199 0,4.199 0.6,7.801 1.9,11 1.3,3.102 3.1,5.5 5.4,7.199 2.4,1.699 5,2.5 8,2.5 2.8,0 5.5,-0.801 7.9,-2.398 2.4,-1.699 4.3,-4 5.7,-7.199 1.4,-3.102 2.1,-6.801 2.1,-11.102 0,-4.602 -0.7,-8.398 -2.1,-11.5 z m 16.3,66.102 c -1.3,1.5 -3.2,2.3 -5.7,2.3 -2.4,0 -4.3,-0.8 -5.6,-2.5 -1.4,-1.703 -2,-4.203 -2,-7.601 v -23.903 c -3.1,3.301 -6.2,5.801 -9.4,7.403 -3.2,1.601 -7.2,2.398 -11.8,2.398 -8.1,0 -14.6,-2.801 -19.6,-8.5 -4.9,-5.597 -7.4,-13.5 -7.4,-23.699 0,-4.699 0.6,-9.199 1.9,-13.301 1.2,-4.097 3.1,-7.699 5.5,-10.801 2.4,-3 5.3,-5.398 8.6,-6.996 3.3,-1.601 6.8,-2.5 10.7,-2.5 3,0 5.7,0.399 8.1,1.297 2.5,0.801 4.8,2 6.9,3.5 2.1,1.602 4.3,3.602 6.5,6.102 v -1.602 c 0,-3 0.7,-5.301 2.1,-6.898 1.5,-1.602 3.3,-2.399 5.5,-2.399 2.3,0 4.1,0.797 5.5,2.399 1.5,1.5 2.2,3.801 2.2,6.898 v 71.5 c 0,3 -0.7,5.301 -2,6.903"
         style="fill:#434244;fill-opacity:1;fill-rule:nonzero;stroke:none"
         id="path146" /><path
         d="m 2327.91,319.301 c -2.9,-3.602 -6.4,-5.301 -10.5,-5.301 -4.8,0 -8.7,1.699 -11.6,5.199 -3,3.403 -4.4,8.403 -4.4,14.801 0,4.398 0.7,8.199 2,11.398 1.4,3.204 3.3,5.602 5.7,7.301 2.5,1.699 5.2,2.5 8.3,2.5 3,0 5.6,-0.801 7.9,-2.5 2.2,-1.699 4,-4.097 5.2,-7.199 1.2,-3 1.9,-6.699 1.9,-11 0,-6.602 -1.5,-11.699 -4.5,-15.199 z m 17.4,33 c -2.3,4.801 -5.4,8.5 -9.5,11.097 -4,2.5 -8.7,3.801 -14.1,3.801 -4.7,0 -8.6,-0.797 -11.8,-2.5 -3.2,-1.699 -6.3,-4.097 -9.3,-7.301 v 24.801 c 0,3 -0.7,5.199 -2,6.801 -1.4,1.602 -3.3,2.402 -5.8,2.402 -2.4,0 -4.2,-0.8 -5.5,-2.5 -1.4,-1.703 -2,-4.203 -2,-7.402 v -70.801 c 0,-3 0.7,-5.301 2,-6.898 1.4,-1.602 3.2,-2.399 5.5,-2.399 2.3,0 4.1,0.797 5.6,2.399 1.5,1.597 2.2,3.898 2.2,6.898 v 1.602 c 1.8,-2 3.2,-3.602 4.3,-4.602 1.1,-1.097 2.4,-2.097 3.9,-3 1.6,-1 3.5,-1.801 5.7,-2.398 2.2,-0.602 4.5,-0.899 7,-0.899 4.1,0 7.8,0.899 11.2,2.5 3.4,1.598 6.2,3.996 8.6,6.996 2.4,3.004 4.2,6.5 5.5,10.602 1.2,4.102 1.8,8.602 1.8,13.5 0,6.699 -1.1,12.398 -3.3,17.301"
         style="fill:#434244;fill-opacity:1;fill-rule:nonzero;stroke:none"
         id="path148" /><path
         d="m 2407.91,363.699 c -0.6,1.102 -1.5,2 -2.6,2.602 -1.1,0.699 -2.3,1 -3.6,1 -1.7,0 -3,-0.301 -3.9,-0.899 -0.9,-0.504 -1.8,-1.703 -2.6,-3.402 -0.9,-1.699 -1.8,-4.098 -2.8,-7.102 l -13,-37.097 -13.7,39.898 c -1,2.801 -2,4.903 -3.2,6.403 -1.2,1.5 -2.9,2.199 -5.3,2.199 -1.3,0 -2.6,-0.301 -3.9,-1 -1.2,-0.801 -2.2,-1.699 -2.9,-2.903 -0.7,-1.199 -1.1,-2.5 -1.1,-3.796 0,-1.301 0.6,-3.403 1.9,-6.301 l 19.9,-50.301 -1.5,-3.602 c -1.1,-2.597 -2.1,-4.597 -2.9,-6 -0.9,-1.398 -1.8,-2.296 -2.9,-2.898 -1.1,-0.5 -2.5,-0.801 -4.4,-0.801 -0.7,0 -1.6,0.102 -2.7,0.301 l -2.5,0.398 c -2.2,0 -3.9,-0.5 -5,-1.496 -1.1,-1.004 -1.7,-2.5 -1.7,-4.3 0,-2.704 1.2,-4.602 3.6,-5.7 2.3,-1.004 5.9,-1.504 10.6,-1.504 4.9,0 8.8,0.704 11.6,2.204 2.9,1.5 5.2,3.597 7,6.398 1.7,2.801 3.5,6.602 5.3,11.5 l 21.1,55.301 c 0.5,1.398 1,2.801 1.3,4.199 0.4,1.398 0.7,2.5 0.8,3.199 0,1.203 -0.3,2.403 -0.9,3.5"
         style="fill:#434244;fill-opacity:1;fill-rule:nonzero;stroke:none"
         id="path150" /><path
         d="m 2604.4,365.941 h 3.87 v 4.86 c 0,5.078 0.63,9.097 1.92,12.109 1.27,2.988 3.47,5.16 6.54,6.52 3.06,1.371 7.26,2.05 12.6,2.05 9.51,0 14.21,-2.3 14.21,-6.968 0,-1.481 -0.5,-2.77 -1.5,-3.852 -0.98,-1.051 -2.15,-1.601 -3.5,-1.601 -0.62,0 -1.73,0.121 -3.28,0.371 -1.48,0.218 -2.83,0.359 -3.9,0.359 -2.91,0 -4.79,-0.879 -5.65,-2.598 -0.8,-1.722 -1.23,-4.179 -1.23,-7.402 v -3.848 h 3.97 c 6.19,0 9.26,-1.859 9.26,-5.609 0,-2.621 -0.81,-4.312 -2.47,-5.023 -1.64,-0.719 -3.9,-1.067 -6.79,-1.067 h -3.97 v -42.953 c 0,-3.18 -0.74,-5.629 -2.3,-7.289 -1.51,-1.711 -3.46,-2.539 -5.9,-2.539 -2.29,0 -4.18,0.828 -5.72,2.539 -1.55,1.66 -2.29,4.109 -2.29,7.289 v 42.953 h -4.45 c -2.44,0 -4.28,0.528 -5.59,1.637 -1.31,1.051 -1.97,2.5 -1.97,4.242 0,3.879 2.71,5.82 8.14,5.82"
         style="fill:#434244;fill-opacity:1;fill-rule:nonzero;stroke:none"
         id="path152" /><path
         d="m 2657.47,324.84 v -13.551 c 0,-3.258 -0.84,-5.738 -2.34,-7.359 -1.55,-1.66 -3.5,-2.469 -5.86,-2.469 -2.39,0 -4.3,0.809 -5.78,2.5 -1.49,1.648 -2.27,4.109 -2.27,7.328 v 45.16 c 0,7.281 2.64,10.91 7.89,10.91 2.7,0 4.63,-0.839 5.82,-2.539 1.19,-1.711 1.86,-4.211 1.99,-7.55 1.92,3.339 3.91,5.839 5.92,7.55 2.09,1.7 4.77,2.539 8.19,2.539 3.43,0 6.71,-0.839 9.92,-2.539 3.22,-1.711 4.82,-3.98 4.82,-6.789 0,-1.961 -0.7,-3.621 -2.05,-4.89 -1.37,-1.282 -2.83,-1.93 -4.41,-1.93 -0.63,0 -2.07,0.391 -4.32,1.109 -2.28,0.711 -4.32,1.102 -6.02,1.102 -2.38,0 -4.33,-0.652 -5.84,-1.883 -1.5,-1.269 -2.67,-3.098 -3.51,-5.539 -0.8,-2.461 -1.37,-5.391 -1.7,-8.77 -0.31,-3.378 -0.45,-7.519 -0.45,-12.39"
         style="fill:#434244;fill-opacity:1;fill-rule:nonzero;stroke:none"
         id="path154" /><path
         d="m 2705.01,352 c 2.6,2.801 5.9,4.199 9.9,4.199 4.3,0 7.7,-1.398 10.3,-4.097 2.6,-2.801 4,-6.903 4.4,-12.5 h -29.3 c 0.5,5.5 2.1,9.597 4.7,12.398 z m 33.8,-28.301 c -1.6,0 -2.7,-0.301 -3.6,-1 -2,-1.898 -3.6,-3.5 -4.9,-4.5 -1.3,-1.199 -2.6,-2.199 -4.2,-3.199 -1.5,-0.898 -3,-1.699 -4.6,-2.102 -1.6,-0.5 -3.4,-0.699 -5.3,-0.699 -2.9,0 -5.6,0.699 -8,2.102 -2.4,1.5 -4.3,3.597 -5.7,6.398 -1.5,2.801 -2.2,6.102 -2.2,9.699 h 31.7 c 4.2,0 7.5,0.602 9.8,1.801 2.3,1.301 3.5,3.903 3.5,7.903 0,4.5 -1.1,8.699 -3.4,13 -2.2,4.199 -5.6,7.699 -10.1,10.398 -4.6,2.699 -10,4 -16.4,4 -4.8,0 -9.2,-0.801 -13.2,-2.398 -4.1,-1.5 -7.4,-3.801 -10.1,-6.704 -2.8,-2.898 -4.9,-6.398 -6.3,-10.5 -1.4,-4.097 -2.1,-8.597 -2.1,-13.398 0,-10.102 2.9,-18.199 8.7,-24.102 5.7,-6 13.8,-8.898 24.3,-8.898 4.5,0 8.5,0.602 12,1.699 3.5,1.199 6.4,2.699 8.8,4.5 2.3,1.801 4,3.703 5.2,5.699 1.1,1.903 1.7,3.602 1.7,5.102 0,1.699 -0.5,2.902 -1.6,3.801 -1,1 -2.4,1.398 -4,1.398"
         style="fill:#434244;fill-opacity:1;fill-rule:nonzero;stroke:none"
         id="path156" /><path
         d="m 2772.41,352 c 2.6,2.801 5.9,4.199 9.9,4.199 4.3,0 7.7,-1.398 10.3,-4.097 2.6,-2.801 4.1,-6.903 4.5,-12.5 h -29.4 c 0.5,5.5 2.1,9.597 4.7,12.398 z m 33.8,-28.301 c -1.5,0 -2.7,-0.301 -3.6,-1 -2,-1.898 -3.7,-3.5 -4.9,-4.5 -1.3,-1.199 -2.6,-2.199 -4.1,-3.199 -1.6,-0.898 -3.1,-1.699 -4.7,-2.102 -1.6,-0.5 -3.4,-0.699 -5.3,-0.699 -2.9,0 -5.6,0.699 -8,2.102 -2.3,1.5 -4.3,3.597 -5.7,6.398 -1.4,2.801 -2.2,6.102 -2.2,9.699 h 31.7 c 4.2,0 7.5,0.602 9.8,1.801 2.3,1.301 3.5,3.903 3.5,7.903 0,4.5 -1.1,8.699 -3.4,13 -2.2,4.199 -5.6,7.699 -10.1,10.398 -4.6,2.699 -10,4 -16.3,4 -4.9,0 -9.3,-0.801 -13.3,-2.398 -4.1,-1.5 -7.4,-3.801 -10.1,-6.704 -2.8,-2.898 -4.8,-6.398 -6.3,-10.5 -1.4,-4.097 -2.1,-8.597 -2.1,-13.398 0,-10.102 2.9,-18.199 8.6,-24.102 5.8,-6 13.9,-8.898 24.3,-8.898 4.6,0 8.7,0.602 12.1,1.699 3.5,1.199 6.4,2.699 8.8,4.5 2.3,1.801 4,3.703 5.1,5.699 1.2,1.903 1.8,3.602 1.8,5.102 0,1.699 -0.5,2.902 -1.5,3.801 -1.1,1 -2.4,1.398 -4.1,1.398"
         style="fill:#434244;fill-opacity:1;fill-rule:nonzero;stroke:none"
         id="path158" /><path
         d="m 2864.61,323.398 c -1.4,-3.199 -3.2,-5.5 -5.5,-7.097 -2.3,-1.5 -4.8,-2.301 -7.5,-2.301 -4.6,0 -8.3,1.801 -11.3,5.398 -3.1,3.5 -4.7,8.602 -4.7,15 0,6.801 1.6,12.004 4.7,15.602 3,3.5 6.8,5.301 11.3,5.301 2.8,0 5.4,-0.903 7.7,-2.5 2.3,-1.699 4.1,-4 5.4,-7.102 1.3,-3 2,-6.699 2,-11 0,-4.398 -0.7,-8.199 -2.1,-11.301 z m 14.7,28.704 c -2.5,5 -5.8,8.699 -10,11.296 -4.2,2.602 -8.8,3.801 -13.8,3.801 -4.1,0 -7.8,-0.797 -11.1,-2.597 -3.3,-1.801 -6.5,-4.5 -9.5,-8.301 v 1.898 c 0,3 -0.7,5.199 -2.2,6.801 -1.4,1.602 -3.3,2.398 -5.6,2.398 -2.3,0 -4.2,-0.796 -5.5,-2.296 -1.4,-1.602 -2,-3.801 -2,-6.903 v -70 c 0,-3.5 0.5,-6.199 1.4,-8.097 1.1,-1.801 3,-2.704 6.1,-2.704 5.2,0 7.8,3.602 7.8,10.704 v 24.296 c 2.9,-3.597 5.8,-6.296 9,-8.097 3.1,-1.903 7,-2.801 11.6,-2.801 3.9,0 7.4,0.699 10.8,2.199 3.4,1.602 6.3,3.699 8.7,6.602 2.5,2.801 4.4,6.301 5.8,10.5 1.4,4.097 2.1,8.801 2.1,13.699 0,6.801 -1.2,12.602 -3.6,17.602"
         style="fill:#434244;fill-opacity:1;fill-rule:nonzero;stroke:none"
         id="path160" /><path
         d="m 2904.81,388.801 c -1.6,1.301 -3.4,2 -5.5,2 -2.2,0 -4.1,-0.801 -5.8,-2.199 -1.6,-1.5 -2.4,-3.403 -2.4,-5.704 0,-2.597 0.8,-4.5 2.4,-5.898 1.6,-1.398 3.5,-2.102 5.8,-2.102 2.1,0 4,0.704 5.6,2.102 1.6,1.398 2.4,3.398 2.4,5.898 0,2.5 -0.8,4.5 -2.5,5.903 z m 0.2,-23.903 c -1.6,1.704 -3.5,2.5 -5.9,2.5 -2.4,0 -4.3,-0.796 -5.8,-2.5 -1.5,-1.597 -2.2,-4 -2.2,-7.199 v -46.398 c 0,-3.199 0.7,-5.602 2.2,-7.301 1.5,-1.699 3.4,-2.5 5.8,-2.5 2.4,0 4.3,0.801 5.9,2.5 1.5,1.602 2.3,4.102 2.3,7.301 v 46.898 c 0,2.801 -0.8,5.102 -2.3,6.699"
         style="fill:#434244;fill-opacity:1;fill-rule:nonzero;stroke:none"
         id="path162" /><path
         d="m 2959.54,308.852 -14.28,23.527 -8.8,-8.297 v -12.91 c 0,-3.102 -0.83,-5.512 -2.49,-7.172 -1.6,-1.711 -3.53,-2.539 -5.66,-2.539 -2.48,0 -4.45,0.809 -5.88,2.5 -1.4,1.648 -2.15,4.109 -2.15,7.328 v 69.16 c 0,3.571 0.73,6.313 2.07,8.199 1.41,1.903 3.42,2.832 5.96,2.832 2.5,0 4.45,-0.859 5.94,-2.57 1.46,-1.699 2.21,-4.219 2.21,-7.519 V 342.07 l 18.22,19.141 c 2.26,2.34 3.96,4 5.17,4.859 1.19,0.86 2.62,1.289 4.32,1.289 2.03,0 3.71,-0.64 5.1,-1.929 1.31,-1.27 1.99,-2.91 1.99,-4.821 0,-2.367 -2.21,-5.55 -6.58,-9.519 l -8.62,-7.891 16.63,-26.129 c 1.21,-1.968 2.1,-3.398 2.63,-4.41 0.53,-1 0.82,-2.019 0.82,-2.89 0,-2.579 -0.72,-4.59 -2.13,-6.098 -1.4,-1.481 -3.28,-2.211 -5.52,-2.211 -2,0 -3.54,0.488 -4.59,1.59 -1.08,1.09 -2.54,3.019 -4.36,5.801"
         style="fill:#434244;fill-opacity:1;fill-rule:nonzero;stroke:none"
         id="path164" /><path
         d="m 2994.76,301.461 c -2.45,0 -4.55,0.789 -6.33,2.371 -1.78,1.559 -2.68,3.789 -2.68,6.66 0,2.399 0.86,4.488 2.56,6.207 1.72,1.762 3.79,2.641 6.29,2.641 2.5,0 4.61,-0.879 6.41,-2.578 1.73,-1.723 2.63,-3.832 2.63,-6.27 0,-2.832 -0.9,-5.043 -2.63,-6.621 -1.8,-1.621 -3.89,-2.41 -6.25,-2.41"
         style="fill:#434244;fill-opacity:1;fill-rule:nonzero;stroke:none"
         id="path166" /><path
         d="m 3075.38,321.52 c 0,-2.008 -0.6,-4.18 -1.82,-6.461 -1.21,-2.329 -3.06,-4.489 -5.54,-6.559 -2.46,-2.07 -5.57,-3.77 -9.34,-5.02 -3.77,-1.269 -8.01,-1.921 -12.69,-1.921 -10.04,0 -17.87,2.933 -23.5,8.75 -5.59,5.839 -8.4,13.691 -8.4,23.5 0,6.683 1.27,12.543 3.87,17.652 2.54,5.078 6.27,9.051 11.13,11.84 4.87,2.789 10.72,4.179 17.46,4.179 4.22,0 8.05,-0.609 11.58,-1.839 3.5,-1.231 6.45,-2.832 8.91,-4.743 2.42,-1.968 4.28,-4.027 5.55,-6.207 1.31,-2.191 1.93,-4.242 1.93,-6.152 0,-1.937 -0.7,-3.578 -2.15,-4.93 -1.46,-1.339 -3.22,-2.027 -5.23,-2.027 -1.37,0 -2.48,0.348 -3.38,1.039 -0.9,0.699 -1.91,1.809 -2.99,3.379 -1.99,3 -4.04,5.27 -6.23,6.75 -2.15,1.531 -4.88,2.27 -8.22,2.27 -4.75,0 -8.63,-1.879 -11.58,-5.61 -2.91,-3.73 -4.4,-8.879 -4.4,-15.351 0,-3.039 0.39,-5.86 1.15,-8.418 0.73,-2.532 1.82,-4.719 3.25,-6.52 1.44,-1.801 3.16,-3.16 5.17,-4.082 2.01,-0.98 4.26,-1.43 6.64,-1.43 3.26,0 6.04,0.762 8.36,2.27 2.35,1.5 4.4,3.793 6.15,6.871 1,1.84 2.06,3.25 3.19,4.281 1.15,1.02 2.56,1.559 4.24,1.559 1.97,0 3.61,-0.758 4.9,-2.258 1.33,-1.512 1.99,-3.133 1.99,-4.812"
         style="fill:#434244;fill-opacity:1;fill-rule:nonzero;stroke:none"
         id="path168" /><path
         d="m 3124.71,319.102 c -2.9,-3.704 -6.8,-5.602 -11.8,-5.602 -3.2,0 -6,0.898 -8.4,2.5 -2.4,1.699 -4.2,4.102 -5.5,7.301 -1.3,3.199 -2,6.898 -2,11.097 0,4.301 0.7,8 2,11.204 1.3,3.199 3.1,5.699 5.6,7.296 2.4,1.704 5.2,2.5 8.3,2.5 5,0 8.9,-1.796 11.8,-5.597 2.9,-3.602 4.3,-8.801 4.3,-15.403 0,-6.5 -1.4,-11.597 -4.3,-15.296 z m 18.4,28.699 c -1.5,4 -3.6,7.5 -6.5,10.398 -2.9,2.903 -6.3,5.199 -10.3,6.801 -4,1.602 -8.4,2.398 -13.4,2.398 -4.8,0 -9.2,-0.796 -13.2,-2.398 -4,-1.5 -7.4,-3.801 -10.2,-6.699 -2.8,-2.801 -5,-6.301 -6.5,-10.403 -1.5,-4.097 -2.2,-8.597 -2.2,-13.5 0,-4.796 0.7,-9.296 2.2,-13.296 1.5,-4 3.7,-7.5 6.5,-10.5 2.9,-2.903 6.3,-5.204 10.2,-6.801 3.9,-1.602 8.3,-2.399 13.2,-2.399 5,0 9.4,0.797 13.4,2.399 4,1.597 7.4,3.801 10.2,6.699 2.9,3 5,6.5 6.6,10.5 1.5,4.102 2.2,8.602 2.2,13.398 0,4.903 -0.7,9.301 -2.2,13.403"
         style="fill:#434244;fill-opacity:1;fill-rule:nonzero;stroke:none"
         id="path170" /><path
         d="M 3207.14,333.199 V 311.66 c 0,-3.418 -0.76,-5.941 -2.31,-7.66 -1.56,-1.711 -3.57,-2.551 -6.11,-2.551 -2.46,0 -4.45,0.84 -5.94,2.551 -1.54,1.719 -2.32,4.242 -2.32,7.66 v 25.82 c 0,4.079 -0.14,7.27 -0.41,9.532 -0.27,2.207 -1.06,4.097 -2.27,5.527 -1.23,1.461 -3.18,2.191 -5.82,2.191 -5.31,0 -8.79,-1.82 -10.47,-5.511 -1.68,-3.598 -2.53,-8.828 -2.53,-15.668 V 311.66 c 0,-3.359 -0.77,-5.898 -2.27,-7.64 -1.54,-1.719 -3.54,-2.571 -6.02,-2.571 -2.48,0 -4.49,0.852 -6.05,2.571 -1.56,1.742 -2.34,4.281 -2.34,7.64 v 46.371 c 0,3.059 0.68,5.391 2.09,6.949 1.42,1.602 3.28,2.379 5.56,2.379 2.23,0 4.06,-0.757 5.57,-2.218 1.48,-1.493 2.21,-3.539 2.21,-6.161 v -1.519 c 2.83,3.34 5.85,5.82 9.04,7.379 3.22,1.621 6.76,2.41 10.7,2.41 4.06,0 7.56,-0.82 10.49,-2.43 2.93,-1.64 5.33,-4.101 7.25,-7.359 2.75,3.301 5.68,5.758 8.8,7.379 3.13,1.609 6.59,2.41 10.39,2.41 4.42,0 8.27,-0.879 11.47,-2.621 3.18,-1.738 5.59,-4.238 7.17,-7.457 1.38,-2.973 2.07,-7.563 2.07,-13.871 V 311.66 c 0,-3.418 -0.76,-5.941 -2.31,-7.66 -1.54,-1.711 -3.59,-2.551 -6.11,-2.551 -2.46,0 -4.47,0.852 -6.04,2.571 -1.56,1.742 -2.34,4.281 -2.34,7.64 v 27.27 c 0,3.492 -0.16,6.269 -0.43,8.359 -0.29,2.102 -1.11,3.883 -2.4,5.293 -1.33,1.418 -3.32,2.148 -5.96,2.148 -2.13,0 -4.16,-0.671 -6.09,-1.921 -1.92,-1.25 -3.42,-2.989 -4.49,-5.079 -1.18,-2.75 -1.78,-7.589 -1.78,-14.531"
         style="fill:#434244;fill-opacity:1;fill-rule:nonzero;stroke:none"
         id="path172" /><path
         d="m 2452.74,338.32 -0.02,0.121 0.02,-0.121"
         style="fill:#434244;fill-opacity:1;fill-rule:nonzero;stroke:none"
         id="path174" /><path
         d="m 2453.55,333.141 h 0.01 c -0.3,1.468 -0.54,2.929 -0.74,4.379 0.2,-1.45 0.44,-2.93 0.73,-4.379"
         style="fill:#434244;fill-opacity:1;fill-rule:nonzero;stroke:none"
         id="path176" /><path
         d="m 2458.92,318.109 -0.11,0.192 0.11,-0.192"
         style="fill:#434244;fill-opacity:1;fill-rule:nonzero;stroke:none"
         id="path178" /><path
         d="m 2458.41,319.102 -0.41,0.839 0.41,-0.839"
         style="fill:#434244;fill-opacity:1;fill-rule:nonzero;stroke:none"
         id="path180" /><path
         d="m 2455.07,327.34 c 0.78,-2.5 1.74,-4.918 2.85,-7.219 -1.13,2.34 -2.07,4.777 -2.83,7.219 h -0.02"
         style="fill:#434244;fill-opacity:1;fill-rule:nonzero;stroke:none"
         id="path182" /><path
         d="m 2515.46,400.43 c 3.14,0 5.45,-0.25 8.1,-0.7 l 0.75,4.762 c 0,0 -7.31,2.25 -16.94,1.469 l -0.76,2.59 c 2.99,0.629 5.24,3.289 5.24,6.469 0,3.628 -2.95,6.582 -6.61,6.582 -3.65,0 -6.6,-2.954 -6.6,-6.582 0,-3.18 2.25,-5.84 5.24,-6.469 l 0.84,-2.891 c -10.22,-1.398 -18.35,-5.39 -18.35,-5.39 l 1.43,-4.411 c 6.18,2.071 11.55,3.321 16.41,3.852 4.76,0.488 8.34,0.719 11.25,0.719"
         style="fill:#434244;fill-opacity:1;fill-rule:nonzero;stroke:none"
         id="path184" /><path
         d="m 2458.8,376.309 0.04,0.062 0.7,0.879 -1.95,1.398 -3.05,2.231 c -0.17,-0.238 -4.97,-4.649 -8.77,-12.789 l -0.55,0.742 c -1.14,1.25 -2.73,1.867 -4.74,1.828 h -0.1 c -1.25,0 -2.11,0.43 -2.67,0.922 0.56,0.719 0.9,1.598 0.9,2.598 0,2.281 -1.87,4.179 -4.19,4.179 -2.3,0 -4.18,-1.898 -4.18,-4.179 0,-2.321 1.88,-4.18 4.18,-4.18 l 1.05,0.121 c 1.02,-1.141 2.66,-2.129 5.05,-2.09 1.23,0.02 2.13,-0.301 2.73,-0.961 l 1,-2.679 -0.02,-0.032 c -2.72,-7.429 -1.94,-16.679 -1.94,-16.679 l 6.61,-0.282 c 0.13,3.383 0.62,9.282 2.32,13.954 3.28,9.058 7.4,14.718 7.58,14.957"
         style="fill:#434244;fill-opacity:1;fill-rule:nonzero;stroke:none"
         id="path186" /><path
         d="m 2572.96,394.898 c -2.31,0 -4.18,-1.867 -4.18,-4.179 l 0.16,-1.028 c -1.16,-1.043 -2.15,-2.679 -2.11,-5.062 0.02,-1.231 -0.3,-2.129 -0.98,-2.738 l -1.84,-0.871 c -4.92,6.89 -10.97,11.089 -10.97,11.089 l -4.75,-5.078 c 3.59,-3.261 7.25,-7.34 10.8,-12.441 2.46,-3.52 5,-8.07 7.11,-12.598 l 6.39,3.047 c 0,0 -2.91,7.231 -7.03,13.691 l 2.07,1.211 c 1.25,1.11 1.87,2.719 1.83,4.731 -0.02,1.308 0.41,2.187 0.92,2.75 0.72,-0.531 1.62,-0.883 2.58,-0.883 2.32,0 4.2,1.883 4.2,4.18 0,2.312 -1.88,4.179 -4.2,4.179"
         style="fill:#434244;fill-opacity:1;fill-rule:nonzero;stroke:none"
         id="path188" /><path
         d="m 2556.36,337.379 c -8.81,-4.27 -23.3,-9.957 -42.39,-12.609 -7.5,-1.04 -14.74,-1.43 -21.42,-1.43 -8.69,0 -16.37,0.64 -22.27,1.39 -6.72,0.86 -11.99,1.891 -15.19,2.61 0.76,-2.442 1.7,-4.879 2.83,-7.219 l 0.08,-0.18 0.41,-0.839 0.4,-0.801 0.11,-0.192 c 1.89,-3.578 4.16,-6.859 6.75,-9.687 9.01,-9.852 18.17,-11.41 18.26,-11.41 l 0.14,-0.02 0.14,-0.062 c 0.08,-0.02 8.2,-2.649 20.57,-2.649 12.14,0 24.08,2.461 35.46,7.301 8.42,4.297 16.39,10.84 20.34,16.68 3.04,4.508 5.25,9.34 6.56,14.34 0.68,2.648 1.25,6.929 0.92,11.398 -2.48,-1.66 -6.41,-4.039 -11.7,-6.621"
         style="fill:#434244;fill-opacity:1;fill-rule:nonzero;stroke:none"
         id="path190" /><path
         d="m 2538.31,356.602 c -6,0 -10.9,4.898 -10.9,10.898 0,6 4.9,10.898 10.9,10.898 6,0 10.9,-4.898 10.9,-10.898 0,-6 -4.9,-10.898 -10.9,-10.898 z m -51.5,-13 c -9.7,0 -17.6,7.898 -17.6,17.597 0,9.699 7.9,17.602 17.6,17.602 9.7,0 17.6,-7.903 17.6,-17.602 0,-9.699 -7.9,-17.597 -17.6,-17.597 z m 69.4,29 c -12.5,17.898 -26,22.5 -33,23.597 -2.6,0.5 -4.7,0.699 -7.8,0.699 -2.7,0 -6.2,-0.199 -10.8,-0.699 -4.7,-0.5 -9.9,-1.699 -15.9,-3.699 -8.4,-2.898 -16,-7.301 -22,-12.801 l -0.2,-0.199 c -0.9,-0.801 -2.7,-2.602 -4.9,-5.301 -0.2,-0.398 -4.1,-5.801 -7.1,-14.097 -2.2,-6.2 -2.1,-15.204 -2.1,-15.301 v -0.102 c 0,-2.097 0.1,-4.199 0.3,-6.301 v -0.097 l 0.1,-0.801 c 0.2,-1.398 0.5,-2.898 0.8,-4.398 4.3,-1.102 30.4,-7.204 59.6,-3.102 18.3,2.5 32.2,7.898 40.6,12.102 7.1,3.296 11.6,6.398 13.3,7.699 -1.7,6.398 -6.5,16.5 -10.9,22.801"
         style="fill:#434244;fill-opacity:1;fill-rule:nonzero;stroke:none"
         id="path192" /></g></g></svg>
